Monoto-ExtendedLight.ufo
<glyph name="exclam" format="2">
  <advance width="720"/>
  <unicode hex="0021"/>
  <outline>
    <contour>
      <point x="349" y="174" type="line"/>
      <point x="375" y="174" type="line"/>
      <point x="375" y="714" type="line"/>
      <point x="348" y="714" type="line"/>
    </contour>
    <contour>
      <point x="359" y="-12" type="curve" smooth="yes"/>
      <point x="394" y="-12"/>
      <point x="395" y="4"/>
      <point x="395" y="23" type="curve" smooth="yes"/>
      <point x="395" y="41"/>
      <point x="394" y="58"/>
      <point x="359" y="58" type="curve" smooth="yes"/>
      <point x="332" y="58"/>
      <point x="327" y="41"/>
      <point x="327" y="23" type="curve" smooth="yes"/>
      <point x="327" y="4"/>
      <point x="332" y="-12"/>
    </contour>
  </outline>
</glyph>
<glyph name="quotedbl" format="2">
  <advance width="720"/>
  <unicode hex="0022"/>
  <outline>
    <contour>
      <point x="444" y="456" type="line"/>
      <point x="466" y="456" type="line"/>
      <point x="469" y="714" type="line"/>
      <point x="441" y="714" type="line"/>
    </contour>
    <contour>
      <point x="257" y="456" type="line"/>
      <point x="278" y="456" type="line"/>
      <point x="281" y="714" type="line"/>
      <point x="253" y="714" type="line"/>
    </contour>
  </outline>
</glyph>
<glyph name="numbersign" format="2">
  <advance width="720"/>
  <unicode hex="0023"/>
  <outline>
    <contour>
      <point x="116" y="0" type="line"/>
      <point x="142" y="0" type="line"/>
      <point x="189" y="231" type="line"/>
      <point x="405" y="231" type="line"/>
      <point x="357" y="0" type="line"/>
      <point x="385" y="0" type="line"/>
      <point x="432" y="231" type="line"/>
      <point x="593" y="231" type="line"/>
      <point x="593" y="255" type="line"/>
      <point x="434" y="255" type="line"/>
      <point x="478" y="471" type="line"/>
      <point x="636" y="471" type="line"/>
      <point x="636" y="495" type="line"/>
      <point x="480" y="495" type="line"/>
      <point x="523" y="714" type="line"/>
      <point x="498" y="714" type="line"/>
      <point x="453" y="495" type="line"/>
      <point x="239" y="495" type="line"/>
      <point x="282" y="714" type="line"/>
      <point x="256" y="714" type="line"/>
      <point x="213" y="495" type="line"/>
      <point x="48" y="495" type="line"/>
      <point x="48" y="471" type="line"/>
      <point x="208" y="471" type="line"/>
      <point x="165" y="255" type="line"/>
      <point x="8" y="255" type="line"/>
      <point x="8" y="231" type="line"/>
      <point x="162" y="231" type="line"/>
    </contour>
    <contour>
      <point x="192" y="255" type="line"/>
      <point x="235" y="471" type="line"/>
      <point x="451" y="471" type="line"/>
      <point x="409" y="255" type="line"/>
    </contour>
  </outline>
</glyph>
<glyph name="dollar" format="2">
  <advance width="720"/>
  <unicode hex="0024"/>
  <outline>
    <contour>
      <point x="350" y="-58" type="line"/>
      <point x="376" y="-58" type="line"/>
      <point x="376" y="22" type="line"/>
      <point x="520" y="28"/>
      <point x="625" y="82"/>
      <point x="625" y="186" type="curve" smooth="yes"/>
      <point x="625" y="290"/>
      <point x="522" y="328"/>
      <point x="376" y="370" type="curve"/>
      <point x="376" y="669" type="line"/>
      <point x="432" y="669"/>
      <point x="500" y="659"/>
      <point x="573" y="635" type="curve"/>
      <point x="586" y="658" type="line"/>
      <point x="515" y="682"/>
      <point x="444" y="694"/>
      <point x="376" y="695" type="curve"/>
      <point x="376" y="759" type="line"/>
      <point x="350" y="759" type="line"/>
      <point x="350" y="694" type="line"/>
      <point x="211" y="688"/>
      <point x="105" y="634"/>
      <point x="105" y="536" type="curve" smooth="yes"/>
      <point x="105" y="430"/>
      <point x="217" y="393"/>
      <point x="350" y="353" type="curve"/>
      <point x="350" y="47" type="line"/>
      <point x="255" y="48"/>
      <point x="167" y="62"/>
      <point x="108" y="80" type="curve"/>
      <point x="108" y="51" type="line"/>
      <point x="162" y="37"/>
      <point x="241" y="23"/>
      <point x="350" y="22" type="curve"/>
    </contour>
    <contour>
      <point x="376" y="47" type="curve"/>
      <point x="376" y="343" type="line"/>
      <point x="511" y="303"/>
      <point x="598" y="270"/>
      <point x="598" y="187" type="curve" smooth="yes"/>
      <point x="598" y="96"/>
      <point x="502" y="52"/>
    </contour>
    <contour>
      <point x="350" y="380" type="line"/>
      <point x="237" y="412"/>
      <point x="133" y="447"/>
      <point x="133" y="538" type="curve" smooth="yes"/>
      <point x="133" y="622"/>
      <point x="231" y="665"/>
      <point x="350" y="669" type="curve"/>
    </contour>
  </outline>
</glyph>
<glyph name="percent" format="2">
  <advance width="720"/>
  <unicode hex="0025"/>
  <outline>
    <contour>
      <point x="89" y="44" type="line"/>
      <point x="123" y="44" type="line"/>
      <point x="618" y="670" type="line"/>
      <point x="583" y="670" type="line"/>
    </contour>
    <contour>
      <point x="564" y="-9" type="curve" smooth="yes"/>
      <point x="688" y="-9"/>
      <point x="744" y="63"/>
      <point x="744" y="163" type="curve" smooth="yes"/>
      <point x="744" y="258"/>
      <point x="688" y="330"/>
      <point x="564" y="330" type="curve" smooth="yes"/>
      <point x="437" y="330"/>
      <point x="381" y="258"/>
      <point x="381" y="163" type="curve" smooth="yes"/>
      <point x="381" y="63"/>
      <point x="437" y="-9"/>
    </contour>
    <contour>
      <point x="564" y="15" type="curve" smooth="yes"/>
      <point x="457" y="15"/>
      <point x="409" y="78"/>
      <point x="409" y="163" type="curve" smooth="yes"/>
      <point x="409" y="246"/>
      <point x="457" y="306"/>
      <point x="564" y="306" type="curve" smooth="yes"/>
      <point x="668" y="306"/>
      <point x="716" y="244"/>
      <point x="716" y="163" type="curve" smooth="yes"/>
      <point x="716" y="77"/>
      <point x="667" y="15"/>
    </contour>
    <contour>
      <point x="161" y="383" type="curve" smooth="yes"/>
      <point x="285" y="383"/>
      <point x="341" y="455"/>
      <point x="341" y="555" type="curve" smooth="yes"/>
      <point x="341" y="650"/>
      <point x="285" y="722"/>
      <point x="160" y="722" type="curve" smooth="yes"/>
      <point x="34" y="722"/>
      <point x="-22" y="650"/>
      <point x="-22" y="555" type="curve" smooth="yes"/>
      <point x="-22" y="455"/>
      <point x="34" y="383"/>
    </contour>
    <contour>
      <point x="160" y="407" type="curve" smooth="yes"/>
      <point x="54" y="407"/>
      <point x="6" y="470"/>
      <point x="6" y="555" type="curve" smooth="yes"/>
      <point x="6" y="638"/>
      <point x="54" y="698"/>
      <point x="160" y="698" type="curve" smooth="yes"/>
      <point x="265" y="698"/>
      <point x="313" y="636"/>
      <point x="313" y="555" type="curve" smooth="yes"/>
      <point x="313" y="469"/>
      <point x="264" y="407"/>
    </contour>
  </outline>
</glyph>
<glyph name="ampersand" format="2">
  <advance width="720"/>
  <unicode hex="0026"/>
  <outline>
    <contour>
      <point x="312" y="-10" type="curve" smooth="yes"/>
      <point x="523" y="-10"/>
      <point x="645" y="149"/>
      <point x="671" y="317" type="curve"/>
      <point x="645" y="317" type="line"/>
      <point x="626" y="173"/>
      <point x="508" y="15"/>
      <point x="309" y="15" type="curve" smooth="yes"/>
      <point x="188" y="15"/>
      <point x="109" y="75"/>
      <point x="109" y="175" type="curve" smooth="yes"/>
      <point x="109" y="278"/>
      <point x="196" y="329"/>
      <point x="301" y="379" type="curve" smooth="yes"/>
      <point x="393" y="424"/>
      <point x="489" y="477"/>
      <point x="489" y="582" type="curve" smooth="yes"/>
      <point x="489" y="674"/>
      <point x="422" y="725"/>
      <point x="329" y="725" type="curve" smooth="yes"/>
      <point x="230" y="725"/>
      <point x="164" y="669"/>
      <point x="164" y="583" type="curve" smooth="yes"/>
      <point x="164" y="514"/>
      <point x="206" y="456"/>
      <point x="282" y="381" type="curve" smooth="yes"/>
      <point x="665" y="0" type="line"/>
      <point x="696" y="0" type="line"/>
      <point x="304" y="393" type="line" smooth="yes"/>
      <point x="241" y="455"/>
      <point x="189" y="517"/>
      <point x="189" y="584" type="curve" smooth="yes"/>
      <point x="189" y="653"/>
      <point x="241" y="700"/>
      <point x="329" y="700" type="curve" smooth="yes"/>
      <point x="413" y="700"/>
      <point x="462" y="654"/>
      <point x="462" y="583" type="curve" smooth="yes"/>
      <point x="462" y="492"/>
      <point x="376" y="440"/>
      <point x="285" y="398" type="curve" smooth="yes"/>
      <point x="175" y="347"/>
      <point x="82" y="291"/>
      <point x="82" y="175" type="curve" smooth="yes"/>
      <point x="82" y="60"/>
      <point x="173" y="-10"/>
    </contour>
  </outline>
</glyph>
<glyph name="parenleft" format="2">
  <advance width="720"/>
  <unicode hex="0028"/>
  <outline>
    <contour>
      <point x="454" y="-158" type="curve"/>
      <point x="486" y="-158" type="line"/>
      <point x="351" y="-39"/>
      <point x="291" y="109"/>
      <point x="291" y="275" type="curve" smooth="yes"/>
      <point x="291" y="443"/>
      <point x="350" y="596"/>
      <point x="487" y="714" type="curve"/>
      <point x="454" y="714" type="line"/>
      <point x="336" y="606"/>
      <point x="263" y="451"/>
      <point x="263" y="274" type="curve" smooth="yes"/>
      <point x="263" y="99"/>
      <point x="336" y="-46"/>
    </contour>
  </outline>
</glyph>
<glyph name="asterisk" format="2">
  <advance width="720"/>
  <unicode hex="002A"/>
  <outline>
    <contour>
      <point x="539" y="376" type="line"/>
      <point x="561" y="393" type="line"/>
      <point x="402" y="548" type="line"/>
      <point x="652" y="603" type="line"/>
      <point x="643" y="629" type="line"/>
      <point x="396" y="566" type="line"/>
      <point x="401" y="758" type="line"/>
      <point x="372" y="758" type="line"/>
      <point x="376" y="566" type="line"/>
      <point x="130" y="628" type="line"/>
      <point x="119" y="603" type="line"/>
      <point x="370" y="547" type="line"/>
      <point x="212" y="392" type="line"/>
      <point x="235" y="377" type="line"/>
      <point x="387" y="535" type="line"/>
    </contour>
  </outline>
</glyph>
<glyph name="plus" format="2">
  <advance width="720"/>
  <unicode hex="002B"/>
  <outline>
    <contour>
      <point x="346" y="123" type="line"/>
      <point x="372" y="123" type="line"/>
      <point x="372" y="341" type="line"/>
      <point x="657" y="341" type="line"/>
      <point x="657" y="365" type="line"/>
      <point x="372" y="365" type="line"/>
      <point x="372" y="583" type="line"/>
      <point x="346" y="583" type="line"/>
      <point x="346" y="365" type="line"/>
      <point x="62" y="365" type="line"/>
      <point x="62" y="341" type="line"/>
      <point x="346" y="341" type="line"/>
    </contour>
  </outline>
</glyph>
<glyph name="comma" format="2">
  <advance width="720"/>
  <unicode hex="002C"/>
  <outline>
    <contour>
      <point x="300" y="-129" type="curve"/>
      <point x="322" y="-129" type="line"/>
      <point x="358" y="-60"/>
      <point x="385" y="30"/>
      <point x="404" y="104" type="curve"/>
      <point x="401" y="116" type="line"/>
      <point x="374" y="116" type="line"/>
      <point x="360" y="40"/>
      <point x="339" y="-32"/>
    </contour>
  </outline>
</glyph>
<glyph name="period" format="2">
  <advance width="720"/>
  <unicode hex="002E"/>
  <outline>
    <contour>
      <point x="361" y="-12" type="curve" smooth="yes"/>
      <point x="393" y="-12"/>
      <point x="397" y="4"/>
      <point x="397" y="23" type="curve" smooth="yes"/>
      <point x="397" y="41"/>
      <point x="393" y="58"/>
      <point x="361" y="58" type="curve" smooth="yes"/>
      <point x="331" y="58"/>
      <point x="326" y="41"/>
      <point x="326" y="23" type="curve" smooth="yes"/>
      <point x="326" y="4"/>
      <point x="331" y="-12"/>
    </contour>
  </outline>
</glyph>
<glyph name="slash" format="2">
  <advance width="720"/>
  <unicode hex="002F"/>
  <outline>
    <contour>
      <point x="169" y="0" type="line"/>
      <point x="199" y="0" type="line"/>
      <point x="552" y="714" type="line"/>
      <point x="522" y="714" type="line"/>
    </contour>
  </outline>
</glyph>
<glyph name="zero" format="2">
  <advance width="720"/>
  <unicode hex="0030"/>
  <outline>
    <contour>
      <point x="362" y="-9" type="curve" smooth="yes"/>
      <point x="545" y="-9"/>
      <point x="630" y="117"/>
      <point x="630" y="363" type="curve" smooth="yes"/>
      <point x="630" y="572"/>
      <point x="573" y="725"/>
      <point x="365" y="725" type="curve" smooth="yes"/>
      <point x="158" y="725"/>
      <point x="90" y="573"/>
      <point x="90" y="359" type="curve" smooth="yes"/>
      <point x="90" y="110"/>
      <point x="187" y="-9"/>
    </contour>
    <contour>
      <point x="163" y="86" type="line"/>
      <point x="574" y="607" type="line"/>
      <point x="557" y="627" type="line"/>
      <point x="159" y="120" type="line"/>
    </contour>
    <contour>
      <point x="364" y="16" type="curve" smooth="yes"/>
      <point x="201" y="16"/>
      <point x="118" y="128"/>
      <point x="118" y="360" type="curve" smooth="yes"/>
      <point x="118" y="559"/>
      <point x="176" y="700"/>
      <point x="365" y="700" type="curve" smooth="yes"/>
      <point x="554" y="700"/>
      <point x="601" y="560"/>
      <point x="601" y="362" type="curve" smooth="yes"/>
      <point x="601" y="131"/>
      <point x="532" y="16"/>
    </contour>
  </outline>
</glyph>
<glyph name="one" format="2">
  <advance width="720"/>
  <unicode hex="0031"/>
  <outline>
    <contour>
      <point x="403" y="0" type="line"/>
      <point x="430" y="0" type="line"/>
      <point x="430" y="714" type="line"/>
      <point x="406" y="714" type="line"/>
      <point x="156" y="574" type="line"/>
      <point x="174" y="553" type="line"/>
      <point x="336" y="642" type="line" smooth="yes"/>
      <point x="367" y="660"/>
      <point x="384" y="670"/>
      <point x="404" y="684" type="curve"/>
      <point x="403" y="655"/>
      <point x="403" y="618"/>
      <point x="403" y="564" type="curve" smooth="yes"/>
    </contour>
    <contour>
      <point x="232" y="0" type="line"/>
      <point x="595" y="0" type="line"/>
      <point x="595" y="20" type="line"/>
      <point x="430" y="23" type="line"/>
      <point x="403" y="23" type="line"/>
      <point x="232" y="20" type="line"/>
    </contour>
  </outline>
</glyph>
<glyph name="two" format="2">
  <advance width="720"/>
  <unicode hex="0032"/>
  <outline>
    <contour>
      <point x="116" y="0" type="line"/>
      <point x="641" y="0" type="line"/>
      <point x="641" y="25" type="line"/>
      <point x="153" y="25" type="line"/>
      <point x="153" y="27" type="line"/>
      <point x="424" y="244" type="line" smooth="yes"/>
      <point x="542" y="340"/>
      <point x="598" y="419"/>
      <point x="598" y="539" type="curve" smooth="yes"/>
      <point x="598" y="653"/>
      <point x="506" y="724"/>
      <point x="360" y="724" type="curve" smooth="yes"/>
      <point x="284" y="724"/>
      <point x="199" y="705"/>
      <point x="121" y="658" type="curve"/>
      <point x="137" y="638" type="line"/>
      <point x="204" y="679"/>
      <point x="285" y="699"/>
      <point x="358" y="699" type="curve" smooth="yes"/>
      <point x="491" y="699"/>
      <point x="571" y="641"/>
      <point x="571" y="539" type="curve" smooth="yes"/>
      <point x="571" y="428"/>
      <point x="525" y="356"/>
      <point x="407" y="259" type="curve" smooth="yes"/>
      <point x="116" y="22" type="line"/>
    </contour>
  </outline>
</glyph>
<glyph name="three" format="2">
  <advance width="720"/>
  <unicode hex="0033"/>
  <outline>
    <contour>
      <point x="341" y="-10" type="curve" smooth="yes"/>
      <point x="541" y="-10"/>
      <point x="645" y="72"/>
      <point x="645" y="193" type="curve" smooth="yes"/>
      <point x="645" y="299"/>
      <point x="567" y="357"/>
      <point x="433" y="373" type="curve"/>
      <point x="433" y="375" type="line"/>
      <point x="538" y="391"/>
      <point x="618" y="455"/>
      <point x="618" y="554" type="curve" smooth="yes"/>
      <point x="618" y="661"/>
      <point x="518" y="724"/>
      <point x="374" y="724" type="curve" smooth="yes"/>
      <point x="270" y="724"/>
      <point x="187" y="696"/>
      <point x="111" y="652" type="curve"/>
      <point x="128" y="632" type="line"/>
      <point x="212" y="677"/>
      <point x="286" y="699"/>
      <point x="373" y="699" type="curve" smooth="yes"/>
      <point x="504" y="699"/>
      <point x="591" y="650"/>
      <point x="591" y="553" type="curve" smooth="yes"/>
      <point x="591" y="436"/>
      <point x="465" y="384"/>
      <point x="334" y="384" type="curve" smooth="yes"/>
      <point x="228" y="384" type="line"/>
      <point x="228" y="359" type="line"/>
      <point x="334" y="359" type="line" smooth="yes"/>
      <point x="498" y="359"/>
      <point x="617" y="314"/>
      <point x="617" y="193" type="curve" smooth="yes"/>
      <point x="617" y="84"/>
      <point x="522" y="15"/>
      <point x="346" y="15" type="curve" smooth="yes"/>
      <point x="252" y="15"/>
      <point x="164" y="34"/>
      <point x="102" y="58" type="curve"/>
      <point x="102" y="30" type="line"/>
      <point x="167" y="7"/>
      <point x="252" y="-10"/>
    </contour>
  </outline>
</glyph>
<glyph name="four" format="2">
  <advance width="720"/>
  <unicode hex="0034"/>
  <outline>
    <contour>
      <point x="494" y="0" type="line"/>
      <point x="521" y="0" type="line"/>
      <point x="521" y="192" type="line"/>
      <point x="666" y="192" type="line"/>
      <point x="666" y="217" type="line"/>
      <point x="521" y="217" type="line"/>
      <point x="521" y="718" type="line"/>
      <point x="488" y="718" type="line"/>
      <point x="56" y="211" type="line"/>
      <point x="56" y="192" type="line"/>
      <point x="494" y="192" type="line"/>
    </contour>
    <contour>
      <point x="93" y="217" type="line"/>
      <point x="412" y="586" type="line" smooth="yes"/>
      <point x="448" y="627"/>
      <point x="464" y="649"/>
      <point x="494" y="685" type="curve"/>
      <point x="495" y="685" type="line"/>
      <point x="494" y="638"/>
      <point x="494" y="614"/>
      <point x="494" y="536" type="curve" smooth="yes"/>
      <point x="494" y="217" type="line"/>
    </contour>
  </outline>
</glyph>
<glyph name="five" format="2">
  <advance width="720"/>
  <unicode hex="0035"/>
  <outline>
    <contour>
      <point x="330" y="-10" type="curve" smooth="yes"/>
      <point x="520" y="-10"/>
      <point x="625" y="79"/>
      <point x="625" y="219" type="curve" smooth="yes"/>
      <point x="625" y="350"/>
      <point x="528" y="426"/>
      <point x="347" y="426" type="curve" smooth="yes"/>
      <point x="265" y="426"/>
      <point x="195" y="414"/>
      <point x="168" y="407" type="curve"/>
      <point x="203" y="689" type="line"/>
      <point x="581" y="689" type="line"/>
      <point x="581" y="714" type="line"/>
      <point x="179" y="714" type="line"/>
      <point x="140" y="393" type="line"/>
      <point x="162" y="378" type="line"/>
      <point x="224" y="392"/>
      <point x="288" y="401"/>
      <point x="349" y="401" type="curve" smooth="yes"/>
      <point x="522" y="401"/>
      <point x="598" y="331"/>
      <point x="598" y="218" type="curve" smooth="yes"/>
      <point x="598" y="93"/>
      <point x="501" y="15"/>
      <point x="333" y="15" type="curve" smooth="yes"/>
      <point x="251" y="15"/>
      <point x="168" y="34"/>
      <point x="109" y="60" type="curve"/>
      <point x="109" y="30" type="line"/>
      <point x="159" y="8"/>
      <point x="244" y="-10"/>
    </contour>
  </outline>
</glyph>
<glyph name="six" format="2">
  <advance width="720"/>
  <unicode hex="0036"/>
  <outline>
    <contour>
      <point x="375" y="-11" type="curve" smooth="yes"/>
      <point x="539" y="-11"/>
      <point x="632" y="86"/>
      <point x="632" y="224" type="curve" smooth="yes"/>
      <point x="632" y="354"/>
      <point x="538" y="439"/>
      <point x="378" y="439" type="curve" smooth="yes"/>
      <point x="230" y="439"/>
      <point x="151" y="378"/>
      <point x="119" y="324" type="curve"/>
      <point x="118" y="324" type="line"/>
      <point x="118" y="596"/>
      <point x="271" y="700"/>
      <point x="438" y="700" type="curve" smooth="yes"/>
      <point x="481" y="700"/>
      <point x="528" y="694"/>
      <point x="559" y="685" type="curve"/>
      <point x="559" y="712" type="line"/>
      <point x="524" y="720"/>
      <point x="481" y="725"/>
      <point x="439" y="725" type="curve" smooth="yes"/>
      <point x="256" y="725"/>
      <point x="92" y="607"/>
      <point x="92" y="321" type="curve" smooth="yes"/>
      <point x="92" y="140"/>
      <point x="160" y="-11"/>
    </contour>
    <contour>
      <point x="375" y="14" type="curve" smooth="yes"/>
      <point x="162" y="14"/>
      <point x="127" y="183"/>
      <point x="127" y="246" type="curve" smooth="yes"/>
      <point x="127" y="336"/>
      <point x="224" y="414"/>
      <point x="377" y="414" type="curve" smooth="yes"/>
      <point x="534" y="414"/>
      <point x="603" y="338"/>
      <point x="603" y="224" type="curve" smooth="yes"/>
      <point x="603" y="95"/>
      <point x="524" y="14"/>
    </contour>
  </outline>
</glyph>
<glyph name="seven" format="2">
  <advance width="720"/>
  <unicode hex="0037"/>
  <outline>
    <contour>
      <point x="246" y="0" type="line"/>
      <point x="276" y="0" type="line"/>
      <point x="626" y="696" type="line"/>
      <point x="626" y="714" type="line"/>
      <point x="136" y="714" type="line"/>
      <point x="136" y="689" type="line"/>
      <point x="595" y="689" type="line"/>
    </contour>
  </outline>
</glyph>
<glyph name="eight" format="2">
  <advance width="720"/>
  <unicode hex="0038"/>
  <outline>
    <contour>
      <point x="334" y="-10" type="curve" smooth="yes"/>
      <point x="488" y="-10"/>
      <point x="610" y="61"/>
      <point x="610" y="180" type="curve" smooth="yes"/>
      <point x="610" y="280"/>
      <point x="529" y="337"/>
      <point x="374" y="381" type="curve"/>
      <point x="504" y="423"/>
      <point x="579" y="473"/>
      <point x="579" y="564" type="curve" smooth="yes"/>
      <point x="579" y="662"/>
      <point x="485" y="724"/>
      <point x="346" y="724" type="curve" smooth="yes"/>
      <point x="195" y="724"/>
      <point x="102" y="659"/>
      <point x="102" y="559" type="curve" smooth="yes"/>
      <point x="102" y="464"/>
      <point x="193" y="417"/>
      <point x="306" y="381" type="curve"/>
      <point x="164" y="341"/>
      <point x="73" y="281"/>
      <point x="73" y="175" type="curve" smooth="yes"/>
      <point x="73" y="65"/>
      <point x="180" y="-10"/>
    </contour>
    <contour>
      <point x="335" y="15" type="curve" smooth="yes"/>
      <point x="197" y="15"/>
      <point x="100" y="78"/>
      <point x="100" y="175" type="curve" smooth="yes"/>
      <point x="100" y="280"/>
      <point x="208" y="331"/>
      <point x="340" y="368" type="curve"/>
      <point x="522" y="316"/>
      <point x="582" y="267"/>
      <point x="582" y="181" type="curve" smooth="yes"/>
      <point x="582" y="74"/>
      <point x="477" y="15"/>
    </contour>
    <contour>
      <point x="342" y="394" type="curve"/>
      <point x="209" y="432"/>
      <point x="130" y="472"/>
      <point x="130" y="561" type="curve" smooth="yes"/>
      <point x="130" y="648"/>
      <point x="218" y="699"/>
      <point x="346" y="699" type="curve" smooth="yes"/>
      <point x="473" y="699"/>
      <point x="551" y="649"/>
      <point x="551" y="564" type="curve" smooth="yes"/>
      <point x="551" y="477"/>
      <point x="481" y="436"/>
    </contour>
  </outline>
</glyph>
<glyph name="nine" format="2">
  <advance width="720"/>
  <unicode hex="0039"/>
  <outline>
    <contour>
      <point x="271" y="-10" type="curve" smooth="yes"/>
      <point x="463" y="-10"/>
      <point x="625" y="105"/>
      <point x="625" y="403" type="curve" smooth="yes"/>
      <point x="625" y="576"/>
      <point x="554" y="726"/>
      <point x="345" y="726" type="curve" smooth="yes"/>
      <point x="179" y="726"/>
      <point x="86" y="632"/>
      <point x="86" y="491" type="curve" smooth="yes"/>
      <point x="86" y="362"/>
      <point x="175" y="277"/>
      <point x="338" y="277" type="curve" smooth="yes"/>
      <point x="484" y="277"/>
      <point x="565" y="336"/>
      <point x="600" y="390" type="curve"/>
      <point x="602" y="390" type="line"/>
      <point x="594" y="117"/>
      <point x="447" y="15"/>
      <point x="272" y="15" type="curve" smooth="yes"/>
      <point x="217" y="15"/>
      <point x="162" y="22"/>
      <point x="131" y="31" type="curve"/>
      <point x="131" y="3" type="line"/>
      <point x="166" y="-5"/>
      <point x="217" y="-10"/>
    </contour>
    <contour>
      <point x="339" y="302" type="curve" smooth="yes"/>
      <point x="188" y="302"/>
      <point x="114" y="375"/>
      <point x="114" y="491" type="curve" smooth="yes"/>
      <point x="114" y="622"/>
      <point x="194" y="701"/>
      <point x="345" y="701" type="curve" smooth="yes"/>
      <point x="550" y="701"/>
      <point x="592" y="539"/>
      <point x="592" y="460" type="curve" smooth="yes"/>
      <point x="592" y="386"/>
      <point x="497" y="302"/>
    </contour>
  </outline>
</glyph>
<glyph name="colon" format="2">
  <advance width="720"/>
  <unicode hex="003A"/>
  <outline>
    <contour>
      <point x="361" y="465" type="curve" smooth="yes"/>
      <point x="392" y="465"/>
      <point x="394" y="481"/>
      <point x="394" y="500" type="curve" smooth="yes"/>
      <point x="394" y="518"/>
      <point x="392" y="535"/>
      <point x="361" y="535" type="curve" smooth="yes"/>
      <point x="331" y="535"/>
      <point x="325" y="518"/>
      <point x="325" y="500" type="curve" smooth="yes"/>
      <point x="325" y="481"/>
      <point x="331" y="465"/>
    </contour>
    <contour>
      <point x="361" y="-12" type="curve" smooth="yes"/>
      <point x="392" y="-12"/>
      <point x="394" y="4"/>
      <point x="394" y="23" type="curve" smooth="yes"/>
      <point x="394" y="41"/>
      <point x="392" y="58"/>
      <point x="361" y="58" type="curve" smooth="yes"/>
      <point x="331" y="58"/>
      <point x="325" y="41"/>
      <point x="325" y="23" type="curve" smooth="yes"/>
      <point x="325" y="4"/>
      <point x="331" y="-12"/>
    </contour>
  </outline>
</glyph>
<glyph name="semicolon" format="2">
  <advance width="720"/>
  <unicode hex="003B"/>
  <outline>
    <contour>
      <point x="283" y="-129" type="curve"/>
      <point x="305" y="-129" type="line"/>
      <point x="341" y="-60"/>
      <point x="368" y="29"/>
      <point x="386" y="102" type="curve"/>
      <point x="383" y="114" type="line"/>
      <point x="357" y="114" type="line"/>
      <point x="342" y="38"/>
      <point x="323" y="-30"/>
    </contour>
    <contour>
      <point x="371" y="469" type="curve" smooth="yes"/>
      <point x="401" y="469"/>
      <point x="402" y="483"/>
      <point x="402" y="500" type="curve" smooth="yes"/>
      <point x="402" y="518"/>
      <point x="401" y="532"/>
      <point x="371" y="532" type="curve" smooth="yes"/>
      <point x="346" y="532"/>
      <point x="343" y="517"/>
      <point x="343" y="500" type="curve" smooth="yes"/>
      <point x="343" y="483"/>
      <point x="346" y="469"/>
    </contour>
  </outline>
</glyph>
<glyph name="equal" format="2">
  <advance width="720"/>
  <unicode hex="003D"/>
  <outline>
    <contour>
      <point x="65" y="443" type="line"/>
      <point x="656" y="443" type="line"/>
      <point x="656" y="468" type="line"/>
      <point x="65" y="468" type="line"/>
    </contour>
    <contour>
      <point x="65" y="238" type="line"/>
      <point x="656" y="238" type="line"/>
      <point x="656" y="263" type="line"/>
      <point x="65" y="263" type="line"/>
    </contour>
  </outline>
</glyph>
<glyph name="greater" format="2">
  <advance width="720"/>
  <unicode hex="003E"/>
  <outline>
    <contour>
      <point x="63" y="139" type="line"/>
      <point x="658" y="353" type="line"/>
      <point x="658" y="372" type="line"/>
      <point x="63" y="582" type="line"/>
      <point x="63" y="556" type="line"/>
      <point x="620" y="363" type="line"/>
      <point x="63" y="166" type="line"/>
    </contour>
  </outline>
</glyph>
<glyph name="question" format="2">
  <advance width="720"/>
  <unicode hex="003F"/>
  <outline>
    <contour>
      <point x="283" y="174" type="line"/>
      <point x="308" y="174" type="line"/>
      <point x="308" y="187" type="line" smooth="yes"/>
      <point x="308" y="275"/>
      <point x="335" y="311"/>
      <point x="400" y="352" type="curve" smooth="yes"/>
      <point x="499" y="409"/>
      <point x="570" y="456"/>
      <point x="570" y="556" type="curve" smooth="yes"/>
      <point x="570" y="669"/>
      <point x="476" y="724"/>
      <point x="337" y="724" type="curve" smooth="yes"/>
      <point x="271" y="724"/>
      <point x="225" y="714"/>
      <point x="152" y="691" type="curve"/>
      <point x="162" y="666" type="line"/>
      <point x="222" y="689"/>
      <point x="276" y="699"/>
      <point x="336" y="699" type="curve" smooth="yes"/>
      <point x="456" y="699"/>
      <point x="542" y="655"/>
      <point x="542" y="556" type="curve" smooth="yes"/>
      <point x="542" y="466"/>
      <point x="481" y="424"/>
      <point x="389" y="371" type="curve" smooth="yes"/>
      <point x="303" y="321"/>
      <point x="283" y="284"/>
      <point x="283" y="187" type="curve" smooth="yes"/>
    </contour>
    <contour>
      <point x="297" y="-12" type="curve" smooth="yes"/>
      <point x="330" y="-12"/>
      <point x="332" y="3"/>
      <point x="332" y="23" type="curve" smooth="yes"/>
      <point x="332" y="42"/>
      <point x="330" y="58"/>
      <point x="297" y="58" type="curve" smooth="yes"/>
      <point x="269" y="58"/>
      <point x="264" y="41"/>
      <point x="264" y="23" type="curve" smooth="yes"/>
      <point x="264" y="4"/>
      <point x="269" y="-12"/>
    </contour>
  </outline>
</glyph>
<glyph name="at" format="2">
  <advance width="720"/>
  <unicode hex="0040"/>
  <outline>
    <contour>
      <point x="393" y="-89" type="curve" smooth="yes"/>
      <point x="470" y="-89"/>
      <point x="550" y="-74"/>
      <point x="613" y="-49" type="curve"/>
      <point x="613" y="-21" type="line"/>
      <point x="541" y="-49"/>
      <point x="463" y="-64"/>
      <point x="390" y="-64" type="curve" smooth="yes"/>
      <point x="162" y="-64"/>
      <point x="23" y="72"/>
      <point x="23" y="292" type="curve" smooth="yes"/>
      <point x="23" y="545"/>
      <point x="176" y="688"/>
      <point x="388" y="688" type="curve" smooth="yes"/>
      <point x="591" y="688"/>
      <point x="697" y="559"/>
      <point x="697" y="353" type="curve" smooth="yes"/>
      <point x="697" y="232"/>
      <point x="661" y="139"/>
      <point x="579" y="139" type="curve" smooth="yes"/>
      <point x="518" y="139"/>
      <point x="498" y="180"/>
      <point x="498" y="257" type="curve" smooth="yes"/>
      <point x="498" y="285"/>
      <point x="502" y="324"/>
      <point x="504" y="348" type="curve" smooth="yes"/>
      <point x="512" y="493" type="line"/>
      <point x="471" y="506"/>
      <point x="431" y="513"/>
      <point x="398" y="513" type="curve" smooth="yes"/>
      <point x="266" y="513"/>
      <point x="191" y="419"/>
      <point x="191" y="287" type="curve" smooth="yes"/>
      <point x="191" y="179"/>
      <point x="242" y="114"/>
      <point x="334" y="114" type="curve" smooth="yes"/>
      <point x="395" y="114"/>
      <point x="449" y="144"/>
      <point x="474" y="197" type="curve"/>
      <point x="476" y="197" type="line"/>
      <point x="482" y="146"/>
      <point x="522" y="114"/>
      <point x="581" y="114" type="curve" smooth="yes"/>
      <point x="678" y="114"/>
      <point x="728" y="221"/>
      <point x="728" y="356" type="curve" smooth="yes"/>
      <point x="728" y="576"/>
      <point x="601" y="713"/>
      <point x="384" y="713" type="curve" smooth="yes"/>
      <point x="160" y="713"/>
      <point x="-7" y="562"/>
      <point x="-7" y="294" type="curve" smooth="yes"/>
      <point x="-7" y="59"/>
      <point x="141" y="-89"/>
    </contour>
    <contour>
      <point x="336" y="139" type="curve" smooth="yes"/>
      <point x="257" y="139"/>
      <point x="221" y="195"/>
      <point x="221" y="288" type="curve" smooth="yes"/>
      <point x="221" y="412"/>
      <point x="288" y="488"/>
      <point x="398" y="488" type="curve" smooth="yes"/>
      <point x="425" y="488"/>
      <point x="455" y="483"/>
      <point x="485" y="473" type="curve"/>
      <point x="473" y="323" type="line" smooth="yes"/>
      <point x="463" y="195"/>
      <point x="414" y="139"/>
    </contour>
  </outline>
</glyph>
<glyph name="A" format="2">
  <advance width="720"/>
  <unicode hex="0041"/>
  <anchor x="361" y="0" name="bottom"/>
  <anchor x="668" y="10" name="ogonek"/>
  <anchor x="361" y="714" name="top"/>
  <anchor x="718" y="714" name="topright"/>
  <outline>
    <contour>
      <point x="4" y="0" type="line"/>
      <point x="33" y="0" type="line"/>
      <point x="320" y="595" type="line" smooth="yes"/>
      <point x="334" y="623"/>
      <point x="348" y="653"/>
      <point x="361" y="683" type="curve"/>
      <point x="376" y="652"/>
      <point x="391" y="621"/>
      <point x="404" y="595" type="curve" smooth="yes"/>
      <point x="689" y="0" type="line"/>
      <point x="718" y="0" type="line"/>
      <point x="375" y="716" type="line"/>
      <point x="349" y="716" type="line"/>
    </contour>
    <contour>
      <point x="152" y="272" type="line"/>
      <point x="574" y="272" type="line"/>
      <point x="564" y="297" type="line"/>
      <point x="162" y="297" type="line"/>
    </contour>
  </outline>
</glyph>
<glyph name="B" format="2">
  <advance width="720"/>
  <unicode hex="0042"/>
  <anchor x="361" y="0" name="bottom"/>
  <anchor x="361" y="714" name="top"/>
  <anchor x="718" y="714" name="topright"/>
  <outline>
    <contour>
      <point x="127" y="0" type="line"/>
      <point x="340" y="0" type="line" smooth="yes"/>
      <point x="529" y="0"/>
      <point x="668" y="59"/>
      <point x="668" y="202" type="curve" smooth="yes"/>
      <point x="668" y="293"/>
      <point x="618" y="357"/>
      <point x="462" y="375" type="curve"/>
      <point x="462" y="377" type="line"/>
      <point x="582" y="393"/>
      <point x="645" y="461"/>
      <point x="645" y="543" type="curve" smooth="yes"/>
      <point x="645" y="657"/>
      <point x="561" y="714"/>
      <point x="335" y="714" type="curve" smooth="yes"/>
      <point x="127" y="714" type="line"/>
    </contour>
    <contour>
      <point x="154" y="25" type="line"/>
      <point x="154" y="363" type="line"/>
      <point x="338" y="363" type="line" smooth="yes"/>
      <point x="522" y="363"/>
      <point x="640" y="325"/>
      <point x="640" y="202" type="curve" smooth="yes"/>
      <point x="640" y="80"/>
      <point x="524" y="25"/>
      <point x="339" y="25" type="curve" smooth="yes"/>
    </contour>
    <contour>
      <point x="154" y="388" type="line"/>
      <point x="154" y="689" type="line"/>
      <point x="326" y="689" type="line" smooth="yes"/>
      <point x="531" y="689"/>
      <point x="618" y="646"/>
      <point x="618" y="543" type="curve" smooth="yes"/>
      <point x="618" y="441"/>
      <point x="526" y="388"/>
      <point x="342" y="388" type="curve" smooth="yes"/>
    </contour>
  </outline>
</glyph>
<glyph name="C" format="2">
  <advance width="720"/>
  <unicode hex="0043"/>
  <anchor x="424" y="0" name="bottom"/>
  <anchor x="440" y="714" name="top"/>
  <anchor x="718" y="714" name="topright"/>
  <outline>
    <contour>
      <point x="446" y="-10" type="curve" smooth="yes"/>
      <point x="539" y="-10"/>
      <point x="616" y="3"/>
      <point x="669" y="20" type="curve"/>
      <point x="669" y="47" type="line"/>
      <point x="611" y="30"/>
      <point x="532" y="15"/>
      <point x="451" y="15" type="curve" smooth="yes"/>
      <point x="215" y="15"/>
      <point x="95" y="153"/>
      <point x="95" y="352" type="curve" smooth="yes"/>
      <point x="95" y="558"/>
      <point x="228" y="699"/>
      <point x="470" y="699" type="curve" smooth="yes"/>
      <point x="524" y="699"/>
      <point x="597" y="692"/>
      <point x="672" y="665" type="curve"/>
      <point x="682" y="688" type="line"/>
      <point x="613" y="713"/>
      <point x="538" y="724"/>
      <point x="469" y="724" type="curve" smooth="yes"/>
      <point x="211" y="724"/>
      <point x="68" y="572"/>
      <point x="68" y="352" type="curve" smooth="yes"/>
      <point x="68" y="138"/>
      <point x="196" y="-10"/>
    </contour>
  </outline>
</glyph>
<glyph name="D" format="2">
  <advance width="720"/>
  <unicode hex="0044"/>
  <anchor x="314" y="0" name="bottom"/>
  <anchor x="342" y="357" name="center"/>
  <anchor x="363" y="714" name="top"/>
  <anchor x="744" y="714" name="topright"/>
  <outline>
    <contour>
      <point x="99" y="0" type="line"/>
      <point x="270" y="0" type="line" smooth="yes"/>
      <point x="539" y="0"/>
      <point x="672" y="125"/>
      <point x="672" y="363" type="curve" smooth="yes"/>
      <point x="672" y="593"/>
      <point x="548" y="714"/>
      <point x="278" y="714" type="curve" smooth="yes"/>
      <point x="99" y="714" type="line"/>
    </contour>
    <contour>
      <point x="125" y="25" type="line"/>
      <point x="125" y="689" type="line"/>
      <point x="266" y="689" type="line" smooth="yes"/>
      <point x="537" y="689"/>
      <point x="644" y="573"/>
      <point x="644" y="361" type="curve" smooth="yes"/>
      <point x="644" y="137"/>
      <point x="520" y="25"/>
      <point x="257" y="25" type="curve" smooth="yes"/>
    </contour>
  </outline>
</glyph>
<glyph name="E" format="2">
  <advance width="720"/>
  <unicode hex="0045"/>
  <anchor x="373" y="0" name="bottom"/>
  <anchor x="555" y="10" name="ogonek"/>
  <anchor x="371" y="714" name="top"/>
  <anchor x="4" y="714" name="topleft"/>
  <anchor x="718" y="714" name="topright"/>
  <outline>
    <contour>
      <point x="127" y="0" type="line"/>
      <point x="623" y="0" type="line"/>
      <point x="623" y="25" type="line"/>
      <point x="153" y="25" type="line"/>
      <point x="153" y="364" type="line"/>
      <point x="597" y="364" type="line"/>
      <point x="597" y="389" type="line"/>
      <point x="153" y="389" type="line"/>
      <point x="153" y="689" type="line"/>
      <point x="623" y="689" type="line"/>
      <point x="623" y="714" type="line"/>
      <point x="127" y="714" type="line"/>
    </contour>
  </outline>
</glyph>
<glyph name="F" format="2">
  <advance width="720"/>
  <unicode hex="0046"/>
  <anchor x="376" y="0" name="bottom"/>
  <anchor x="385" y="714" name="top"/>
  <anchor x="718" y="714" name="topright"/>
  <outline>
    <contour>
      <point x="127" y="0" type="line"/>
      <point x="153" y="0" type="line"/>
      <point x="153" y="329" type="line"/>
      <point x="598" y="329" type="line"/>
      <point x="598" y="354" type="line"/>
      <point x="153" y="354" type="line"/>
      <point x="153" y="689" type="line"/>
      <point x="623" y="689" type="line"/>
      <point x="623" y="714" type="line"/>
      <point x="127" y="714" type="line"/>
    </contour>
  </outline>
</glyph>
<glyph name="G" format="2">
  <advance width="720"/>
  <unicode hex="0047"/>
  <anchor x="400" y="0" name="bottom"/>
  <anchor x="393" y="714" name="top"/>
  <anchor x="718" y="714" name="topright"/>
  <outline>
    <contour>
      <point x="396" y="-10" type="curve" smooth="yes"/>
      <point x="471" y="-10"/>
      <point x="556" y="4"/>
      <point x="624" y="33" type="curve"/>
      <point x="624" y="350" type="line"/>
      <point x="385" y="350" type="line"/>
      <point x="385" y="325" type="line"/>
      <point x="597" y="325" type="line"/>
      <point x="597" y="49" type="line"/>
      <point x="545" y="29"/>
      <point x="474" y="15"/>
      <point x="398" y="15" type="curve" smooth="yes"/>
      <point x="198" y="15"/>
      <point x="77" y="128"/>
      <point x="77" y="348" type="curve" smooth="yes"/>
      <point x="77" y="563"/>
      <point x="192" y="700"/>
      <point x="408" y="700" type="curve" smooth="yes"/>
      <point x="455" y="700"/>
      <point x="527" y="693"/>
      <point x="597" y="662" type="curve"/>
      <point x="610" y="684" type="line"/>
      <point x="546" y="715"/>
      <point x="469" y="725"/>
      <point x="408" y="725" type="curve" smooth="yes"/>
      <point x="176" y="725"/>
      <point x="51" y="575"/>
      <point x="51" y="348" type="curve" smooth="yes"/>
      <point x="51" y="128"/>
      <point x="165" y="-10"/>
    </contour>
  </outline>
</glyph>
<glyph name="H" format="2">
  <advance width="720"/>
  <unicode hex="0048"/>
  <anchor x="361" y="0" name="bottom"/>
  <anchor x="361" y="376" name="center"/>
  <anchor x="361" y="714" name="top"/>
  <anchor x="4" y="714" name="topleft"/>
  <anchor x="744" y="714" name="topright"/>
  <outline>
    <contour>
      <point x="99" y="0" type="line"/>
      <point x="125" y="0" type="line"/>
      <point x="125" y="363" type="line"/>
      <point x="598" y="363" type="line"/>
      <point x="598" y="0" type="line"/>
      <point x="624" y="0" type="line"/>
      <point x="624" y="714" type="line"/>
      <point x="598" y="714" type="line"/>
      <point x="598" y="388" type="line"/>
      <point x="125" y="388" type="line"/>
      <point x="125" y="714" type="line"/>
      <point x="99" y="714" type="line"/>
    </contour>
  </outline>
</glyph>
<glyph name="I" format="2">
  <advance width="720"/>
  <unicode hex="0049"/>
  <anchor x="361" y="0" name="bottom"/>
  <anchor x="406" y="10" name="ogonek"/>
  <anchor x="361" y="714" name="top"/>
  <anchor x="4" y="714" name="topleft"/>
  <anchor x="718" y="714" name="topright"/>
  <outline>
    <contour>
      <point x="185" y="0" type="line"/>
      <point x="537" y="0" type="line"/>
      <point x="537" y="20" type="line"/>
      <point x="374" y="23" type="line"/>
      <point x="374" y="690" type="line"/>
      <point x="537" y="694" type="line"/>
      <point x="537" y="714" type="line"/>
      <point x="185" y="714" type="line"/>
      <point x="185" y="694" type="line"/>
      <point x="348" y="690" type="line"/>
      <point x="348" y="23" type="line"/>
      <point x="185" y="20" type="line"/>
    </contour>
  </outline>
</glyph>
<glyph name="J" format="2">
  <advance width="720"/>
  <unicode hex="004A"/>
  <anchor x="360" y="0" name="bottom"/>
  <anchor x="499" y="714" name="top"/>
  <anchor x="718" y="714" name="topright"/>
  <outline>
    <contour>
      <point x="300" y="-15" type="curve" smooth="yes"/>
      <point x="460" y="-15"/>
      <point x="510" y="63"/>
      <point x="510" y="196" type="curve" smooth="yes"/>
      <point x="510" y="714" type="line"/>
      <point x="484" y="714" type="line"/>
      <point x="484" y="204" type="line" smooth="yes"/>
      <point x="484" y="75"/>
      <point x="440" y="9"/>
      <point x="302" y="9" type="curve" smooth="yes"/>
      <point x="223" y="9"/>
      <point x="173" y="30"/>
      <point x="123" y="53" type="curve"/>
      <point x="123" y="25" type="line"/>
      <point x="177" y="1"/>
      <point x="226" y="-15"/>
    </contour>
  </outline>
</glyph>
<glyph name="K" format="2">
  <advance width="720"/>
  <unicode hex="004B"/>
  <anchor x="384" y="0" name="bottom"/>
  <anchor x="361" y="714" name="top"/>
  <anchor x="718" y="714" name="topright"/>
  <outline>
    <contour>
      <point x="99" y="0" type="line"/>
      <point x="125" y="0" type="line"/>
      <point x="125" y="290" type="line"/>
      <point x="267" y="397" type="line"/>
      <point x="633" y="0" type="line"/>
      <point x="664" y="0" type="line"/>
      <point x="284" y="415" type="line"/>
      <point x="658" y="714" type="line"/>
      <point x="618" y="714" type="line"/>
      <point x="192" y="381" type="line" smooth="yes"/>
      <point x="165" y="359"/>
      <point x="149" y="344"/>
      <point x="125" y="322" type="curve"/>
      <point x="125" y="714" type="line"/>
      <point x="99" y="714" type="line"/>
    </contour>
  </outline>
</glyph>
<glyph name="L" format="2">
  <advance width="720"/>
  <unicode hex="004C"/>
  <anchor x="407" y="0" name="bottom"/>
  <anchor x="361" y="357" name="center"/>
  <anchor x="178" y="714" name="top"/>
  <anchor x="518" y="714" name="topright"/>
  <outline>
    <contour>
      <point x="165" y="0" type="line"/>
      <point x="623" y="0" type="line"/>
      <point x="623" y="25" type="line"/>
      <point x="191" y="25" type="line"/>
      <point x="191" y="714" type="line"/>
      <point x="165" y="714" type="line"/>
    </contour>
  </outline>
</glyph>
<glyph name="M" format="2">
  <advance width="720"/>
  <unicode hex="004D"/>
  <anchor x="361" y="0" name="bottom"/>
  <anchor x="367" y="714" name="top"/>
  <anchor x="744" y="714" name="topright"/>
  <outline>
    <contour>
      <point x="53" y="0" type="line"/>
      <point x="80" y="0" type="line"/>
      <point x="80" y="585" type="line" smooth="yes"/>
      <point x="80" y="614"/>
      <point x="81" y="628"/>
      <point x="79" y="674" type="curve"/>
      <point x="82" y="674" type="line"/>
      <point x="345" y="199" type="line"/>
      <point x="376" y="199" type="line"/>
      <point x="638" y="673" type="line"/>
      <point x="640" y="673" type="line"/>
      <point x="642" y="642"/>
      <point x="642" y="612"/>
      <point x="642" y="581" type="curve" smooth="yes"/>
      <point x="642" y="0" type="line"/>
      <point x="669" y="0" type="line"/>
      <point x="669" y="714" type="line"/>
      <point x="630" y="714" type="line"/>
      <point x="362" y="231" type="line"/>
      <point x="358" y="231" type="line"/>
      <point x="89" y="714" type="line"/>
      <point x="53" y="714" type="line"/>
    </contour>
  </outline>
</glyph>
<glyph name="N" format="2">
  <advance width="720"/>
  <unicode hex="004E"/>
  <anchor x="361" y="0" name="bottom"/>
  <anchor x="368" y="714" name="top"/>
  <anchor x="744" y="714" name="topright"/>
  <outline>
    <contour>
      <point x="99" y="0" type="line"/>
      <point x="126" y="0" type="line"/>
      <point x="126" y="535" type="line" smooth="yes"/>
      <point x="126" y="590"/>
      <point x="127" y="626"/>
      <point x="126" y="665" type="curve"/>
      <point x="128" y="665" type="line"/>
      <point x="598" y="0" type="line"/>
      <point x="624" y="0" type="line"/>
      <point x="624" y="714" type="line"/>
      <point x="597" y="714" type="line"/>
      <point x="597" y="188" type="line" smooth="yes"/>
      <point x="597" y="153"/>
      <point x="597" y="100"/>
      <point x="597" y="53" type="curve"/>
      <point x="595" y="53" type="line"/>
      <point x="124" y="714" type="line"/>
      <point x="99" y="714" type="line"/>
    </contour>
  </outline>
</glyph>
<glyph name="O" format="2">
  <advance width="720"/>
  <unicode hex="004F"/>
  <anchor x="361" y="0" name="bottom"/>
  <anchor x="361" y="357" name="center"/>
  <anchor x="364" y="10" name="ogonek"/>
  <anchor x="361" y="714" name="top"/>
  <anchor x="4" y="714" name="topleft"/>
  <anchor x="744" y="714" name="topright"/>
  <outline>
    <contour>
      <point x="363" y="-10" type="curve" smooth="yes"/>
      <point x="587" y="-10"/>
      <point x="672" y="157"/>
      <point x="672" y="359" type="curve" smooth="yes"/>
      <point x="672" y="577"/>
      <point x="572" y="724"/>
      <point x="365" y="724" type="curve" smooth="yes"/>
      <point x="166" y="724"/>
      <point x="51" y="591"/>
      <point x="51" y="359" type="curve" smooth="yes"/>
      <point x="51" y="162"/>
      <point x="137" y="-10"/>
    </contour>
    <contour>
      <point x="363" y="15" type="curve" smooth="yes"/>
      <point x="175" y="15"/>
      <point x="77" y="148"/>
      <point x="77" y="358" type="curve" smooth="yes"/>
      <point x="77" y="567"/>
      <point x="176" y="699"/>
      <point x="363" y="699" type="curve" smooth="yes"/>
      <point x="545" y="699"/>
      <point x="645" y="576"/>
      <point x="645" y="358" type="curve" smooth="yes"/>
      <point x="645" y="143"/>
      <point x="550" y="15"/>
    </contour>
  </outline>
</glyph>
<glyph name="P" format="2">
  <advance width="720"/>
  <unicode hex="0050"/>
  <anchor x="361" y="0" name="bottom"/>
  <anchor x="361" y="714" name="top"/>
  <anchor x="743" y="714" name="topright"/>
  <outline>
    <contour>
      <point x="127" y="0" type="line"/>
      <point x="153" y="0" type="line"/>
      <point x="153" y="305" type="line"/>
      <point x="339" y="305" type="line" smooth="yes"/>
      <point x="545" y="305"/>
      <point x="668" y="366"/>
      <point x="668" y="516" type="curve" smooth="yes"/>
      <point x="668" y="659"/>
      <point x="558" y="714"/>
      <point x="352" y="714" type="curve" smooth="yes"/>
      <point x="127" y="714" type="line"/>
    </contour>
    <contour>
      <point x="153" y="330" type="line"/>
      <point x="153" y="689" type="line"/>
      <point x="346" y="689" type="line" smooth="yes"/>
      <point x="548" y="689"/>
      <point x="640" y="641"/>
      <point x="640" y="516" type="curve" smooth="yes"/>
      <point x="640" y="375"/>
      <point x="518" y="330"/>
      <point x="335" y="330" type="curve" smooth="yes"/>
    </contour>
  </outline>
</glyph>
<glyph name="Q" format="2">
  <advance width="720"/>
  <unicode hex="0051"/>
  <anchor x="361" y="-210" name="bottom"/>
  <anchor x="361" y="714" name="top"/>
  <anchor x="744" y="714" name="topright"/>
  <anchor x="-18" y="714" name="topleft"/>
  <anchor x="342" y="10" name="ogonek"/>
  <anchor x="339" y="357" name="center"/>
  <outline>
    <contour>
      <point x="580" y="-170" type="line"/>
      <point x="611" y="-170" type="line"/>
      <point x="475" y="16" type="line"/>
      <point x="445" y="12" type="line"/>
    </contour>
    <component base="O" xOffset="-22"/>
  </outline>
</glyph>
<glyph name="R" format="2">
  <advance width="720"/>
  <unicode hex="0052"/>
  <anchor x="411" y="0" name="bottom"/>
  <anchor x="361" y="714" name="top"/>
  <anchor x="718" y="714" name="topright"/>
  <outline>
    <contour>
      <point x="127" y="0" type="line"/>
      <point x="153" y="0" type="line"/>
      <point x="153" y="320" type="line"/>
      <point x="418" y="320" type="line"/>
      <point x="667" y="0" type="line"/>
      <point x="698" y="0" type="line"/>
      <point x="444" y="327" type="line"/>
      <point x="584" y="351"/>
      <point x="656" y="409"/>
      <point x="656" y="521" type="curve" smooth="yes"/>
      <point x="656" y="670"/>
      <point x="531" y="714"/>
      <point x="329" y="714" type="curve" smooth="yes"/>
      <point x="127" y="714" type="line"/>
    </contour>
    <contour>
      <point x="153" y="346" type="line"/>
      <point x="153" y="689" type="line"/>
      <point x="322" y="689" type="line" smooth="yes"/>
      <point x="516" y="689"/>
      <point x="629" y="648"/>
      <point x="629" y="523" type="curve" smooth="yes"/>
      <point x="629" y="399"/>
      <point x="512" y="346"/>
      <point x="369" y="346" type="curve" smooth="yes"/>
    </contour>
  </outline>
</glyph>
<glyph name="S" format="2">
  <advance width="720"/>
  <unicode hex="0053"/>
  <anchor x="361" y="0" name="bottom"/>
  <anchor x="385" y="714" name="top"/>
  <anchor x="718" y="714" name="topright"/>
  <outline>
    <contour>
      <point x="332" y="-10" type="curve" smooth="yes"/>
      <point x="514" y="-10"/>
      <point x="643" y="53"/>
      <point x="643" y="182" type="curve" smooth="yes"/>
      <point x="643" y="301"/>
      <point x="531" y="332"/>
      <point x="370" y="375" type="curve" smooth="yes"/>
      <point x="237" y="410"/>
      <point x="131" y="439"/>
      <point x="131" y="543" type="curve" smooth="yes"/>
      <point x="131" y="654"/>
      <point x="255" y="699"/>
      <point x="394" y="699" type="curve" smooth="yes"/>
      <point x="450" y="699"/>
      <point x="523" y="692"/>
      <point x="603" y="665" type="curve"/>
      <point x="616" y="689" type="line"/>
      <point x="541" y="713"/>
      <point x="466" y="724"/>
      <point x="395" y="724" type="curve" smooth="yes"/>
      <point x="231" y="724"/>
      <point x="104" y="667"/>
      <point x="104" y="541" type="curve" smooth="yes"/>
      <point x="104" y="426"/>
      <point x="205" y="393"/>
      <point x="358" y="352" type="curve" smooth="yes"/>
      <point x="517" y="310"/>
      <point x="616" y="283"/>
      <point x="616" y="181" type="curve" smooth="yes"/>
      <point x="616" y="67"/>
      <point x="492" y="15"/>
      <point x="332" y="15" type="curve" smooth="yes"/>
      <point x="253" y="15"/>
      <point x="164" y="29"/>
      <point x="96" y="47" type="curve"/>
      <point x="96" y="19" type="line"/>
      <point x="153" y="5"/>
      <point x="238" y="-10"/>
    </contour>
  </outline>
</glyph>
<glyph name="U" format="2">
  <advance width="720"/>
  <unicode hex="0055"/>
  <anchor x="361" y="0" name="bottom"/>
  <anchor x="668" y="10" name="ogonek"/>
  <anchor x="361" y="714" name="top"/>
  <anchor x="718" y="714" name="topright"/>
  <outline>
    <contour>
      <point x="356" y="-10" type="curve" smooth="yes"/>
      <point x="520" y="-10"/>
      <point x="624" y="70"/>
      <point x="624" y="246" type="curve" smooth="yes"/>
      <point x="624" y="714" type="line"/>
      <point x="598" y="714" type="line"/>
      <point x="598" y="252" type="line" smooth="yes"/>
      <point x="598" y="88"/>
      <point x="509" y="15"/>
      <point x="358" y="15" type="curve" smooth="yes"/>
      <point x="199" y="15"/>
      <point x="125" y="94"/>
      <point x="125" y="253" type="curve" smooth="yes"/>
      <point x="125" y="714" type="line"/>
      <point x="99" y="714" type="line"/>
      <point x="99" y="249" type="line" smooth="yes"/>
      <point x="99" y="79"/>
      <point x="182" y="-10"/>
    </contour>
  </outline>
</glyph>
<glyph name="V" format="2">
  <advance width="720"/>
  <unicode hex="0056"/>
  <anchor x="361" y="0" name="bottom"/>
  <anchor x="361" y="714" name="top"/>
  <anchor x="718" y="714" name="topright"/>
  <outline>
    <contour>
      <point x="347" y="0" type="line"/>
      <point x="375" y="0" type="line"/>
      <point x="693" y="714" type="line"/>
      <point x="663" y="714" type="line"/>
      <point x="406" y="142" type="line" smooth="yes"/>
      <point x="386" y="100"/>
      <point x="374" y="65"/>
      <point x="362" y="34" type="curve"/>
      <point x="361" y="34" type="line"/>
      <point x="348" y="65"/>
      <point x="335" y="100"/>
      <point x="316" y="142" type="curve" smooth="yes"/>
      <point x="57" y="714" type="line"/>
      <point x="29" y="714" type="line"/>
    </contour>
  </outline>
</glyph>
<glyph name="W" format="2">
  <advance width="720"/>
  <unicode hex="0057"/>
  <anchor x="361" y="0" name="bottom"/>
  <anchor x="361" y="714" name="top"/>
  <anchor x="718" y="714" name="topright"/>
  <outline>
    <contour>
      <point x="181" y="0" type="line"/>
      <point x="221" y="0" type="line"/>
      <point x="331" y="385" type="line" smooth="yes"/>
      <point x="344" y="428"/>
      <point x="349" y="446"/>
      <point x="360" y="490" type="curve"/>
      <point x="362" y="490" type="line"/>
      <point x="373" y="446"/>
      <point x="376" y="428"/>
      <point x="388" y="385" type="curve" smooth="yes"/>
      <point x="498" y="0" type="line"/>
      <point x="537" y="0" type="line"/>
      <point x="693" y="714" type="line"/>
      <point x="665" y="714" type="line"/>
      <point x="625" y="527"/>
      <point x="583" y="341"/>
      <point x="544" y="155" type="curve" smooth="yes"/>
      <point x="535" y="110"/>
      <point x="530" y="74"/>
      <point x="520" y="28" type="curve"/>
      <point x="517" y="28" type="line"/>
      <point x="506" y="75"/>
      <point x="501" y="105"/>
      <point x="486" y="155" type="curve" smooth="yes"/>
      <point x="375" y="528" type="line"/>
      <point x="345" y="528" type="line"/>
      <point x="232" y="152" type="line" smooth="yes"/>
      <point x="213" y="91"/>
      <point x="211" y="70"/>
      <point x="203" y="29" type="curve"/>
      <point x="200" y="29" type="line"/>
      <point x="194" y="69"/>
      <point x="189" y="94"/>
      <point x="176" y="152" type="curve" smooth="yes"/>
      <point x="138" y="339"/>
      <point x="97" y="527"/>
      <point x="57" y="714" type="curve"/>
      <point x="29" y="714" type="line"/>
    </contour>
  </outline>
</glyph>
<glyph name="X" format="2">
  <advance width="720"/>
  <unicode hex="0058"/>
  <anchor x="364" y="0" name="bottom"/>
  <anchor x="364" y="714" name="top"/>
  <anchor x="718" y="714" name="topright"/>
  <outline>
    <contour>
      <point x="42" y="0" type="line"/>
      <point x="74" y="0" type="line"/>
      <point x="365" y="351" type="line"/>
      <point x="648" y="0" type="line"/>
      <point x="680" y="0" type="line"/>
      <point x="380" y="373" type="line"/>
      <point x="659" y="714" type="line"/>
      <point x="627" y="714" type="line"/>
      <point x="364" y="394" type="line"/>
      <point x="107" y="714" type="line"/>
      <point x="76" y="714" type="line"/>
      <point x="349" y="372" type="line"/>
    </contour>
  </outline>
</glyph>
<glyph name="Y" format="2">
  <advance width="720"/>
  <unicode hex="0059"/>
  <anchor x="361" y="0" name="bottom"/>
  <anchor x="361" y="714" name="top"/>
  <anchor x="4" y="714" name="topleft"/>
  <anchor x="718" y="714" name="topright"/>
  <outline>
    <contour>
      <point x="350" y="0" type="line"/>
      <point x="376" y="0" type="line"/>
      <point x="376" y="273" type="line"/>
      <point x="680" y="714" type="line"/>
      <point x="650" y="714" type="line"/>
      <point x="363" y="297" type="line"/>
      <point x="70" y="714" type="line"/>
      <point x="42" y="714" type="line"/>
      <point x="350" y="272" type="line"/>
    </contour>
  </outline>
</glyph>
<glyph name="Z" format="2">
  <advance width="720"/>
  <unicode hex="005A"/>
  <anchor x="390" y="0" name="bottom"/>
  <anchor x="383" y="714" name="top"/>
  <anchor x="718" y="714" name="topright"/>
  <outline>
    <contour>
      <point x="127" y="0" type="line"/>
      <point x="613" y="0" type="line"/>
      <point x="613" y="25" type="line"/>
      <point x="161" y="25" type="line"/>
      <point x="596" y="695" type="line"/>
      <point x="596" y="714" type="line"/>
      <point x="163" y="714" type="line"/>
      <point x="163" y="689" type="line"/>
      <point x="561" y="689" type="line"/>
      <point x="127" y="19" type="line"/>
    </contour>
  </outline>
</glyph>
<glyph name="bracketleft" format="2">
  <advance width="720"/>
  <unicode hex="005B"/>
  <outline>
    <contour>
      <point x="284" y="-158" type="line"/>
      <point x="543" y="-158" type="line"/>
      <point x="543" y="-133" type="line"/>
      <point x="309" y="-133" type="line"/>
      <point x="309" y="689" type="line"/>
      <point x="543" y="689" type="line"/>
      <point x="543" y="714" type="line"/>
      <point x="284" y="714" type="line"/>
    </contour>
  </outline>
</glyph>
<glyph name="asciicircum" format="2">
  <advance width="720"/>
  <unicode hex="005E"/>
  <outline>
    <contour>
      <point x="54" y="290" type="line"/>
      <point x="87" y="290" type="line"/>
      <point x="372" y="685" type="line"/>
      <point x="635" y="290" type="line"/>
      <point x="667" y="290" type="line"/>
      <point x="388" y="718" type="line"/>
      <point x="361" y="718" type="line"/>
    </contour>
  </outline>
</glyph>
<glyph name="underscore" format="2">
  <advance width="720"/>
  <unicode hex="005F"/>
  <outline>
    <contour>
      <point x="-22" y="-111" type="line"/>
      <point x="744" y="-111" type="line"/>
      <point x="744" y="-86" type="line"/>
      <point x="-22" y="-86" type="line"/>
    </contour>
  </outline>
</glyph>
<glyph name="grave" format="2">
  <advance width="720"/>
  <unicode hex="0060"/>
  <outline>
    <contour>
      <point x="438" y="606" type="curve"/>
      <point x="461" y="606" type="line"/>
      <point x="461" y="613" type="line"/>
      <point x="401" y="654"/>
      <point x="315" y="721"/>
      <point x="275" y="766" type="curve"/>
      <point x="245" y="766" type="line"/>
      <point x="245" y="759" type="line"/>
      <point x="292" y="713"/>
      <point x="370" y="649"/>
    </contour>
  </outline>
</glyph>
<glyph name="a" format="2">
  <advance width="720"/>
  <unicode hex="0061"/>
  <anchor x="368" y="0" name="bottom"/>
  <anchor x="667" y="10" name="ogonek"/>
  <anchor x="367" y="528" name="top"/>
  <anchor x="718" y="528" name="topright"/>
  <outline>
    <contour>
      <point x="305" y="-10" type="curve" smooth="yes"/>
      <point x="449" y="-10"/>
      <point x="535" y="40"/>
      <point x="569" y="102" type="curve"/>
      <point x="572" y="102" type="line"/>
      <point x="576" y="0" type="line"/>
      <point x="598" y="0" type="line"/>
      <point x="598" y="351" type="line" smooth="yes"/>
      <point x="598" y="481"/>
      <point x="523" y="537"/>
      <point x="368" y="537" type="curve" smooth="yes"/>
      <point x="298" y="537"/>
      <point x="228" y="523"/>
      <point x="160" y="498" type="curve"/>
      <point x="170" y="474" type="line"/>
      <point x="244" y="502"/>
      <point x="307" y="512"/>
      <point x="368" y="512" type="curve" smooth="yes"/>
      <point x="508" y="512"/>
      <point x="572" y="466"/>
      <point x="572" y="345" type="curve" smooth="yes"/>
      <point x="572" y="301" type="line"/>
      <point x="419" y="294" type="line" smooth="yes"/>
      <point x="224" y="286"/>
      <point x="96" y="238"/>
      <point x="96" y="128" type="curve" smooth="yes"/>
      <point x="96" y="46"/>
      <point x="166" y="-10"/>
    </contour>
    <contour>
      <point x="305" y="15" type="curve" smooth="yes"/>
      <point x="186" y="15"/>
      <point x="124" y="57"/>
      <point x="124" y="128" type="curve" smooth="yes"/>
      <point x="124" y="226"/>
      <point x="248" y="264"/>
      <point x="422" y="271" type="curve" smooth="yes"/>
      <point x="572" y="276" type="line"/>
      <point x="572" y="220" type="line" smooth="yes"/>
      <point x="572" y="99"/>
      <point x="484" y="15"/>
    </contour>
  </outline>
</glyph>
<glyph name="b" format="2">
  <advance width="720"/>
  <unicode hex="0062"/>
  <anchor x="361" y="0" name="bottom"/>
  <anchor x="361" y="760" name="top"/>
  <anchor x="718" y="760" name="topright"/>
  <outline>
    <contour>
      <point x="368" y="-10" type="curve" smooth="yes"/>
      <point x="576" y="-10"/>
      <point x="652" y="109"/>
      <point x="652" y="272" type="curve" smooth="yes"/>
      <point x="652" y="440"/>
      <point x="564" y="537"/>
      <point x="390" y="537" type="curve" smooth="yes"/>
      <point x="256" y="537"/>
      <point x="166" y="479"/>
      <point x="142" y="402" type="curve"/>
      <point x="139" y="402" type="line"/>
      <point x="140" y="439"/>
      <point x="141" y="487"/>
      <point x="141" y="519" type="curve" smooth="yes"/>
      <point x="141" y="760" type="line"/>
      <point x="115" y="760" type="line"/>
      <point x="115" y="0" type="line"/>
      <point x="137" y="0" type="line"/>
      <point x="142" y="103" type="line"/>
      <point x="144" y="103" type="line"/>
      <point x="173" y="37"/>
      <point x="244" y="-10"/>
    </contour>
    <contour>
      <point x="371" y="15" type="curve" smooth="yes"/>
      <point x="214" y="15"/>
      <point x="141" y="97"/>
      <point x="141" y="258" type="curve" smooth="yes"/>
      <point x="141" y="422"/>
      <point x="223" y="512"/>
      <point x="390" y="512" type="curve" smooth="yes"/>
      <point x="551" y="512"/>
      <point x="625" y="423"/>
      <point x="625" y="271" type="curve" smooth="yes"/>
      <point x="625" y="104"/>
      <point x="535" y="15"/>
    </contour>
  </outline>
</glyph>
<glyph name="c" format="2">
  <advance width="720"/>
  <unicode hex="0063"/>
  <anchor x="411" y="0" name="bottom"/>
  <anchor x="403" y="528" name="top"/>
  <anchor x="718" y="528" name="topright"/>
  <outline>
    <contour>
      <point x="429" y="-10" type="curve" smooth="yes"/>
      <point x="503" y="-10"/>
      <point x="571" y="1"/>
      <point x="612" y="15" type="curve"/>
      <point x="612" y="41" type="line"/>
      <point x="563" y="25"/>
      <point x="491" y="15"/>
      <point x="429" y="15" type="curve" smooth="yes"/>
      <point x="214" y="15"/>
      <point x="126" y="124"/>
      <point x="126" y="258" type="curve" smooth="yes"/>
      <point x="126" y="414"/>
      <point x="253" y="512"/>
      <point x="453" y="512" type="curve" smooth="yes"/>
      <point x="501" y="512"/>
      <point x="563" y="506"/>
      <point x="612" y="489" type="curve"/>
      <point x="617" y="514" type="line"/>
      <point x="570" y="530"/>
      <point x="515" y="537"/>
      <point x="456" y="537" type="curve" smooth="yes"/>
      <point x="231" y="537"/>
      <point x="99" y="427"/>
      <point x="99" y="257" type="curve" smooth="yes"/>
      <point x="99" y="106"/>
      <point x="196" y="-10"/>
    </contour>
  </outline>
</glyph>
<glyph name="d" format="2">
  <advance width="720"/>
  <unicode hex="0064"/>
  <anchor x="361" y="0" name="bottom"/>
  <anchor x="361" y="264" name="center"/>
  <anchor x="361" y="760" name="top"/>
  <anchor x="718" y="760" name="topright"/>
  <outline>
    <contour>
      <point x="337" y="-10" type="curve" smooth="yes"/>
      <point x="477" y="-10"/>
      <point x="548" y="44"/>
      <point x="581" y="112" type="curve"/>
      <point x="583" y="112" type="line"/>
      <point x="586" y="0" type="line"/>
      <point x="607" y="0" type="line"/>
      <point x="607" y="760" type="line"/>
      <point x="581" y="760" type="line"/>
      <point x="581" y="537" type="line" smooth="yes"/>
      <point x="581" y="498"/>
      <point x="581" y="455"/>
      <point x="583" y="412" type="curve"/>
      <point x="581" y="412" type="line"/>
      <point x="554" y="478"/>
      <point x="485" y="537"/>
      <point x="347" y="537" type="curve" smooth="yes"/>
      <point x="171" y="537"/>
      <point x="70" y="438"/>
      <point x="70" y="254" type="curve" smooth="yes"/>
      <point x="70" y="85"/>
      <point x="156" y="-10"/>
    </contour>
    <contour>
      <point x="337" y="15" type="curve" smooth="yes"/>
      <point x="178" y="15"/>
      <point x="97" y="96"/>
      <point x="97" y="254" type="curve" smooth="yes"/>
      <point x="97" y="427"/>
      <point x="187" y="512"/>
      <point x="346" y="512" type="curve" smooth="yes"/>
      <point x="505" y="512"/>
      <point x="581" y="427"/>
      <point x="581" y="273" type="curve" smooth="yes"/>
      <point x="581" y="258" type="line" smooth="yes"/>
      <point x="581" y="105"/>
      <point x="513" y="15"/>
    </contour>
  </outline>
</glyph>
<glyph name="e" format="2">
  <advance width="720"/>
  <unicode hex="0065"/>
  <anchor x="374" y="0" name="bottom"/>
  <anchor x="382" y="10" name="ogonek"/>
  <anchor x="367" y="528" name="top"/>
  <anchor x="718" y="528" name="topright"/>
  <outline>
    <contour>
      <point x="407" y="-10" type="curve" smooth="yes"/>
      <point x="483" y="-10"/>
      <point x="561" y="1"/>
      <point x="627" y="23" type="curve"/>
      <point x="627" y="51" type="line"/>
      <point x="556" y="27"/>
      <point x="490" y="15"/>
      <point x="407" y="15" type="curve" smooth="yes"/>
      <point x="191" y="15"/>
      <point x="105" y="106"/>
      <point x="105" y="267" type="curve"/>
      <point x="646" y="267" type="line"/>
      <point x="646" y="292" type="line" smooth="yes"/>
      <point x="646" y="429"/>
      <point x="572" y="537"/>
      <point x="383" y="537" type="curve" smooth="yes"/>
      <point x="171" y="537"/>
      <point x="78" y="412"/>
      <point x="78" y="256" type="curve" smooth="yes"/>
      <point x="78" y="103"/>
      <point x="167" y="-10"/>
    </contour>
    <contour>
      <point x="107" y="292" type="line"/>
      <point x="123" y="437"/>
      <point x="232" y="512"/>
      <point x="383" y="512" type="curve" smooth="yes"/>
      <point x="545" y="512"/>
      <point x="620" y="423"/>
      <point x="619" y="292" type="curve"/>
    </contour>
  </outline>
</glyph>
<glyph name="f" format="2">
  <advance width="720"/>
  <unicode hex="0066"/>
  <anchor x="361" y="0" name="bottom"/>
  <anchor x="515" y="764" name="top"/>
  <anchor x="718" y="765" name="topright"/>
  <outline>
    <contour>
      <point x="331" y="0" type="line"/>
      <point x="357" y="0" type="line"/>
      <point x="357" y="503" type="line"/>
      <point x="647" y="503" type="line"/>
      <point x="647" y="528" type="line"/>
      <point x="357" y="528" type="line"/>
      <point x="357" y="594" type="line" smooth="yes"/>
      <point x="357" y="702"/>
      <point x="416" y="740"/>
      <point x="549" y="740" type="curve" smooth="yes"/>
      <point x="596" y="740"/>
      <point x="648" y="736"/>
      <point x="683" y="728" type="curve"/>
      <point x="687" y="752" type="line"/>
      <point x="656" y="759"/>
      <point x="591" y="765"/>
      <point x="550" y="765" type="curve" smooth="yes"/>
      <point x="393" y="765"/>
      <point x="331" y="708"/>
      <point x="331" y="603" type="curve" smooth="yes"/>
      <point x="331" y="528" type="line"/>
      <point x="102" y="524" type="line"/>
      <point x="102" y="503" type="line"/>
      <point x="331" y="503" type="line"/>
    </contour>
  </outline>
</glyph>
<glyph name="g" format="2">
  <advance width="720"/>
  <unicode hex="0067"/>
  <anchor x="361" y="-245" name="bottom"/>
  <anchor x="361" y="528" name="top"/>
  <anchor x="718" y="528" name="topright"/>
  <outline>
    <contour>
      <point x="324" y="-245" type="curve" smooth="yes"/>
      <point x="532" y="-245"/>
      <point x="607" y="-164"/>
      <point x="607" y="-36" type="curve" smooth="yes"/>
      <point x="607" y="528" type="line"/>
      <point x="585" y="528" type="line"/>
      <point x="579" y="434" type="line"/>
      <point x="577" y="434" type="line"/>
      <point x="544" y="491"/>
      <point x="482" y="537"/>
      <point x="354" y="537" type="curve" smooth="yes"/>
      <point x="163" y="537"/>
      <point x="70" y="431"/>
      <point x="70" y="258" type="curve" smooth="yes"/>
      <point x="70" y="79"/>
      <point x="168" y="-10"/>
      <point x="335" y="-10" type="curve" smooth="yes"/>
      <point x="462" y="-10"/>
      <point x="551" y="39"/>
      <point x="581" y="121" type="curve"/>
      <point x="584" y="121" type="line"/>
      <point x="581" y="81"/>
      <point x="581" y="54"/>
      <point x="581" y="16" type="curve" smooth="yes"/>
      <point x="581" y="-31" type="line" smooth="yes"/>
      <point x="581" y="-148"/>
      <point x="511" y="-220"/>
      <point x="327" y="-220" type="curve" smooth="yes"/>
      <point x="235" y="-220"/>
      <point x="161" y="-202"/>
      <point x="103" y="-180" type="curve"/>
      <point x="103" y="-209" type="line"/>
      <point x="161" y="-229"/>
      <point x="230" y="-245"/>
    </contour>
    <contour>
      <point x="337" y="15" type="curve" smooth="yes"/>
      <point x="177" y="15"/>
      <point x="96" y="98"/>
      <point x="96" y="258" type="curve" smooth="yes"/>
      <point x="96" y="415"/>
      <point x="175" y="512"/>
      <point x="351" y="512" type="curve" smooth="yes"/>
      <point x="529" y="512"/>
      <point x="580" y="418"/>
      <point x="580" y="299" type="curve" smooth="yes"/>
      <point x="580" y="243" type="line" smooth="yes"/>
      <point x="580" y="135"/>
      <point x="535" y="15"/>
    </contour>
  </outline>
</glyph>
<glyph name="h" format="2">
  <advance width="720"/>
  <unicode hex="0068"/>
  <anchor x="361" y="0" name="bottom"/>
  <anchor x="361" y="264" name="center"/>
  <anchor x="125" y="760" name="top"/>
  <anchor x="718" y="760" name="topright"/>
  <outline>
    <contour>
      <point x="115" y="0" type="line"/>
      <point x="141" y="0" type="line"/>
      <point x="141" y="301" type="line" smooth="yes"/>
      <point x="141" y="446"/>
      <point x="241" y="512"/>
      <point x="387" y="512" type="curve" smooth="yes"/>
      <point x="512" y="512"/>
      <point x="588" y="463"/>
      <point x="588" y="347" type="curve" smooth="yes"/>
      <point x="588" y="0" type="line"/>
      <point x="614" y="0" type="line"/>
      <point x="614" y="352" type="line" smooth="yes"/>
      <point x="614" y="478"/>
      <point x="529" y="537"/>
      <point x="385" y="537" type="curve" smooth="yes"/>
      <point x="238" y="537"/>
      <point x="165" y="478"/>
      <point x="141" y="414" type="curve"/>
      <point x="138" y="414" type="line"/>
      <point x="140" y="444"/>
      <point x="141" y="464"/>
      <point x="141" y="495" type="curve" smooth="yes"/>
      <point x="141" y="760" type="line"/>
      <point x="115" y="760" type="line"/>
    </contour>
  </outline>
</glyph>
<glyph name="i" format="2">
  <advance width="720"/>
  <unicode hex="0069"/>
  <anchor x="386" y="0" name="bottom"/>
  <anchor x="379" y="734" name="top"/>
  <anchor x="605" y="734" name="topright"/>
  <outline>
    <contour>
      <point x="108" y="0" type="line"/>
      <point x="651" y="0" type="line"/>
      <point x="651" y="21" type="line"/>
      <point x="399" y="25" type="line"/>
      <point x="399" y="528" type="line"/>
      <point x="132" y="528" type="line"/>
      <point x="132" y="507" type="line"/>
      <point x="373" y="503" type="line"/>
      <point x="373" y="25" type="line"/>
      <point x="108" y="21" type="line"/>
    </contour>
    <contour>
      <point x="383" y="660" type="curve" smooth="yes"/>
      <point x="416" y="660"/>
      <point x="418" y="679"/>
      <point x="418" y="697" type="curve" smooth="yes"/>
      <point x="418" y="716"/>
      <point x="413" y="734"/>
      <point x="383" y="734" type="curve" smooth="yes"/>
      <point x="350" y="734"/>
      <point x="345" y="716"/>
      <point x="345" y="697" type="curve" smooth="yes"/>
      <point x="345" y="677"/>
      <point x="351" y="660"/>
    </contour>
  </outline>
</glyph>
<glyph name="j" format="2">
  <advance width="720"/>
  <unicode hex="006A"/>
  <anchor x="301" y="-248" name="bottom"/>
  <anchor x="414" y="731" name="top"/>
  <anchor x="718" y="731" name="topright"/>
  <outline>
    <contour>
      <point x="234" y="-248" type="curve" smooth="yes"/>
      <point x="350" y="-248"/>
      <point x="430" y="-196"/>
      <point x="430" y="-88" type="curve" smooth="yes"/>
      <point x="430" y="528" type="line"/>
      <point x="157" y="528" type="line"/>
      <point x="157" y="507" type="line"/>
      <point x="404" y="503" type="line"/>
      <point x="404" y="-81" type="line" smooth="yes"/>
      <point x="404" y="-168"/>
      <point x="349" y="-222"/>
      <point x="236" y="-222" type="curve" smooth="yes"/>
      <point x="184" y="-222"/>
      <point x="102" y="-210"/>
      <point x="78" y="-201" type="curve"/>
      <point x="78" y="-228" type="line"/>
      <point x="97" y="-234"/>
      <point x="168" y="-248"/>
    </contour>
    <contour>
      <point x="414" y="657" type="curve" smooth="yes"/>
      <point x="447" y="657"/>
      <point x="449" y="676"/>
      <point x="449" y="694" type="curve" smooth="yes"/>
      <point x="449" y="713"/>
      <point x="444" y="731"/>
      <point x="414" y="731" type="curve" smooth="yes"/>
      <point x="380" y="731"/>
      <point x="375" y="713"/>
      <point x="375" y="694" type="curve" smooth="yes"/>
      <point x="375" y="674"/>
      <point x="382" y="657"/>
    </contour>
  </outline>
</glyph>
<glyph name="k" format="2">
  <advance width="720"/>
  <unicode hex="006B"/>
  <anchor x="406" y="0" name="bottom"/>
  <anchor x="411" y="760" name="top"/>
  <anchor x="718" y="760" name="topright"/>
  <outline>
    <contour>
      <point x="162" y="0" type="line"/>
      <point x="188" y="0" type="line"/>
      <point x="188" y="173" type="line"/>
      <point x="359" y="294" type="line"/>
      <point x="641" y="0" type="line"/>
      <point x="672" y="0" type="line"/>
      <point x="378" y="312" type="line"/>
      <point x="646" y="528" type="line"/>
      <point x="611" y="528" type="line"/>
      <point x="274" y="271" type="line" smooth="yes"/>
      <point x="243" y="248"/>
      <point x="217" y="226"/>
      <point x="190" y="205" type="curve"/>
      <point x="188" y="205" type="line"/>
      <point x="189" y="267"/>
      <point x="188" y="320"/>
      <point x="188" y="382" type="curve" smooth="yes"/>
      <point x="188" y="760" type="line"/>
      <point x="162" y="760" type="line"/>
    </contour>
  </outline>
</glyph>
<glyph name="l" format="2">
  <advance width="720"/>
  <unicode hex="006C"/>
  <anchor x="376" y="0" name="bottom"/>
  <anchor x="376" y="378" name="center"/>
  <anchor x="361" y="760" name="top"/>
  <anchor x="595" y="760" name="topright"/>
  <outline>
    <contour>
      <point x="108" y="0" type="line"/>
      <point x="651" y="0" type="line"/>
      <point x="651" y="21" type="line"/>
      <point x="390" y="25" type="line"/>
      <point x="390" y="760" type="line"/>
      <point x="136" y="760" type="line"/>
      <point x="136" y="739" type="line"/>
      <point x="364" y="735" type="line"/>
      <point x="364" y="25" type="line"/>
      <point x="108" y="21" type="line"/>
    </contour>
  </outline>
</glyph>
<glyph name="m" format="2">
  <advance width="720"/>
  <unicode hex="006D"/>
  <anchor x="364" y="0" name="bottom"/>
  <anchor x="371" y="528" name="top"/>
  <anchor x="718" y="528" name="topright"/>
  <outline>
    <contour>
      <point x="69" y="0" type="line"/>
      <point x="97" y="0" type="line"/>
      <point x="97" y="338" type="line" smooth="yes"/>
      <point x="97" y="418"/>
      <point x="138" y="512"/>
      <point x="242" y="512" type="curve" smooth="yes"/>
      <point x="300" y="512"/>
      <point x="352" y="484"/>
      <point x="352" y="363" type="curve" smooth="yes"/>
      <point x="352" y="0" type="line"/>
      <point x="379" y="0" type="line"/>
      <point x="379" y="348" type="line" smooth="yes"/>
      <point x="379" y="447"/>
      <point x="435" y="512"/>
      <point x="521" y="512" type="curve" smooth="yes"/>
      <point x="581" y="512"/>
      <point x="631" y="480"/>
      <point x="631" y="380" type="curve" smooth="yes"/>
      <point x="631" y="0" type="line"/>
      <point x="659" y="0" type="line"/>
      <point x="659" y="387" type="line" smooth="yes"/>
      <point x="659" y="492"/>
      <point x="605" y="537"/>
      <point x="521" y="537" type="curve" smooth="yes"/>
      <point x="437" y="537"/>
      <point x="397" y="494"/>
      <point x="372" y="439" type="curve"/>
      <point x="368" y="439" type="line"/>
      <point x="361" y="489"/>
      <point x="328" y="537"/>
      <point x="240" y="537" type="curve" smooth="yes"/>
      <point x="141" y="537"/>
      <point x="111" y="480"/>
      <point x="94" y="437" type="curve"/>
      <point x="91" y="437" type="line"/>
      <point x="89" y="527" type="line"/>
      <point x="69" y="527" type="line"/>
    </contour>
  </outline>
</glyph>
<glyph name="n" format="2">
  <advance width="720"/>
  <unicode hex="006E"/>
  <anchor x="373" y="0" name="bottom"/>
  <anchor x="370" y="528" name="top"/>
  <anchor x="718" y="528" name="topright"/>
  <outline>
    <contour>
      <point x="115" y="0" type="line"/>
      <point x="141" y="0" type="line"/>
      <point x="141" y="303" type="line" smooth="yes"/>
      <point x="141" y="446"/>
      <point x="243" y="512"/>
      <point x="386" y="512" type="curve" smooth="yes"/>
      <point x="512" y="512"/>
      <point x="588" y="463"/>
      <point x="588" y="348" type="curve" smooth="yes"/>
      <point x="588" y="0" type="line"/>
      <point x="614" y="0" type="line"/>
      <point x="614" y="356" type="line" smooth="yes"/>
      <point x="614" y="479"/>
      <point x="528" y="537"/>
      <point x="384" y="537" type="curve" smooth="yes"/>
      <point x="238" y="537"/>
      <point x="169" y="477"/>
      <point x="142" y="417" type="curve"/>
      <point x="139" y="417" type="line"/>
      <point x="137" y="528" type="line"/>
      <point x="115" y="528" type="line"/>
    </contour>
  </outline>
</glyph>
<glyph name="o" format="2">
  <advance width="720"/>
  <unicode hex="006F"/>
  <anchor x="361" y="0" name="bottom"/>
  <anchor x="361" y="264" name="center"/>
  <anchor x="361" y="11" name="ogonek"/>
  <anchor x="361" y="528" name="top"/>
  <anchor x="718" y="528" name="topright"/>
  <outline>
    <contour>
      <point x="361" y="-10" type="curve" smooth="yes"/>
      <point x="564" y="-10"/>
      <point x="652" y="105"/>
      <point x="652" y="266" type="curve" smooth="yes"/>
      <point x="652" y="418"/>
      <point x="575" y="537"/>
      <point x="368" y="537" type="curve" smooth="yes"/>
      <point x="177" y="537"/>
      <point x="70" y="434"/>
      <point x="70" y="264" type="curve" smooth="yes"/>
      <point x="70" y="104"/>
      <point x="161" y="-10"/>
    </contour>
    <contour>
      <point x="361" y="15" type="curve" smooth="yes"/>
      <point x="182" y="15"/>
      <point x="97" y="114"/>
      <point x="97" y="264" type="curve" smooth="yes"/>
      <point x="97" y="421"/>
      <point x="197" y="512"/>
      <point x="368" y="512" type="curve" smooth="yes"/>
      <point x="557" y="512"/>
      <point x="625" y="404"/>
      <point x="625" y="265" type="curve" smooth="yes"/>
      <point x="625" y="116"/>
      <point x="544" y="15"/>
    </contour>
  </outline>
</glyph>
<glyph name="q" format="2">
  <advance width="720"/>
  <unicode hex="0071"/>
  <anchor x="349" y="-238" name="bottom"/>
  <anchor x="349" y="528" name="top"/>
  <anchor x="718" y="528" name="topright"/>
  <outline>
    <contour>
      <point x="581" y="-238" type="line"/>
      <point x="607" y="-238" type="line"/>
      <point x="607" y="528" type="line"/>
      <point x="585" y="528" type="line"/>
      <point x="581" y="423" type="line"/>
      <point x="579" y="423" type="line"/>
      <point x="551" y="485"/>
      <point x="477" y="537"/>
      <point x="346" y="537" type="curve" smooth="yes"/>
      <point x="150" y="537"/>
      <point x="70" y="418"/>
      <point x="70" y="256" type="curve" smooth="yes"/>
      <point x="70" y="85"/>
      <point x="157" y="-10"/>
      <point x="333" y="-10" type="curve" smooth="yes"/>
      <point x="468" y="-10"/>
      <point x="547" y="45"/>
      <point x="581" y="122" type="curve"/>
      <point x="584" y="122" type="line"/>
      <point x="582" y="89"/>
      <point x="581" y="36"/>
      <point x="581" y="7" type="curve" smooth="yes"/>
    </contour>
    <contour>
      <point x="331" y="15" type="curve" smooth="yes"/>
      <point x="175" y="15"/>
      <point x="97" y="97"/>
      <point x="97" y="257" type="curve" smooth="yes"/>
      <point x="97" y="420"/>
      <point x="182" y="512"/>
      <point x="344" y="512" type="curve" smooth="yes"/>
      <point x="499" y="512"/>
      <point x="581" y="431"/>
      <point x="581" y="281" type="curve" smooth="yes"/>
      <point x="581" y="258" type="line" smooth="yes"/>
      <point x="581" y="108"/>
      <point x="498" y="15"/>
    </contour>
  </outline>
</glyph>
<glyph name="r" format="2">
  <advance width="720"/>
  <unicode hex="0072"/>
  <anchor x="341" y="0" name="bottom"/>
  <anchor x="418" y="528" name="top"/>
  <anchor x="718" y="528" name="topright"/>
  <outline>
    <contour>
      <point x="106" y="0" type="line"/>
      <point x="614" y="0" type="line"/>
      <point x="614" y="21" type="line"/>
      <point x="356" y="25" type="line"/>
      <point x="356" y="281" type="line" smooth="yes"/>
      <point x="356" y="421"/>
      <point x="429" y="510"/>
      <point x="579" y="510" type="curve" smooth="yes"/>
      <point x="620" y="510"/>
      <point x="660" y="505"/>
      <point x="693" y="497" type="curve"/>
      <point x="699" y="523" type="line"/>
      <point x="671" y="530"/>
      <point x="623" y="536"/>
      <point x="580" y="536" type="curve" smooth="yes"/>
      <point x="460" y="536"/>
      <point x="380" y="480"/>
      <point x="360" y="412" type="curve"/>
      <point x="356" y="412" type="line"/>
      <point x="357" y="528" type="line"/>
      <point x="130" y="528" type="line"/>
      <point x="130" y="507" type="line"/>
      <point x="330" y="503" type="line"/>
      <point x="330" y="25" type="line"/>
      <point x="106" y="21" type="line"/>
    </contour>
  </outline>
</glyph>
<glyph name="s" format="2">
  <advance width="720"/>
  <unicode hex="0073"/>
  <anchor x="362" y="0" name="bottom"/>
  <anchor x="362" y="528" name="top"/>
  <anchor x="718" y="528" name="topright"/>
  <outline>
    <contour>
      <point x="351" y="-10" type="curve" smooth="yes"/>
      <point x="516" y="-10"/>
      <point x="590" y="45"/>
      <point x="590" y="132" type="curve" smooth="yes"/>
      <point x="590" y="227"/>
      <point x="494" y="253"/>
      <point x="369" y="285" type="curve" smooth="yes"/>
      <point x="262" y="313"/>
      <point x="184" y="330"/>
      <point x="184" y="406" type="curve" smooth="yes"/>
      <point x="184" y="478"/>
      <point x="256" y="512"/>
      <point x="382" y="512" type="curve" smooth="yes"/>
      <point x="449" y="512"/>
      <point x="516" y="501"/>
      <point x="561" y="484" type="curve"/>
      <point x="574" y="508" type="line"/>
      <point x="523" y="525"/>
      <point x="458" y="537"/>
      <point x="382" y="537" type="curve" smooth="yes"/>
      <point x="237" y="537"/>
      <point x="157" y="489"/>
      <point x="157" y="405" type="curve" smooth="yes"/>
      <point x="157" y="310"/>
      <point x="259" y="289"/>
      <point x="364" y="261" type="curve" smooth="yes"/>
      <point x="471" y="233"/>
      <point x="563" y="212"/>
      <point x="563" y="130" type="curve" smooth="yes"/>
      <point x="563" y="59"/>
      <point x="503" y="15"/>
      <point x="350" y="15" type="curve" smooth="yes"/>
      <point x="277" y="15"/>
      <point x="203" y="29"/>
      <point x="135" y="54" type="curve"/>
      <point x="135" y="24" type="line"/>
      <point x="182" y="8"/>
      <point x="264" y="-10"/>
    </contour>
  </outline>
</glyph>
<glyph name="t" format="2">
  <advance width="720"/>
  <unicode hex="0074"/>
  <anchor x="474" y="0" name="bottom"/>
  <anchor x="322" y="271" name="center"/>
  <anchor x="326" y="659" name="top"/>
  <anchor x="718" y="659" name="topright"/>
  <outline>
    <contour>
      <point x="506" y="-10" type="curve" smooth="yes"/>
      <point x="551" y="-10"/>
      <point x="578" y="-4"/>
      <point x="605" y="3" type="curve"/>
      <point x="605" y="28" type="line"/>
      <point x="577" y="20"/>
      <point x="548" y="15"/>
      <point x="505" y="15" type="curve" smooth="yes"/>
      <point x="372" y="15"/>
      <point x="336" y="75"/>
      <point x="336" y="183" type="curve" smooth="yes"/>
      <point x="336" y="503" type="line"/>
      <point x="614" y="503" type="line"/>
      <point x="614" y="528" type="line"/>
      <point x="336" y="528" type="line"/>
      <point x="336" y="659" type="line"/>
      <point x="314" y="659" type="line"/>
      <point x="309" y="528" type="line"/>
      <point x="92" y="524" type="line"/>
      <point x="92" y="503" type="line"/>
      <point x="310" y="503" type="line"/>
      <point x="310" y="180" type="line" smooth="yes"/>
      <point x="310" y="62"/>
      <point x="350" y="-10"/>
    </contour>
  </outline>
</glyph>
<glyph name="u" format="2">
  <advance width="720"/>
  <unicode hex="0075"/>
  <anchor x="361" y="0" name="bottom"/>
  <anchor x="668" y="10" name="ogonek"/>
  <anchor x="361" y="528" name="top"/>
  <anchor x="718" y="528" name="topright"/>
  <outline>
    <contour>
      <point x="339" y="-10" type="curve" smooth="yes"/>
      <point x="484" y="-10"/>
      <point x="555" y="51"/>
      <point x="581" y="112" type="curve"/>
      <point x="583" y="112" type="line"/>
      <point x="586" y="0" type="line"/>
      <point x="607" y="0" type="line"/>
      <point x="607" y="528" type="line"/>
      <point x="581" y="528" type="line"/>
      <point x="581" y="226" type="line" smooth="yes"/>
      <point x="581" y="82"/>
      <point x="478" y="15"/>
      <point x="338" y="15" type="curve" smooth="yes"/>
      <point x="208" y="15"/>
      <point x="134" y="69"/>
      <point x="134" y="193" type="curve" smooth="yes"/>
      <point x="134" y="528" type="line"/>
      <point x="108" y="528" type="line"/>
      <point x="108" y="188" type="line" smooth="yes"/>
      <point x="108" y="58"/>
      <point x="187" y="-10"/>
    </contour>
  </outline>
</glyph>
<glyph name="v" format="2">
  <advance width="720"/>
  <unicode hex="0076"/>
  <anchor x="361" y="0" name="bottom"/>
  <anchor x="361" y="528" name="top"/>
  <anchor x="718" y="528" name="topright"/>
  <outline>
    <contour>
      <point x="351" y="0" type="line"/>
      <point x="370" y="0" type="line"/>
      <point x="632" y="528" type="line"/>
      <point x="604" y="528" type="line"/>
      <point x="408" y="140" type="line" smooth="yes"/>
      <point x="388" y="98"/>
      <point x="377" y="69"/>
      <point x="362" y="35" type="curve"/>
      <point x="360" y="35" type="line"/>
      <point x="345" y="69"/>
      <point x="333" y="98"/>
      <point x="312" y="140" type="curve" smooth="yes"/>
      <point x="118" y="528" type="line"/>
      <point x="90" y="528" type="line"/>
    </contour>
  </outline>
</glyph>
<glyph name="w" format="2">
  <advance width="720"/>
  <unicode hex="0077"/>
  <anchor x="369" y="0" name="bottom"/>
  <anchor x="369" y="528" name="top"/>
  <anchor x="718" y="528" name="topright"/>
  <outline>
    <contour>
      <point x="185" y="0" type="line"/>
      <point x="206" y="0" type="line"/>
      <point x="329" y="286" type="line" smooth="yes"/>
      <point x="342" y="318"/>
      <point x="356" y="354"/>
      <point x="366" y="391" type="curve"/>
      <point x="369" y="391" type="line"/>
      <point x="381" y="354"/>
      <point x="394" y="320"/>
      <point x="409" y="286" type="curve" smooth="yes"/>
      <point x="533" y="0" type="line"/>
      <point x="552" y="0" type="line"/>
      <point x="712" y="528" type="line"/>
      <point x="686" y="528" type="line"/>
      <point x="572" y="153" type="line" smooth="yes"/>
      <point x="555" y="98"/>
      <point x="550" y="73"/>
      <point x="543" y="39" type="curve"/>
      <point x="540" y="39" type="line"/>
      <point x="528" y="71"/>
      <point x="520" y="100"/>
      <point x="497" y="153" type="curve" smooth="yes"/>
      <point x="381" y="426" type="line"/>
      <point x="357" y="426" type="line"/>
      <point x="241" y="154" type="line" smooth="yes"/>
      <point x="218" y="98"/>
      <point x="209" y="69"/>
      <point x="198" y="39" type="curve"/>
      <point x="195" y="39" type="line"/>
      <point x="185" y="71"/>
      <point x="181" y="97"/>
      <point x="162" y="154" type="curve" smooth="yes"/>
      <point x="35" y="528" type="line"/>
      <point x="9" y="528" type="line"/>
    </contour>
  </outline>
</glyph>
<glyph name="x" format="2">
  <advance width="720"/>
  <unicode hex="0078"/>
  <anchor x="361" y="0" name="bottom"/>
  <anchor x="361" y="528" name="top"/>
  <anchor x="718" y="528" name="topright"/>
  <outline>
    <contour>
      <point x="90" y="0" type="line"/>
      <point x="121" y="0" type="line"/>
      <point x="360" y="252" type="line"/>
      <point x="600" y="0" type="line"/>
      <point x="632" y="0" type="line"/>
      <point x="376" y="271" type="line"/>
      <point x="617" y="528" type="line"/>
      <point x="587" y="528" type="line"/>
      <point x="359" y="289" type="line"/>
      <point x="136" y="528" type="line"/>
      <point x="104" y="528" type="line"/>
      <point x="344" y="270" type="line"/>
    </contour>
  </outline>
</glyph>
<glyph name="y" format="2">
  <advance width="720"/>
  <unicode hex="0079"/>
  <anchor x="360" y="-246" name="bottom"/>
  <anchor x="360" y="528" name="top"/>
  <anchor x="718" y="528" name="topright"/>
  <outline>
    <contour>
      <point x="153" y="-246" type="curve" smooth="yes"/>
      <point x="232" y="-246"/>
      <point x="274" y="-205"/>
      <point x="317" y="-117" type="curve" smooth="yes"/>
      <point x="632" y="528" type="line"/>
      <point x="604" y="528" type="line"/>
      <point x="425" y="165" type="line" smooth="yes"/>
      <point x="395" y="107"/>
      <point x="382" y="81"/>
      <point x="365" y="41" type="curve"/>
      <point x="362" y="41" type="line"/>
      <point x="345" y="77"/>
      <point x="335" y="102"/>
      <point x="306" y="161" type="curve" smooth="yes"/>
      <point x="127" y="528" type="line"/>
      <point x="99" y="528" type="line"/>
      <point x="350" y="7" type="line"/>
      <point x="295" y="-108" type="line" smooth="yes"/>
      <point x="254" y="-191"/>
      <point x="218" y="-221"/>
      <point x="154" y="-221" type="curve" smooth="yes"/>
      <point x="130" y="-221"/>
      <point x="112" y="-217"/>
      <point x="87" y="-210" type="curve"/>
      <point x="87" y="-236" type="line"/>
      <point x="111" y="-243"/>
      <point x="130" y="-246"/>
    </contour>
  </outline>
</glyph>
<glyph name="z" format="2">
  <advance width="720"/>
  <unicode hex="007A"/>
  <anchor x="374" y="0" name="bottom"/>
  <anchor x="374" y="528" name="top"/>
  <anchor x="718" y="528" name="topright"/>
  <outline>
    <contour>
      <point x="128" y="0" type="line"/>
      <point x="590" y="0" type="line"/>
      <point x="590" y="25" type="line"/>
      <point x="165" y="25" type="line"/>
      <point x="595" y="512" type="line"/>
      <point x="595" y="528" type="line"/>
      <point x="163" y="528" type="line"/>
      <point x="163" y="503" type="line"/>
      <point x="554" y="503" type="line"/>
      <point x="128" y="18" type="line"/>
    </contour>
  </outline>
</glyph>
<glyph name="braceleft" format="2">
  <advance width="720"/>
  <unicode hex="007B"/>
  <outline>
    <contour>
      <point x="543" y="-158" type="curve"/>
      <point x="543" y="-134" type="line"/>
      <point x="402" y="-134"/>
      <point x="361" y="-104"/>
      <point x="361" y="-21" type="curve" smooth="yes"/>
      <point x="361" y="156" type="line" smooth="yes"/>
      <point x="361" y="224"/>
      <point x="336" y="267"/>
      <point x="260" y="278" type="curve"/>
      <point x="260" y="280" type="line"/>
      <point x="336" y="289"/>
      <point x="361" y="334"/>
      <point x="361" y="402" type="curve" smooth="yes"/>
      <point x="361" y="577" type="line" smooth="yes"/>
      <point x="361" y="659"/>
      <point x="404" y="690"/>
      <point x="543" y="690" type="curve"/>
      <point x="543" y="714" type="line"/>
      <point x="389" y="714"/>
      <point x="333" y="673"/>
      <point x="333" y="581" type="curve" smooth="yes"/>
      <point x="333" y="407" type="line" smooth="yes"/>
      <point x="333" y="321"/>
      <point x="295" y="290"/>
      <point x="190" y="290" type="curve"/>
      <point x="190" y="266" type="line"/>
      <point x="298" y="266"/>
      <point x="333" y="235"/>
      <point x="333" y="151" type="curve" smooth="yes"/>
      <point x="333" y="-25" type="line" smooth="yes"/>
      <point x="333" y="-120"/>
      <point x="387" y="-158"/>
    </contour>
  </outline>
</glyph>
<glyph name="asciitilde" format="2">
  <advance width="720"/>
  <unicode hex="007E"/>
  <outline>
    <contour>
      <point x="64" y="309" type="line"/>
      <point x="114" y="350"/>
      <point x="165" y="372"/>
      <point x="221" y="372" type="curve" smooth="yes"/>
      <point x="279" y="372"/>
      <point x="314" y="359"/>
      <point x="360" y="342" type="curve" smooth="yes"/>
      <point x="408" y="323"/>
      <point x="448" y="310"/>
      <point x="511" y="310" type="curve" smooth="yes"/>
      <point x="573" y="310"/>
      <point x="626" y="335"/>
      <point x="657" y="361" type="curve"/>
      <point x="657" y="391" type="line"/>
      <point x="606" y="351"/>
      <point x="556" y="334"/>
      <point x="510" y="334" type="curve" smooth="yes"/>
      <point x="455" y="334"/>
      <point x="419" y="347"/>
      <point x="373" y="364" type="curve" smooth="yes"/>
      <point x="326" y="383"/>
      <point x="289" y="397"/>
      <point x="220" y="397" type="curve" smooth="yes"/>
      <point x="158" y="397"/>
      <point x="103" y="370"/>
      <point x="64" y="341" type="curve"/>
    </contour>
  </outline>
</glyph>
<glyph name="cent" format="2">
  <advance width="720"/>
  <unicode hex="00A2"/>
  <outline>
    <contour>
      <point x="400" y="-10" type="line"/>
      <point x="428" y="-10" type="line"/>
      <point x="428" y="90" type="line"/>
      <point x="491" y="92"/>
      <point x="546" y="103"/>
      <point x="583" y="115" type="curve"/>
      <point x="583" y="140" type="line"/>
      <point x="535" y="125"/>
      <point x="474" y="116"/>
      <point x="415" y="116" type="curve" smooth="yes"/>
      <point x="215" y="116"/>
      <point x="131" y="222"/>
      <point x="131" y="361" type="curve" smooth="yes"/>
      <point x="131" y="509"/>
      <point x="247" y="613"/>
      <point x="437" y="613" type="curve" smooth="yes"/>
      <point x="483" y="613"/>
      <point x="532" y="607"/>
      <point x="583" y="590" type="curve"/>
      <point x="587" y="615" type="line"/>
      <point x="537" y="631"/>
      <point x="493" y="637"/>
      <point x="427" y="637" type="curve"/>
      <point x="427" y="724" type="line"/>
      <point x="400" y="724" type="line"/>
      <point x="400" y="636" type="line"/>
      <point x="212" y="623"/>
      <point x="104" y="514"/>
      <point x="104" y="361" type="curve" smooth="yes"/>
      <point x="104" y="209"/>
      <point x="192" y="98"/>
      <point x="400" y="90" type="curve"/>
    </contour>
  </outline>
</glyph>
<glyph name="sterling" format="2">
  <advance width="720"/>
  <unicode hex="00A3"/>
  <outline>
    <contour>
      <point x="86" y="0" type="line"/>
      <point x="662" y="0" type="line"/>
      <point x="662" y="25" type="line"/>
      <point x="167" y="25" type="line"/>
      <point x="229" y="48"/>
      <point x="273" y="95"/>
      <point x="273" y="179" type="curve" smooth="yes"/>
      <point x="273" y="336" type="line"/>
      <point x="508" y="336" type="line"/>
      <point x="508" y="361" type="line"/>
      <point x="273" y="361" type="line"/>
      <point x="273" y="516" type="line" smooth="yes"/>
      <point x="273" y="643"/>
      <point x="336" y="698"/>
      <point x="472" y="698" type="curve" smooth="yes"/>
      <point x="533" y="698"/>
      <point x="584" y="687"/>
      <point x="643" y="662" type="curve"/>
      <point x="653" y="686" type="line"/>
      <point x="605" y="707"/>
      <point x="547" y="723"/>
      <point x="473" y="723" type="curve" smooth="yes"/>
      <point x="321" y="723"/>
      <point x="247" y="655"/>
      <point x="247" y="520" type="curve" smooth="yes"/>
      <point x="247" y="361" type="line"/>
      <point x="107" y="361" type="line"/>
      <point x="107" y="336" type="line"/>
      <point x="247" y="336" type="line"/>
      <point x="247" y="186" type="line" smooth="yes"/>
      <point x="247" y="89"/>
      <point x="193" y="38"/>
      <point x="86" y="23" type="curve"/>
    </contour>
  </outline>
</glyph>
<glyph name="currency" format="2">
  <advance width="720"/>
  <unicode hex="00A4"/>
  <outline>
    <contour>
      <point x="640" y="126" type="line"/>
      <point x="660" y="143" type="line"/>
      <point x="556" y="220" type="line"/>
      <point x="603" y="259"/>
      <point x="625" y="307"/>
      <point x="625" y="354" type="curve" smooth="yes"/>
      <point x="625" y="402"/>
      <point x="605" y="448"/>
      <point x="558" y="486" type="curve"/>
      <point x="662" y="562" type="line"/>
      <point x="644" y="580" type="line"/>
      <point x="541" y="503" type="line"/>
      <point x="490" y="537"/>
      <point x="424" y="554"/>
      <point x="360" y="554" type="curve" smooth="yes"/>
      <point x="296" y="554"/>
      <point x="233" y="537"/>
      <point x="182" y="503" type="curve"/>
      <point x="77" y="581" type="line"/>
      <point x="59" y="563" type="line"/>
      <point x="161" y="486" type="line"/>
      <point x="117" y="449"/>
      <point x="98" y="402"/>
      <point x="98" y="354" type="curve" smooth="yes"/>
      <point x="98" y="306"/>
      <point x="120" y="259"/>
      <point x="165" y="221" type="curve"/>
      <point x="63" y="145" type="line"/>
      <point x="81" y="128" type="line"/>
      <point x="185" y="203" type="line"/>
      <point x="237" y="169"/>
      <point x="297" y="154"/>
      <point x="360" y="154" type="curve" smooth="yes"/>
      <point x="424" y="154"/>
      <point x="487" y="169"/>
      <point x="537" y="203" type="curve"/>
    </contour>
    <contour>
      <point x="360" y="180" type="curve" smooth="yes"/>
      <point x="234" y="180"/>
      <point x="125" y="253"/>
      <point x="125" y="353" type="curve" smooth="yes"/>
      <point x="125" y="453"/>
      <point x="224" y="529"/>
      <point x="364" y="529" type="curve" smooth="yes"/>
      <point x="498" y="529"/>
      <point x="597" y="451"/>
      <point x="597" y="355" type="curve" smooth="yes"/>
      <point x="597" y="258"/>
      <point x="490" y="180"/>
    </contour>
  </outline>
</glyph>
<glyph name="yen" format="2">
  <advance width="720"/>
  <unicode hex="00A5"/>
  <outline>
    <contour>
      <point x="349" y="0" type="line"/>
      <point x="375" y="0" type="line"/>
      <point x="375" y="161" type="line"/>
      <point x="603" y="161" type="line"/>
      <point x="603" y="186" type="line"/>
      <point x="375" y="186" type="line"/>
      <point x="375" y="297" type="line"/>
      <point x="603" y="297" type="line"/>
      <point x="603" y="322" type="line"/>
      <point x="381" y="322" type="line"/>
      <point x="688" y="714" type="line"/>
      <point x="656" y="714" type="line"/>
      <point x="362" y="337" type="line"/>
      <point x="66" y="714" type="line"/>
      <point x="33" y="714" type="line"/>
      <point x="341" y="322" type="line"/>
      <point x="120" y="322" type="line"/>
      <point x="120" y="297" type="line"/>
      <point x="349" y="297" type="line"/>
      <point x="349" y="186" type="line"/>
      <point x="120" y="186" type="line"/>
      <point x="120" y="161" type="line"/>
      <point x="349" y="161" type="line"/>
    </contour>
  </outline>
</glyph>
<glyph name="brokenbar" format="2">
  <advance width="720"/>
  <unicode hex="00A6"/>
  <outline>
    <contour>
      <point x="341" y="393" type="line"/>
      <point x="367" y="393" type="line"/>
      <point x="367" y="763" type="line"/>
      <point x="341" y="763" type="line"/>
    </contour>
    <contour>
      <point x="341" y="-250" type="line"/>
      <point x="367" y="-250" type="line"/>
      <point x="367" y="121" type="line"/>
      <point x="341" y="121" type="line"/>
    </contour>
  </outline>
</glyph>
<glyph name="section" format="2">
  <advance width="720"/>
  <unicode hex="00A7"/>
  <outline>
    <contour>
      <point x="349" y="-4" type="curve" smooth="yes"/>
      <point x="513" y="-4"/>
      <point x="593" y="51"/>
      <point x="593" y="133" type="curve" smooth="yes"/>
      <point x="593" y="191"/>
      <point x="546" y="220"/>
      <point x="481" y="242" type="curve"/>
      <point x="552" y="268"/>
      <point x="603" y="314"/>
      <point x="603" y="379" type="curve" smooth="yes"/>
      <point x="603" y="474"/>
      <point x="490" y="497"/>
      <point x="382" y="525" type="curve" smooth="yes"/>
      <point x="281" y="553"/>
      <point x="195" y="572"/>
      <point x="195" y="637" type="curve" smooth="yes"/>
      <point x="195" y="704"/>
      <point x="272" y="737"/>
      <point x="392" y="737" type="curve" smooth="yes"/>
      <point x="458" y="737"/>
      <point x="530" y="726"/>
      <point x="574" y="709" type="curve"/>
      <point x="587" y="732" type="line"/>
      <point x="536" y="749"/>
      <point x="467" y="761"/>
      <point x="393" y="761" type="curve" smooth="yes"/>
      <point x="255" y="761"/>
      <point x="169" y="714"/>
      <point x="169" y="637" type="curve" smooth="yes"/>
      <point x="169" y="573"/>
      <point x="227" y="545"/>
      <point x="304" y="521" type="curve"/>
      <point x="218" y="500"/>
      <point x="158" y="459"/>
      <point x="158" y="393" type="curve" smooth="yes"/>
      <point x="158" y="304"/>
      <point x="250" y="279"/>
      <point x="363" y="251" type="curve" smooth="yes"/>
      <point x="473" y="223"/>
      <point x="566" y="202"/>
      <point x="566" y="132" type="curve" smooth="yes"/>
      <point x="566" y="66"/>
      <point x="500" y="20"/>
      <point x="349" y="20" type="curve" smooth="yes"/>
      <point x="273" y="20"/>
      <point x="201" y="33"/>
      <point x="136" y="57" type="curve"/>
      <point x="136" y="28" type="line"/>
      <point x="182" y="12"/>
      <point x="261" y="-4"/>
    </contour>
    <contour>
      <point x="452" y="253" type="curve"/>
      <point x="369" y="274" type="line" smooth="yes"/>
      <point x="270" y="299"/>
      <point x="186" y="318"/>
      <point x="186" y="393" type="curve" smooth="yes"/>
      <point x="186" y="459"/>
      <point x="255" y="493"/>
      <point x="345" y="510" type="curve"/>
      <point x="489" y="480"/>
      <point x="575" y="450"/>
      <point x="575" y="378" type="curve" smooth="yes"/>
      <point x="575" y="319"/>
      <point x="527" y="275"/>
    </contour>
  </outline>
</glyph>
<glyph name="dieresis" format="2">
  <advance width="720"/>
  <unicode hex="00A8"/>
  <anchor x="361" y="528" name="_top"/>
  <anchor x="361" y="638" name="top"/>
  <outline>
    <contour>
      <point x="483" y="641" type="curve" smooth="yes"/>
      <point x="512" y="641"/>
      <point x="514" y="657"/>
      <point x="514" y="676" type="curve" smooth="yes"/>
      <point x="514" y="694"/>
      <point x="512" y="711"/>
      <point x="483" y="711" type="curve" smooth="yes"/>
      <point x="456" y="711"/>
      <point x="451" y="695"/>
      <point x="451" y="676" type="curve" smooth="yes"/>
      <point x="451" y="656"/>
      <point x="456" y="641"/>
    </contour>
    <contour>
      <point x="236" y="641" type="curve" smooth="yes"/>
      <point x="267" y="641"/>
      <point x="269" y="658"/>
      <point x="269" y="676" type="curve" smooth="yes"/>
      <point x="269" y="693"/>
      <point x="267" y="711"/>
      <point x="236" y="711" type="curve" smooth="yes"/>
      <point x="211" y="711"/>
      <point x="206" y="695"/>
      <point x="206" y="676" type="curve" smooth="yes"/>
      <point x="206" y="656"/>
      <point x="211" y="641"/>
    </contour>
  </outline>
</glyph>
<glyph name="copyright" format="2">
  <advance width="720"/>
  <unicode hex="00A9"/>
  <outline>
    <contour>
      <point x="356" y="112" type="curve" smooth="yes"/>
      <point x="542" y="112"/>
      <point x="693" y="212"/>
      <point x="693" y="359" type="curve" smooth="yes"/>
      <point x="693" y="501"/>
      <point x="552" y="607"/>
      <point x="362" y="607" type="curve" smooth="yes"/>
      <point x="180" y="607"/>
      <point x="29" y="508"/>
      <point x="29" y="358" type="curve" smooth="yes"/>
      <point x="29" y="213"/>
      <point x="169" y="112"/>
    </contour>
    <contour>
      <point x="378" y="208" type="curve" smooth="yes"/>
      <point x="417" y="208"/>
      <point x="451" y="214"/>
      <point x="482" y="222" type="curve"/>
      <point x="482" y="244" type="line"/>
      <point x="446" y="233"/>
      <point x="414" y="230"/>
      <point x="387" y="230" type="curve" smooth="yes"/>
      <point x="278" y="230"/>
      <point x="210" y="272"/>
      <point x="210" y="356" type="curve" smooth="yes"/>
      <point x="210" y="439"/>
      <point x="275" y="488"/>
      <point x="387" y="488" type="curve" smooth="yes"/>
      <point x="424" y="488"/>
      <point x="459" y="482"/>
      <point x="488" y="473" type="curve"/>
      <point x="496" y="493" type="line"/>
      <point x="467" y="506"/>
      <point x="428" y="511"/>
      <point x="390" y="511" type="curve" smooth="yes"/>
      <point x="258" y="511"/>
      <point x="183" y="451"/>
      <point x="183" y="356" type="curve" smooth="yes"/>
      <point x="183" y="259"/>
      <point x="262" y="208"/>
    </contour>
    <contour>
      <point x="358" y="135" type="curve" smooth="yes"/>
      <point x="180" y="135"/>
      <point x="56" y="232"/>
      <point x="56" y="360" type="curve" smooth="yes"/>
      <point x="56" y="491"/>
      <point x="190" y="583"/>
      <point x="361" y="583" type="curve" smooth="yes"/>
      <point x="538" y="583"/>
      <point x="666" y="486"/>
      <point x="666" y="359" type="curve" smooth="yes"/>
      <point x="666" y="228"/>
      <point x="534" y="135"/>
    </contour>
  </outline>
</glyph>
<glyph name="ordfeminine" format="2">
  <advance width="720"/>
  <unicode hex="00AA"/>
  <outline>
    <contour>
      <point x="338" y="394" type="curve" smooth="yes"/>
      <point x="416" y="394"/>
      <point x="470" y="418"/>
      <point x="490" y="448" type="curve"/>
      <point x="495" y="398" type="line"/>
      <point x="519" y="398" type="line"/>
      <point x="519" y="624" type="line" smooth="yes"/>
      <point x="519" y="687"/>
      <point x="466" y="723"/>
      <point x="364" y="723" type="curve" smooth="yes"/>
      <point x="310" y="723"/>
      <point x="268" y="712"/>
      <point x="228" y="697" type="curve"/>
      <point x="240" y="676" type="line"/>
      <point x="278" y="692"/>
      <point x="315" y="700"/>
      <point x="361" y="700" type="curve" smooth="yes"/>
      <point x="443" y="700"/>
      <point x="490" y="675"/>
      <point x="492" y="619" type="curve" smooth="yes"/>
      <point x="493" y="586" type="line"/>
      <point x="396" y="584" type="line" smooth="yes"/>
      <point x="267" y="580"/>
      <point x="200" y="550"/>
      <point x="200" y="484" type="curve" smooth="yes"/>
      <point x="200" y="423"/>
      <point x="259" y="394"/>
    </contour>
    <contour>
      <point x="341" y="416" type="curve" smooth="yes"/>
      <point x="273" y="416"/>
      <point x="227" y="439"/>
      <point x="227" y="485" type="curve" smooth="yes"/>
      <point x="227" y="536"/>
      <point x="284" y="560"/>
      <point x="395" y="562" type="curve" smooth="yes"/>
      <point x="493" y="564" type="line"/>
      <point x="493" y="523" type="line" smooth="yes"/>
      <point x="493" y="458"/>
      <point x="441" y="416"/>
    </contour>
  </outline>
</glyph>
<glyph name="guillemotleft" format="2">
  <advance width="720"/>
  <unicode hex="00AB"/>
  <outline>
    <contour>
      <point x="548" y="82" type="line"/>
      <point x="565" y="93" type="line"/>
      <point x="385" y="272" type="line"/>
      <point x="565" y="452" type="line"/>
      <point x="548" y="464" type="line"/>
      <point x="352" y="278" type="line"/>
      <point x="352" y="265" type="line"/>
    </contour>
    <contour>
      <point x="329" y="82" type="line"/>
      <point x="345" y="93" type="line"/>
      <point x="166" y="272" type="line"/>
      <point x="344" y="452" type="line"/>
      <point x="329" y="464" type="line"/>
      <point x="132" y="278" type="line"/>
      <point x="132" y="265" type="line"/>
    </contour>
  </outline>
</glyph>
<glyph name="logicalnot" format="2">
  <advance width="720"/>
  <unicode hex="00AC"/>
  <outline>
    <contour>
      <point x="588" y="130" type="line"/>
      <point x="614" y="130" type="line"/>
      <point x="614" y="365" type="line"/>
      <point x="44" y="365" type="line"/>
      <point x="44" y="341" type="line"/>
      <point x="588" y="341" type="line"/>
    </contour>
  </outline>
</glyph>
<glyph name="registered" format="2">
  <advance width="720"/>
  <unicode hex="00AE"/>
  <outline>
    <contour>
      <point x="356" y="112" type="curve" smooth="yes"/>
      <point x="542" y="112"/>
      <point x="693" y="212"/>
      <point x="693" y="359" type="curve" smooth="yes"/>
      <point x="693" y="501"/>
      <point x="552" y="607"/>
      <point x="362" y="607" type="curve" smooth="yes"/>
      <point x="180" y="607"/>
      <point x="29" y="508"/>
      <point x="29" y="358" type="curve" smooth="yes"/>
      <point x="29" y="213"/>
      <point x="169" y="112"/>
    </contour>
    <contour>
      <point x="358" y="135" type="curve" smooth="yes"/>
      <point x="180" y="135"/>
      <point x="56" y="232"/>
      <point x="56" y="360" type="curve" smooth="yes"/>
      <point x="56" y="491"/>
      <point x="190" y="583"/>
      <point x="361" y="583" type="curve" smooth="yes"/>
      <point x="538" y="583"/>
      <point x="666" y="486"/>
      <point x="666" y="359" type="curve" smooth="yes"/>
      <point x="666" y="228"/>
      <point x="534" y="135"/>
    </contour>
    <contour>
      <point x="246" y="199" type="line"/>
      <point x="272" y="199" type="line"/>
      <point x="272" y="337" type="line"/>
      <point x="389" y="337" type="line"/>
      <point x="501" y="199" type="line"/>
      <point x="533" y="199" type="line"/>
      <point x="417" y="341" type="line"/>
      <point x="472" y="353"/>
      <point x="514" y="380"/>
      <point x="514" y="433" type="curve" smooth="yes"/>
      <point x="514" y="496"/>
      <point x="454" y="524"/>
      <point x="370" y="524" type="curve" smooth="yes"/>
      <point x="246" y="524" type="line"/>
    </contour>
    <contour>
      <point x="271" y="357" type="line"/>
      <point x="271" y="503" type="line"/>
      <point x="369" y="503" type="line" smooth="yes"/>
      <point x="440" y="503"/>
      <point x="487" y="484"/>
      <point x="487" y="432" type="curve" smooth="yes"/>
      <point x="487" y="378"/>
      <point x="436" y="357"/>
      <point x="367" y="357" type="curve" smooth="yes"/>
    </contour>
  </outline>
</glyph>
<glyph name="overscore" format="2">
  <advance width="720"/>
  <unicode hex="00AF"/>
  <outline>
    <contour>
      <point x="198" y="629" type="line"/>
      <point x="522" y="629" type="line"/>
      <point x="522" y="653" type="line"/>
      <point x="198" y="653" type="line"/>
    </contour>
  </outline>
</glyph>
<glyph name="degree" format="2">
  <advance width="720"/>
  <unicode hex="00B0"/>
  <outline>
    <contour>
      <point x="362" y="446" type="curve" smooth="yes"/>
      <point x="462" y="446"/>
      <point x="544" y="498"/>
      <point x="544" y="584" type="curve" smooth="yes"/>
      <point x="544" y="669"/>
      <point x="462" y="724"/>
      <point x="361" y="724" type="curve" smooth="yes"/>
      <point x="262" y="724"/>
      <point x="179" y="671"/>
      <point x="179" y="585" type="curve" smooth="yes"/>
      <point x="179" y="497"/>
      <point x="264" y="446"/>
    </contour>
    <contour>
      <point x="361" y="469" type="curve" smooth="yes"/>
      <point x="273" y="469"/>
      <point x="207" y="516"/>
      <point x="207" y="585" type="curve" smooth="yes"/>
      <point x="207" y="654"/>
      <point x="274" y="701"/>
      <point x="359" y="701" type="curve" smooth="yes"/>
      <point x="446" y="701"/>
      <point x="515" y="654"/>
      <point x="515" y="584" type="curve" smooth="yes"/>
      <point x="515" y="514"/>
      <point x="446" y="469"/>
    </contour>
  </outline>
</glyph>
<glyph name="plusminus" format="2">
  <advance width="720"/>
  <unicode hex="00B1"/>
  <outline>
    <contour>
      <point x="347" y="123" type="line"/>
      <point x="373" y="123" type="line"/>
      <point x="373" y="341" type="line"/>
      <point x="657" y="341" type="line"/>
      <point x="657" y="365" type="line"/>
      <point x="373" y="365" type="line"/>
      <point x="373" y="583" type="line"/>
      <point x="347" y="583" type="line"/>
      <point x="347" y="365" type="line"/>
      <point x="63" y="365" type="line"/>
      <point x="63" y="341" type="line"/>
      <point x="347" y="341" type="line"/>
    </contour>
    <contour>
      <point x="62" y="0" type="line"/>
      <point x="655" y="0" type="line"/>
      <point x="655" y="25" type="line"/>
      <point x="62" y="25" type="line"/>
    </contour>
  </outline>
</glyph>
<glyph name="twosuperior" format="2">
  <advance width="720"/>
  <unicode hex="00B2"/>
  <outline>
    <contour>
      <point x="175" y="416" type="line"/>
      <point x="535" y="416" type="line"/>
      <point x="535" y="440" type="line"/>
      <point x="217" y="440" type="line"/>
      <point x="352" y="545" type="line" smooth="yes"/>
      <point x="456" y="627"/>
      <point x="520" y="672"/>
      <point x="520" y="741" type="curve" smooth="yes"/>
      <point x="520" y="807"/>
      <point x="461" y="855"/>
      <point x="357" y="855" type="curve" smooth="yes"/>
      <point x="297" y="855"/>
      <point x="242" y="838"/>
      <point x="196" y="809" type="curve"/>
      <point x="210" y="789" type="line"/>
      <point x="259" y="817"/>
      <point x="303" y="830"/>
      <point x="357" y="830" type="curve" smooth="yes"/>
      <point x="445" y="830"/>
      <point x="490" y="793"/>
      <point x="490" y="741" type="curve" smooth="yes"/>
      <point x="490" y="681"/>
      <point x="426" y="634"/>
      <point x="334" y="562" type="curve" smooth="yes"/>
      <point x="175" y="437" type="line"/>
    </contour>
  </outline>
</glyph>
<glyph name="threesuperior" format="2">
  <advance width="720"/>
  <unicode hex="00B3"/>
  <outline>
    <contour>
      <point x="332" y="412" type="curve" smooth="yes"/>
      <point x="456" y="412"/>
      <point x="531" y="457"/>
      <point x="531" y="537" type="curve" smooth="yes"/>
      <point x="531" y="594"/>
      <point x="494" y="629"/>
      <point x="417" y="642" type="curve"/>
      <point x="417" y="644" type="line"/>
      <point x="475" y="654"/>
      <point x="518" y="691"/>
      <point x="518" y="747" type="curve" smooth="yes"/>
      <point x="518" y="813"/>
      <point x="455" y="851"/>
      <point x="356" y="851" type="curve" smooth="yes"/>
      <point x="291" y="851"/>
      <point x="232" y="835"/>
      <point x="185" y="810" type="curve"/>
      <point x="196" y="789" type="line"/>
      <point x="244" y="811"/>
      <point x="293" y="826"/>
      <point x="355" y="826" type="curve" smooth="yes"/>
      <point x="442" y="826"/>
      <point x="490" y="797"/>
      <point x="490" y="745" type="curve" smooth="yes"/>
      <point x="490" y="688"/>
      <point x="435" y="652"/>
      <point x="341" y="652" type="curve" smooth="yes"/>
      <point x="256" y="652" type="line"/>
      <point x="256" y="629" type="line"/>
      <point x="341" y="629" type="line" smooth="yes"/>
      <point x="450" y="629"/>
      <point x="503" y="598"/>
      <point x="503" y="538" type="curve" smooth="yes"/>
      <point x="503" y="474"/>
      <point x="443" y="436"/>
      <point x="331" y="436" type="curve" smooth="yes"/>
      <point x="274" y="436"/>
      <point x="223" y="447"/>
      <point x="173" y="464" type="curve"/>
      <point x="173" y="436" type="line"/>
      <point x="216" y="421"/>
      <point x="274" y="412"/>
    </contour>
  </outline>
</glyph>
<glyph name="acute" format="2">
  <advance width="720"/>
  <unicode hex="00B4"/>
  <outline>
    <contour>
      <point x="330" y="606" type="line"/>
      <point x="352" y="606" type="line"/>
      <point x="421" y="649"/>
      <point x="498" y="713"/>
      <point x="546" y="759" type="curve"/>
      <point x="546" y="766" type="line"/>
      <point x="516" y="766" type="line"/>
      <point x="476" y="721"/>
      <point x="391" y="655"/>
      <point x="330" y="613" type="curve"/>
    </contour>
  </outline>
</glyph>
<glyph name="paragraph" format="2">
  <advance width="720"/>
  <unicode hex="00B6"/>
  <outline>
    <contour>
      <point x="331" y="-127" type="line"/>
      <point x="360" y="-127" type="line"/>
      <point x="360" y="734" type="line"/>
      <point x="558" y="734" type="line"/>
      <point x="558" y="-127" type="line"/>
      <point x="586" y="-127" type="line"/>
      <point x="586" y="760" type="line"/>
      <point x="283" y="760" type="line" smooth="yes"/>
      <point x="138" y="760"/>
      <point x="80" y="684"/>
      <point x="80" y="556" type="curve" smooth="yes"/>
      <point x="80" y="437"/>
      <point x="133" y="346"/>
      <point x="257" y="346" type="curve" smooth="yes"/>
      <point x="287" y="346"/>
      <point x="306" y="349"/>
      <point x="331" y="355" type="curve"/>
    </contour>
  </outline>
</glyph>
<glyph name="cedilla" format="2">
  <advance width="720"/>
  <unicode hex="00B8"/>
  <outline>
    <contour>
      <point x="343" y="-240" type="curve" smooth="yes"/>
      <point x="434" y="-240"/>
      <point x="495" y="-203"/>
      <point x="495" y="-146" type="curve" smooth="yes"/>
      <point x="495" y="-96"/>
      <point x="449" y="-68"/>
      <point x="374" y="-65" type="curve"/>
      <point x="417" y="0" type="line"/>
      <point x="387" y="0" type="line"/>
      <point x="331" y="-84" type="line"/>
      <point x="426" y="-85"/>
      <point x="468" y="-103"/>
      <point x="468" y="-147" type="curve" smooth="yes"/>
      <point x="468" y="-191"/>
      <point x="423" y="-216"/>
      <point x="339" y="-216" type="curve" smooth="yes"/>
      <point x="321" y="-216"/>
      <point x="298" y="-215"/>
      <point x="276" y="-210" type="curve"/>
      <point x="276" y="-234" type="line"/>
      <point x="296" y="-238"/>
      <point x="321" y="-240"/>
    </contour>
  </outline>
</glyph>
<glyph name="onesuperior" format="2">
  <advance width="720"/>
  <unicode hex="00B9"/>
  <outline>
    <contour>
      <point x="359" y="416" type="line"/>
      <point x="389" y="416" type="line"/>
      <point x="389" y="844" type="line"/>
      <point x="368" y="844" type="line"/>
      <point x="191" y="770" type="line"/>
      <point x="202" y="749" type="line"/>
      <point x="266" y="776" type="line" smooth="yes"/>
      <point x="308" y="793"/>
      <point x="331" y="801"/>
      <point x="361" y="815" type="curve"/>
      <point x="359" y="780"/>
      <point x="359" y="736"/>
      <point x="359" y="699" type="curve" smooth="yes"/>
    </contour>
    <contour>
      <point x="217" y="416" type="line"/>
      <point x="523" y="416" type="line"/>
      <point x="523" y="435" type="line"/>
      <point x="388" y="440" type="line"/>
      <point x="359" y="440" type="line"/>
      <point x="217" y="435" type="line"/>
    </contour>
  </outline>
</glyph>
<glyph name="ordmasculine" format="2">
  <advance width="720"/>
  <unicode hex="00BA"/>
  <outline>
    <contour>
      <point x="362" y="395" type="curve" smooth="yes"/>
      <point x="477" y="395"/>
      <point x="531" y="466"/>
      <point x="531" y="560" type="curve" smooth="yes"/>
      <point x="531" y="652"/>
      <point x="482" y="724"/>
      <point x="365" y="724" type="curve" smooth="yes"/>
      <point x="259" y="724"/>
      <point x="193" y="660"/>
      <point x="193" y="559" type="curve" smooth="yes"/>
      <point x="193" y="465"/>
      <point x="249" y="395"/>
    </contour>
    <contour>
      <point x="361" y="418" type="curve" smooth="yes"/>
      <point x="269" y="418"/>
      <point x="222" y="477"/>
      <point x="222" y="559" type="curve" smooth="yes"/>
      <point x="222" y="647"/>
      <point x="278" y="701"/>
      <point x="365" y="701" type="curve" smooth="yes"/>
      <point x="460" y="701"/>
      <point x="501" y="636"/>
      <point x="501" y="559" type="curve" smooth="yes"/>
      <point x="501" y="478"/>
      <point x="457" y="418"/>
    </contour>
  </outline>
</glyph>
<glyph name="AE" format="2">
  <advance width="720"/>
  <unicode hex="00C6"/>
  <anchor x="361" y="0" name="bottom"/>
  <anchor x="442" y="714" name="top"/>
  <outline>
    <contour>
      <point x="4" y="0" type="line"/>
      <point x="34" y="0" type="line"/>
      <point x="349" y="689" type="line"/>
      <point x="387" y="689" type="line"/>
      <point x="387" y="0" type="line"/>
      <point x="727" y="0" type="line"/>
      <point x="727" y="25" type="line"/>
      <point x="413" y="25" type="line"/>
      <point x="413" y="364" type="line"/>
      <point x="707" y="364" type="line"/>
      <point x="707" y="389" type="line"/>
      <point x="413" y="389" type="line"/>
      <point x="413" y="689" type="line"/>
      <point x="727" y="689" type="line"/>
      <point x="727" y="714" type="line"/>
      <point x="334" y="714" type="line"/>
    </contour>
    <contour>
      <point x="153" y="275" type="line"/>
      <point x="400" y="275" type="line"/>
      <point x="408" y="300" type="line"/>
      <point x="156" y="300" type="line"/>
    </contour>
  </outline>
</glyph>
<glyph name="Eth" format="2">
  <advance width="720"/>
  <unicode hex="00D0"/>
  <anchor x="361" y="0" name="bottom"/>
  <anchor x="361" y="714" name="top"/>
  <anchor x="734" y="714" name="topright"/>
  <anchor x="332" y="357" name="center"/>
  <outline>
    <contour>
      <point x="-22" y="353" type="line"/>
      <point x="334" y="353" type="line"/>
      <point x="334" y="378" type="line"/>
      <point x="-22" y="378" type="line"/>
    </contour>
    <component base="D" xOffset="-10"/>
  </outline>
</glyph>
<glyph name="multiply" format="2">
  <advance width="720"/>
  <unicode hex="00D7"/>
  <outline>
    <contour>
      <point x="100" y="146" type="line"/>
      <point x="358" y="336" type="line"/>
      <point x="614" y="146" type="line"/>
      <point x="632" y="163" type="line"/>
      <point x="375" y="353" type="line"/>
      <point x="633" y="544" type="line"/>
      <point x="614" y="560" type="line"/>
      <point x="358" y="370" type="line"/>
      <point x="101" y="560" type="line"/>
      <point x="82" y="543" type="line"/>
      <point x="339" y="353" type="line"/>
      <point x="82" y="163" type="line"/>
    </contour>
  </outline>
</glyph>
<glyph name="Oslash" format="2">
  <advance width="720"/>
  <unicode hex="00D8"/>
  <anchor x="361" y="0" name="bottom"/>
  <anchor x="361" y="714" name="top"/>
  <anchor x="-18" y="714" name="topleft"/>
  <anchor x="342" y="10" name="ogonek"/>
  <anchor x="339" y="357" name="center"/>
  <anchor x="722" y="714" name="topright"/>
  <outline>
    <contour>
      <point x="81" y="-28" type="line"/>
      <point x="648" y="724" type="line"/>
      <point x="625" y="737" type="line"/>
      <point x="57" y="-15" type="line"/>
    </contour>
    <component base="O" xOffset="-22"/>
  </outline>
</glyph>
<glyph name="Thorn" format="2">
  <advance width="720"/>
  <unicode hex="00DE"/>
  <anchor x="361" y="0" name="bottom"/>
  <anchor x="361" y="714" name="top"/>
  <outline>
    <contour>
      <point x="127" y="0" type="line"/>
      <point x="153" y="0" type="line"/>
      <point x="153" y="166" type="line"/>
      <point x="337" y="166" type="line" smooth="yes"/>
      <point x="539" y="166"/>
      <point x="668" y="229"/>
      <point x="668" y="375" type="curve" smooth="yes"/>
      <point x="668" y="517"/>
      <point x="562" y="575"/>
      <point x="363" y="575" type="curve" smooth="yes"/>
      <point x="153" y="575" type="line"/>
      <point x="153" y="714" type="line"/>
      <point x="127" y="714" type="line"/>
    </contour>
    <contour>
      <point x="153" y="191" type="line"/>
      <point x="153" y="550" type="line"/>
      <point x="353" y="550" type="line" smooth="yes"/>
      <point x="552" y="550"/>
      <point x="640" y="501"/>
      <point x="640" y="376" type="curve" smooth="yes"/>
      <point x="640" y="239"/>
      <point x="519" y="191"/>
      <point x="331" y="191" type="curve" smooth="yes"/>
    </contour>
  </outline>
</glyph>
<glyph name="germandbls" format="2">
  <advance width="720"/>
  <unicode hex="00DF"/>
  <anchor x="361" y="0" name="bottom"/>
  <anchor x="361" y="765" name="top"/>
  <outline>
    <contour>
      <point x="432" y="-10" type="curve" smooth="yes"/>
      <point x="577" y="-10"/>
      <point x="643" y="57"/>
      <point x="643" y="134" type="curve" smooth="yes"/>
      <point x="643" y="223"/>
      <point x="580" y="260"/>
      <point x="508" y="301" type="curve" smooth="yes"/>
      <point x="435" y="341"/>
      <point x="387" y="367"/>
      <point x="387" y="421" type="curve" smooth="yes"/>
      <point x="387" y="524"/>
      <point x="561" y="514"/>
      <point x="561" y="638" type="curve" smooth="yes"/>
      <point x="561" y="713"/>
      <point x="495" y="765"/>
      <point x="368" y="765" type="curve" smooth="yes"/>
      <point x="209" y="765"/>
      <point x="126" y="693"/>
      <point x="126" y="565" type="curve" smooth="yes"/>
      <point x="126" y="0" type="line"/>
      <point x="152" y="0" type="line"/>
      <point x="152" y="559" type="line" smooth="yes"/>
      <point x="152" y="676"/>
      <point x="218" y="740"/>
      <point x="368" y="740" type="curve" smooth="yes"/>
      <point x="478" y="740"/>
      <point x="534" y="700"/>
      <point x="534" y="638" type="curve" smooth="yes"/>
      <point x="534" y="526"/>
      <point x="358" y="538"/>
      <point x="358" y="421" type="curve" smooth="yes"/>
      <point x="358" y="354"/>
      <point x="424" y="324"/>
      <point x="495" y="282" type="curve" smooth="yes"/>
      <point x="560" y="244"/>
      <point x="615" y="209"/>
      <point x="615" y="134" type="curve" smooth="yes"/>
      <point x="615" y="63"/>
      <point x="551" y="15"/>
      <point x="432" y="15" type="curve" smooth="yes"/>
      <point x="370" y="15"/>
      <point x="320" y="25"/>
      <point x="264" y="44" type="curve"/>
      <point x="264" y="16" type="line"/>
      <point x="308" y="2"/>
      <point x="353" y="-10"/>
    </contour>
  </outline>
</glyph>
<glyph name="ae" format="2">
  <advance width="720"/>
  <unicode hex="00E6"/>
  <anchor x="361" y="0" name="bottom"/>
  <anchor x="361" y="528" name="top"/>
  <outline>
    <contour>
      <point x="178" y="-10" type="curve" smooth="yes"/>
      <point x="290" y="-10"/>
      <point x="345" y="53"/>
      <point x="360" y="139" type="curve"/>
      <point x="383" y="53"/>
      <point x="434" y="-10"/>
      <point x="554" y="-10" type="curve" smooth="yes"/>
      <point x="595" y="-10"/>
      <point x="632" y="-1"/>
      <point x="675" y="22" type="curve"/>
      <point x="675" y="50" type="line"/>
      <point x="619" y="21"/>
      <point x="586" y="15"/>
      <point x="556" y="15" type="curve" smooth="yes"/>
      <point x="428" y="15"/>
      <point x="369" y="110"/>
      <point x="369" y="270" type="curve"/>
      <point x="698" y="270" type="line"/>
      <point x="698" y="297" type="line" smooth="yes"/>
      <point x="698" y="448"/>
      <point x="652" y="538"/>
      <point x="534" y="538" type="curve" smooth="yes"/>
      <point x="440" y="538"/>
      <point x="384" y="480"/>
      <point x="365" y="395" type="curve"/>
      <point x="358" y="491"/>
      <point x="300" y="537"/>
      <point x="199" y="537" type="curve" smooth="yes"/>
      <point x="143" y="537"/>
      <point x="94" y="523"/>
      <point x="49" y="502" type="curve"/>
      <point x="59" y="478" type="line"/>
      <point x="112" y="503"/>
      <point x="158" y="512"/>
      <point x="198" y="512" type="curve" smooth="yes"/>
      <point x="290" y="512"/>
      <point x="341" y="466"/>
      <point x="340" y="360" type="curve" smooth="yes"/>
      <point x="340" y="296" type="line"/>
      <point x="273" y="292" type="line" smooth="yes"/>
      <point x="117" y="282"/>
      <point x="21" y="237"/>
      <point x="21" y="128" type="curve" smooth="yes"/>
      <point x="21" y="48"/>
      <point x="69" y="-10"/>
    </contour>
    <contour>
      <point x="175" y="15" type="curve" smooth="yes"/>
      <point x="90" y="15"/>
      <point x="51" y="62"/>
      <point x="51" y="127" type="curve" smooth="yes"/>
      <point x="51" y="216"/>
      <point x="123" y="260"/>
      <point x="269" y="268" type="curve" smooth="yes"/>
      <point x="340" y="271" type="line"/>
      <point x="340" y="200" type="line" smooth="yes"/>
      <point x="340" y="106"/>
      <point x="292" y="15"/>
    </contour>
    <contour>
      <point x="370" y="295" type="line"/>
      <point x="378" y="428"/>
      <point x="434" y="513"/>
      <point x="534" y="513" type="curve" smooth="yes"/>
      <point x="629" y="513"/>
      <point x="672" y="436"/>
      <point x="672" y="295" type="curve"/>
    </contour>
  </outline>
</glyph>
<glyph name="eth" format="2">
  <advance width="720"/>
  <unicode hex="00F0"/>
  <anchor x="361" y="0" name="bottom"/>
  <anchor x="361" y="264" name="center"/>
  <anchor x="361" y="757" name="top"/>
  <anchor x="718" y="760" name="topright"/>
  <outline>
    <contour>
      <point x="361" y="-10" type="curve" smooth="yes"/>
      <point x="555" y="-10"/>
      <point x="652" y="93"/>
      <point x="652" y="266" type="curve" smooth="yes"/>
      <point x="652" y="444"/>
      <point x="551" y="660"/>
      <point x="266" y="757" type="curve"/>
      <point x="252" y="737" type="line"/>
      <point x="444" y="675"/>
      <point x="570" y="543"/>
      <point x="611" y="381" type="curve"/>
      <point x="609" y="381" type="line"/>
      <point x="567" y="427"/>
      <point x="488" y="465"/>
      <point x="372" y="465" type="curve" smooth="yes"/>
      <point x="198" y="465"/>
      <point x="70" y="372"/>
      <point x="70" y="223" type="curve" smooth="yes"/>
      <point x="70" y="86"/>
      <point x="175" y="-10"/>
    </contour>
    <contour>
      <point x="356" y="15" type="curve" smooth="yes"/>
      <point x="209" y="15"/>
      <point x="97" y="91"/>
      <point x="97" y="224" type="curve" smooth="yes"/>
      <point x="97" y="359"/>
      <point x="215" y="440"/>
      <point x="377" y="440" type="curve" smooth="yes"/>
      <point x="558" y="440"/>
      <point x="625" y="345"/>
      <point x="625" y="250" type="curve" smooth="yes"/>
      <point x="625" y="109"/>
      <point x="521" y="15"/>
    </contour>
    <contour>
      <point x="245" y="584" type="line"/>
      <point x="567" y="732" type="line"/>
      <point x="553" y="753" type="line"/>
      <point x="231" y="604" type="line"/>
    </contour>
  </outline>
</glyph>
<glyph name="divide" format="2">
  <advance width="720"/>
  <unicode hex="00F7"/>
  <outline>
    <contour>
      <point x="64" y="341" type="line"/>
      <point x="659" y="341" type="line"/>
      <point x="659" y="365" type="line"/>
      <point x="64" y="365" type="line"/>
    </contour>
    <contour>
      <point x="360" y="143" type="curve" smooth="yes"/>
      <point x="390" y="143"/>
      <point x="392" y="158"/>
      <point x="392" y="175" type="curve" smooth="yes"/>
      <point x="392" y="192"/>
      <point x="390" y="207"/>
      <point x="360" y="207" type="curve" smooth="yes"/>
      <point x="335" y="207"/>
      <point x="332" y="192"/>
      <point x="332" y="175" type="curve" smooth="yes"/>
      <point x="332" y="158"/>
      <point x="335" y="143"/>
    </contour>
    <contour>
      <point x="360" y="499" type="curve" smooth="yes"/>
      <point x="390" y="499"/>
      <point x="392" y="513"/>
      <point x="392" y="531" type="curve" smooth="yes"/>
      <point x="392" y="547"/>
      <point x="390" y="563"/>
      <point x="360" y="563" type="curve" smooth="yes"/>
      <point x="335" y="563"/>
      <point x="332" y="547"/>
      <point x="332" y="531" type="curve" smooth="yes"/>
      <point x="332" y="513"/>
      <point x="335" y="499"/>
    </contour>
  </outline>
</glyph>
<glyph name="oslash" format="2">
  <advance width="720"/>
  <unicode hex="00F8"/>
  <anchor x="361" y="0" name="bottom"/>
  <anchor x="361" y="528" name="top"/>
  <anchor x="339" y="11" name="ogonek"/>
  <anchor x="696" y="528" name="topright"/>
  <anchor x="339" y="264" name="center"/>
  <outline>
    <contour>
      <point x="79" y="-34" type="line"/>
      <point x="674" y="544" type="line"/>
      <point x="654" y="559" type="line"/>
      <point x="59" y="-19" type="line"/>
    </contour>
    <component base="o" xOffset="-22"/>
  </outline>
</glyph>
<glyph name="thorn" format="2">
  <advance width="720"/>
  <unicode hex="00FE"/>
  <anchor x="386" y="-240" name="bottom"/>
  <anchor x="386" y="714" name="top"/>
  <outline>
    <contour>
      <point x="115" y="-240" type="line"/>
      <point x="141" y="-240" type="line"/>
      <point x="141" y="-8" type="line" smooth="yes"/>
      <point x="141" y="32"/>
      <point x="141" y="76"/>
      <point x="139" y="117" type="curve"/>
      <point x="141" y="117" type="line"/>
      <point x="167" y="49"/>
      <point x="242" y="-10"/>
      <point x="379" y="-10" type="curve" smooth="yes"/>
      <point x="552" y="-10"/>
      <point x="652" y="88"/>
      <point x="652" y="271" type="curve" smooth="yes"/>
      <point x="652" y="444"/>
      <point x="564" y="537"/>
      <point x="395" y="537" type="curve" smooth="yes"/>
      <point x="248" y="537"/>
      <point x="167" y="470"/>
      <point x="140" y="400" type="curve"/>
      <point x="137" y="400" type="line"/>
      <point x="140" y="427"/>
      <point x="141" y="455"/>
      <point x="141" y="482" type="curve" smooth="yes"/>
      <point x="141" y="714" type="line"/>
      <point x="115" y="714" type="line"/>
    </contour>
    <contour>
      <point x="383" y="15" type="curve" smooth="yes"/>
      <point x="239" y="15"/>
      <point x="141" y="94"/>
      <point x="141" y="257" type="curve" smooth="yes"/>
      <point x="141" y="269" type="line" smooth="yes"/>
      <point x="141" y="420"/>
      <point x="234" y="512"/>
      <point x="397" y="512" type="curve" smooth="yes"/>
      <point x="548" y="512"/>
      <point x="626" y="433"/>
      <point x="626" y="271" type="curve" smooth="yes"/>
      <point x="626" y="97"/>
      <point x="534" y="15"/>
    </contour>
  </outline>
</glyph>
<glyph name="dcaron" format="2">
  <advance width="720"/>
  <unicode hex="010F"/>
  <anchor x="317" y="0" name="bottom"/>
  <anchor x="315" y="264" name="center"/>
  <anchor x="386" y="760" name="top"/>
  <anchor x="708" y="760" name="topright"/>
  <outline>
    <contour>
      <point x="302" y="-10" type="curve" smooth="yes"/>
      <point x="429" y="-10"/>
      <point x="495" y="42"/>
      <point x="529" y="112" type="curve"/>
      <point x="531" y="112" type="line"/>
      <point x="533" y="0" type="line"/>
      <point x="555" y="0" type="line"/>
      <point x="555" y="760" type="line"/>
      <point x="529" y="760" type="line"/>
      <point x="529" y="537" type="line" smooth="yes"/>
      <point x="529" y="498"/>
      <point x="528" y="455"/>
      <point x="531" y="412" type="curve"/>
      <point x="529" y="412" type="line"/>
      <point x="502" y="478"/>
      <point x="438" y="537"/>
      <point x="311" y="537" type="curve" smooth="yes"/>
      <point x="150" y="537"/>
      <point x="57" y="438"/>
      <point x="57" y="254" type="curve" smooth="yes"/>
      <point x="57" y="85"/>
      <point x="134" y="-10"/>
    </contour>
    <contour>
      <point x="304" y="15" type="curve" smooth="yes"/>
      <point x="156" y="15"/>
      <point x="84" y="94"/>
      <point x="84" y="255" type="curve" smooth="yes"/>
      <point x="84" y="427"/>
      <point x="165" y="512"/>
      <point x="311" y="512" type="curve" smooth="yes"/>
      <point x="456" y="512"/>
      <point x="529" y="427"/>
      <point x="529" y="273" type="curve" smooth="yes"/>
      <point x="529" y="258" type="line" smooth="yes"/>
      <point x="529" y="106"/>
      <point x="465" y="15"/>
    </contour>
    <component base="caroncommaaccent" xOffset="320" yOffset="34"/>
  </outline>
</glyph>
<glyph name="eogonek" format="2">
  <advance width="720"/>
  <unicode hex="0119"/>
  <anchor x="384" y="-217" name="bottom"/>
  <anchor x="361" y="528" name="top"/>
  <anchor x="360" y="10" name="ogonek"/>
  <anchor x="696" y="528" name="topright"/>
  <outline>
    <contour>
      <point x="546" y="-217" type="curve" smooth="yes"/>
      <point x="571" y="-217"/>
      <point x="596" y="-213"/>
      <point x="609" y="-209" type="curve"/>
      <point x="609" y="-185" type="line"/>
      <point x="595" y="-189"/>
      <point x="569" y="-192"/>
      <point x="549" y="-192" type="curve" smooth="yes"/>
      <point x="492" y="-192"/>
      <point x="467" y="-170"/>
      <point x="467" y="-132" type="curve" smooth="yes"/>
      <point x="467" y="-61"/>
      <point x="562" y="-15"/>
      <point x="627" y="23" type="curve"/>
      <point x="608" y="34" type="line"/>
      <point x="517" y="-16"/>
      <point x="439" y="-65"/>
      <point x="439" y="-135" type="curve" smooth="yes"/>
      <point x="439" y="-191"/>
      <point x="487" y="-217"/>
    </contour>
    <component base="e" xOffset="-22"/>
  </outline>
</glyph>
<glyph name="Hbar" format="2">
  <advance width="720"/>
  <unicode hex="0126"/>
  <anchor x="361" y="0" name="bottom"/>
  <anchor x="361" y="357" name="center"/>
  <anchor x="361" y="714" name="top"/>
  <anchor x="4" y="714" name="topleft"/>
  <outline>
    <contour>
      <point x="-22" y="532" type="line"/>
      <point x="744" y="532" type="line"/>
      <point x="744" y="557" type="line"/>
      <point x="-22" y="557" type="line"/>
    </contour>
    <contour>
      <point x="99" y="0" type="line"/>
      <point x="125" y="0" type="line"/>
      <point x="125" y="363" type="line"/>
      <point x="597" y="363" type="line"/>
      <point x="597" y="0" type="line"/>
      <point x="623" y="0" type="line"/>
      <point x="623" y="714" type="line"/>
      <point x="597" y="714" type="line"/>
      <point x="597" y="388" type="line"/>
      <point x="125" y="388" type="line"/>
      <point x="125" y="714" type="line"/>
      <point x="99" y="714" type="line"/>
    </contour>
  </outline>
</glyph>
<glyph name="hbar" format="2">
  <advance width="720"/>
  <unicode hex="0127"/>
  <anchor x="361" y="0" name="bottom"/>
  <anchor x="361" y="264" name="center"/>
  <anchor x="124" y="760" name="top"/>
  <outline>
    <contour>
      <point x="-22" y="631" type="line"/>
      <point x="416" y="631" type="line"/>
      <point x="416" y="656" type="line"/>
      <point x="-22" y="656" type="line"/>
    </contour>
    <contour>
      <point x="115" y="0" type="line"/>
      <point x="141" y="0" type="line"/>
      <point x="141" y="301" type="line" smooth="yes"/>
      <point x="141" y="446"/>
      <point x="241" y="512"/>
      <point x="387" y="512" type="curve" smooth="yes"/>
      <point x="512" y="512"/>
      <point x="588" y="463"/>
      <point x="588" y="347" type="curve" smooth="yes"/>
      <point x="588" y="0" type="line"/>
      <point x="614" y="0" type="line"/>
      <point x="614" y="352" type="line" smooth="yes"/>
      <point x="614" y="478"/>
      <point x="529" y="537"/>
      <point x="385" y="537" type="curve" smooth="yes"/>
      <point x="237" y="537"/>
      <point x="165" y="478"/>
      <point x="141" y="414" type="curve"/>
      <point x="138" y="414" type="line"/>
      <point x="140" y="444"/>
      <point x="141" y="464"/>
      <point x="141" y="495" type="curve" smooth="yes"/>
      <point x="141" y="760" type="line"/>
      <point x="115" y="760" type="line"/>
    </contour>
  </outline>
</glyph>
<glyph name="idotless" format="2">
  <advance width="722"/>
  <unicode hex="0131"/>
  <anchor x="361" y="0" name="bottom"/>
  <anchor x="668" y="10" name="ogonek"/>
  <anchor x="361" y="528" name="top"/>
  <outline>
    <contour>
      <point x="108" y="0" type="line"/>
      <point x="651" y="0" type="line"/>
      <point x="651" y="21" type="line"/>
      <point x="399" y="25" type="line"/>
      <point x="399" y="528" type="line"/>
      <point x="132" y="528" type="line"/>
      <point x="132" y="507" type="line"/>
      <point x="373" y="503" type="line"/>
      <point x="373" y="25" type="line"/>
      <point x="108" y="21" type="line"/>
    </contour>
  </outline>
</glyph>
<glyph name="IJ" format="2">
  <advance width="720"/>
  <unicode hex="0132"/>
  <anchor x="360" y="0" name="bottom"/>
  <anchor x="-22" y="0" name="caret_1"/>
  <anchor x="360" y="714" name="top"/>
  <anchor x="4" y="714" name="topleft"/>
  <outline>
    <contour>
      <point x="347" y="-15" type="curve" smooth="yes"/>
      <point x="530" y="-15"/>
      <point x="589" y="62"/>
      <point x="589" y="191" type="curve" smooth="yes"/>
      <point x="589" y="714" type="line"/>
      <point x="563" y="714" type="line"/>
      <point x="563" y="199" type="line" smooth="yes"/>
      <point x="563" y="74"/>
      <point x="510" y="9"/>
      <point x="349" y="9" type="curve" smooth="yes"/>
      <point x="258" y="9"/>
      <point x="180" y="32"/>
      <point x="137" y="55" type="curve"/>
      <point x="137" y="27" type="line"/>
      <point x="185" y="3"/>
      <point x="260" y="-15"/>
    </contour>
    <contour>
      <point x="130" y="147" type="line"/>
      <point x="156" y="147" type="line"/>
      <point x="156" y="714" type="line"/>
      <point x="130" y="714" type="line"/>
    </contour>
  </outline>
</glyph>
<glyph name="ij" format="2">
  <advance width="720"/>
  <unicode hex="0133"/>
  <anchor x="364" y="-248" name="bottom"/>
  <anchor x="-22" y="0" name="caret_1"/>
  <anchor x="363" y="731" name="top"/>
  <outline>
    <contour>
      <point x="333" y="-248" type="curve" smooth="yes"/>
      <point x="474" y="-248"/>
      <point x="559" y="-196"/>
      <point x="559" y="-88" type="curve" smooth="yes"/>
      <point x="559" y="528" type="line"/>
      <point x="533" y="528" type="line"/>
      <point x="533" y="-81" type="line" smooth="yes"/>
      <point x="533" y="-168"/>
      <point x="473" y="-222"/>
      <point x="337" y="-222" type="curve" smooth="yes"/>
      <point x="271" y="-222"/>
      <point x="192" y="-210"/>
      <point x="150" y="-194" type="curve"/>
      <point x="150" y="-221" type="line"/>
      <point x="186" y="-234"/>
      <point x="255" y="-248"/>
    </contour>
    <contour>
      <point x="165" y="0" type="line"/>
      <point x="191" y="0" type="line"/>
      <point x="191" y="528" type="line"/>
      <point x="165" y="528" type="line"/>
    </contour>
    <contour>
      <point x="179" y="657" type="curve" smooth="yes"/>
      <point x="213" y="657"/>
      <point x="215" y="676"/>
      <point x="215" y="694" type="curve" smooth="yes"/>
      <point x="215" y="714"/>
      <point x="210" y="731"/>
      <point x="178" y="731" type="curve" smooth="yes"/>
      <point x="147" y="731"/>
      <point x="141" y="713"/>
      <point x="141" y="694" type="curve" smooth="yes"/>
      <point x="141" y="674"/>
      <point x="148" y="657"/>
    </contour>
    <contour>
      <point x="546" y="657" type="curve" smooth="yes"/>
      <point x="580" y="657"/>
      <point x="581" y="676"/>
      <point x="581" y="694" type="curve" smooth="yes"/>
      <point x="581" y="714"/>
      <point x="576" y="731"/>
      <point x="545" y="731" type="curve" smooth="yes"/>
      <point x="513" y="731"/>
      <point x="508" y="713"/>
      <point x="508" y="694" type="curve" smooth="yes"/>
      <point x="508" y="674"/>
      <point x="515" y="657"/>
    </contour>
  </outline>
</glyph>
<glyph name="Lslash" format="2">
  <advance width="720"/>
  <unicode hex="0141"/>
  <anchor x="459" y="0" name="bottom"/>
  <anchor x="232" y="714" name="top"/>
  <anchor x="518" y="714" name="topright"/>
  <anchor x="361" y="357" name="center"/>
  <outline>
    <contour>
      <point x="65" y="309" type="line"/>
      <point x="529" y="504" type="line"/>
      <point x="529" y="526" type="line"/>
      <point x="65" y="331" type="line"/>
    </contour>
    <component base="L"/>
  </outline>
</glyph>
<glyph name="lslash" format="2">
  <advance width="720"/>
  <unicode hex="0142"/>
  <anchor x="361" y="0" name="bottom"/>
  <anchor x="361" y="760" name="top"/>
  <anchor x="595" y="760" name="topright"/>
  <anchor x="376" y="378" name="center"/>
  <outline>
    <contour>
      <point x="151" y="309" type="line"/>
      <point x="615" y="504" type="line"/>
      <point x="615" y="526" type="line"/>
      <point x="151" y="331" type="line"/>
    </contour>
    <component base="l"/>
  </outline>
</glyph>
<glyph name="napostrophe" format="2">
  <advance width="720"/>
  <unicode hex="0149"/>
  <anchor x="380" y="0" name="bottom"/>
  <anchor x="373" y="528" name="top"/>
  <outline>
    <contour>
      <point x="140" y="0" type="line"/>
      <point x="166" y="0" type="line"/>
      <point x="166" y="303" type="line" smooth="yes"/>
      <point x="166" y="446"/>
      <point x="264" y="512"/>
      <point x="400" y="512" type="curve" smooth="yes"/>
      <point x="517" y="512"/>
      <point x="588" y="463"/>
      <point x="588" y="348" type="curve" smooth="yes"/>
      <point x="588" y="0" type="line"/>
      <point x="614" y="0" type="line"/>
      <point x="614" y="356" type="line" smooth="yes"/>
      <point x="614" y="479"/>
      <point x="533" y="537"/>
      <point x="398" y="537" type="curve" smooth="yes"/>
      <point x="258" y="537"/>
      <point x="195" y="478"/>
      <point x="167" y="417" type="curve"/>
      <point x="165" y="417" type="line"/>
      <point x="162" y="528" type="line"/>
      <point x="140" y="528" type="line"/>
    </contour>
    <component base="quoteright" xOffset="-346"/>
  </outline>
</glyph>
<glyph name="Eng" format="2">
  <advance width="720"/>
  <unicode hex="014A"/>
  <anchor x="421" y="-174" name="bottom"/>
  <anchor x="390" y="714" name="top"/>
  <anchor x="744" y="714" name="topright"/>
  <outline>
    <contour>
      <point x="438" y="-174" type="curve" smooth="yes"/>
      <point x="561" y="-174"/>
      <point x="623" y="-112"/>
      <point x="623" y="2" type="curve" smooth="yes"/>
      <point x="623" y="28" type="line"/>
      <point x="595" y="28" type="line"/>
      <point x="595" y="4" type="line" smooth="yes"/>
      <point x="595" y="-101"/>
      <point x="542" y="-149"/>
      <point x="437" y="-149" type="curve" smooth="yes"/>
      <point x="399" y="-149"/>
      <point x="361" y="-143"/>
      <point x="335" y="-136" type="curve"/>
      <point x="335" y="-161" type="line"/>
      <point x="354" y="-168"/>
      <point x="398" y="-174"/>
    </contour>
    <component base="N"/>
  </outline>
</glyph>
<glyph name="eng" format="2">
  <advance width="720"/>
  <unicode hex="014B"/>
  <anchor x="378" y="-240" name="bottom"/>
  <anchor x="370" y="528" name="top"/>
  <anchor x="718" y="528" name="topright"/>
  <outline>
    <contour>
      <point x="474" y="-240" type="curve" smooth="yes"/>
      <point x="549" y="-240"/>
      <point x="614" y="-197"/>
      <point x="614" y="-104" type="curve" smooth="yes"/>
      <point x="609" y="200" type="line"/>
      <point x="602" y="196" type="line" smooth="yes"/>
      <point x="566" y="52" type="line" smooth="yes"/>
      <point x="467" y="-95"/>
      <point x="552" y="-215"/>
      <point x="476" y="-215" type="curve" smooth="yes"/>
      <point x="445" y="-215"/>
      <point x="411" y="-213"/>
      <point x="381" y="-205" type="curve"/>
      <point x="381" y="-231" type="line"/>
      <point x="405" y="-237"/>
      <point x="437" y="-240"/>
    </contour>
    <component base="n"/>
  </outline>
</glyph>
<glyph name="OE" format="2">
  <advance width="720"/>
  <unicode hex="0152"/>
  <anchor x="360" y="0" name="bottom"/>
  <anchor x="360" y="714" name="top"/>
  <outline>
    <contour>
      <point x="370" y="-2" type="curve" smooth="yes"/>
      <point x="400" y="-2"/>
      <point x="423" y="0"/>
      <point x="445" y="0" type="curve" smooth="yes"/>
      <point x="703" y="0" type="line"/>
      <point x="703" y="25" type="line"/>
      <point x="391" y="25" type="line"/>
      <point x="391" y="363" type="line"/>
      <point x="687" y="363" type="line"/>
      <point x="687" y="388" type="line"/>
      <point x="391" y="388" type="line"/>
      <point x="391" y="690" type="line"/>
      <point x="703" y="690" type="line"/>
      <point x="703" y="714" type="line"/>
      <point x="450" y="714" type="line"/>
      <point x="424" y="714"/>
      <point x="398" y="714"/>
      <point x="373" y="714" type="curve" smooth="yes"/>
      <point x="112" y="714"/>
      <point x="51" y="571"/>
      <point x="51" y="359" type="curve" smooth="yes"/>
      <point x="51" y="121"/>
      <point x="153" y="-2"/>
    </contour>
    <contour>
      <point x="362" y="23" type="curve" smooth="yes"/>
      <point x="164" y="23"/>
      <point x="77" y="153"/>
      <point x="77" y="359" type="curve" smooth="yes"/>
      <point x="77" y="545"/>
      <point x="126" y="690"/>
      <point x="362" y="690" type="curve" smooth="yes"/>
      <point x="363" y="690"/>
      <point x="363" y="690"/>
      <point x="365" y="690" type="curve"/>
      <point x="365" y="23" type="line"/>
      <point x="363" y="23"/>
      <point x="365" y="23"/>
    </contour>
  </outline>
</glyph>
<glyph name="oe" format="2">
  <advance width="720"/>
  <unicode hex="0153"/>
  <anchor x="361" y="0" name="bottom"/>
  <anchor x="361" y="528" name="top"/>
  <outline>
    <contour>
      <point x="201" y="-10" type="curve" smooth="yes"/>
      <point x="301" y="-10"/>
      <point x="355" y="57"/>
      <point x="372" y="152" type="curve"/>
      <point x="391" y="53"/>
      <point x="446" y="-10"/>
      <point x="558" y="-10" type="curve" smooth="yes"/>
      <point x="600" y="-10"/>
      <point x="633" y="-3"/>
      <point x="681" y="21" type="curve"/>
      <point x="681" y="48" type="line"/>
      <point x="632" y="22"/>
      <point x="600" y="14"/>
      <point x="560" y="14" type="curve" smooth="yes"/>
      <point x="450" y="14"/>
      <point x="390" y="103"/>
      <point x="390" y="268" type="curve"/>
      <point x="685" y="268" type="line"/>
      <point x="685" y="296" type="line" smooth="yes"/>
      <point x="685" y="426"/>
      <point x="647" y="537"/>
      <point x="538" y="537" type="curve" smooth="yes"/>
      <point x="442" y="537"/>
      <point x="392" y="464"/>
      <point x="373" y="373" type="curve"/>
      <point x="360" y="469"/>
      <point x="309" y="537"/>
      <point x="210" y="537" type="curve" smooth="yes"/>
      <point x="92" y="537"/>
      <point x="23" y="443"/>
      <point x="23" y="262" type="curve" smooth="yes"/>
      <point x="23" y="96"/>
      <point x="80" y="-10"/>
    </contour>
    <contour>
      <point x="201" y="15" type="curve" smooth="yes"/>
      <point x="98" y="15"/>
      <point x="51" y="112"/>
      <point x="51" y="264" type="curve" smooth="yes"/>
      <point x="51" y="422"/>
      <point x="104" y="513"/>
      <point x="209" y="513" type="curve" smooth="yes"/>
      <point x="313" y="513"/>
      <point x="355" y="409"/>
      <point x="355" y="265" type="curve" smooth="yes"/>
      <point x="355" y="125"/>
      <point x="309" y="15"/>
    </contour>
    <contour>
      <point x="390" y="294" type="line"/>
      <point x="398" y="428"/>
      <point x="455" y="513"/>
      <point x="538" y="513" type="curve" smooth="yes"/>
      <point x="621" y="513"/>
      <point x="656" y="420"/>
      <point x="656" y="294" type="curve"/>
    </contour>
  </outline>
</glyph>
<glyph name="tbar" format="2">
  <advance width="720"/>
  <unicode hex="0167"/>
  <anchor x="392" y="0" name="bottom"/>
  <anchor x="328" y="659" name="top"/>
  <anchor x="718" y="659" name="topright"/>
  <anchor x="322" y="271" name="center"/>
  <outline>
    <contour>
      <point x="92" y="285" type="line"/>
      <point x="615" y="285" type="line"/>
      <point x="615" y="310" type="line"/>
      <point x="92" y="310" type="line"/>
    </contour>
    <component base="t"/>
  </outline>
</glyph>
<glyph name="Uogonek" format="2">
  <advance width="720"/>
  <unicode hex="0172"/>
  <anchor x="364" y="-217" name="bottom"/>
  <anchor x="361" y="714" name="top"/>
  <anchor x="668" y="10" name="ogonek"/>
  <anchor x="718" y="714" name="topright"/>
  <outline>
    <contour>
      <point x="394" y="-217" type="curve" smooth="yes"/>
      <point x="418" y="-217"/>
      <point x="442" y="-213"/>
      <point x="454" y="-209" type="curve"/>
      <point x="454" y="-186" type="line"/>
      <point x="441" y="-189"/>
      <point x="416" y="-192"/>
      <point x="396" y="-192" type="curve" smooth="yes"/>
      <point x="342" y="-192"/>
      <point x="316" y="-171"/>
      <point x="316" y="-135" type="curve" smooth="yes"/>
      <point x="316" y="-66"/>
      <point x="418" y="-27"/>
      <point x="492" y="16" type="curve"/>
      <point x="470" y="26" type="line"/>
      <point x="372" y="-27"/>
      <point x="288" y="-63"/>
      <point x="288" y="-137" type="curve" smooth="yes"/>
      <point x="288" y="-193"/>
      <point x="335" y="-217"/>
    </contour>
    <component base="U"/>
  </outline>
</glyph>
<glyph name="longs" format="2">
  <advance width="720"/>
  <unicode hex="017F"/>
  <anchor x="361" y="0" name="bottom"/>
  <anchor x="504" y="765" name="top"/>
  <outline>
    <contour>
      <point x="320" y="0" type="line"/>
      <point x="346" y="0" type="line"/>
      <point x="346" y="560" type="line" smooth="yes"/>
      <point x="346" y="680"/>
      <point x="411" y="740"/>
      <point x="545" y="740" type="curve" smooth="yes"/>
      <point x="580" y="740"/>
      <point x="601" y="737"/>
      <point x="627" y="731" type="curve"/>
      <point x="629" y="756" type="line"/>
      <point x="601" y="762"/>
      <point x="575" y="765"/>
      <point x="545" y="765" type="curve" smooth="yes"/>
      <point x="393" y="765"/>
      <point x="320" y="686"/>
      <point x="320" y="563" type="curve" smooth="yes"/>
    </contour>
  </outline>
</glyph>
<glyph name="uni0181" format="2">
  <advance width="720"/>
  <unicode hex="0181"/>
  <anchor x="353" y="0" name="bottom"/>
  <anchor x="353" y="714" name="top"/>
  <outline>
    <contour>
      <point x="163" y="0" type="line"/>
      <point x="356" y="0" type="line" smooth="yes"/>
      <point x="568" y="0"/>
      <point x="683" y="59"/>
      <point x="683" y="202" type="curve" smooth="yes"/>
      <point x="683" y="293"/>
      <point x="633" y="357"/>
      <point x="477" y="375" type="curve"/>
      <point x="477" y="377" type="line"/>
      <point x="597" y="393"/>
      <point x="660" y="461"/>
      <point x="660" y="543" type="curve" smooth="yes"/>
      <point x="660" y="657"/>
      <point x="576" y="714"/>
      <point x="351" y="714" type="curve" smooth="yes"/>
      <point x="163" y="714" type="line"/>
    </contour>
    <contour>
      <point x="190" y="25" type="line"/>
      <point x="190" y="363" type="line"/>
      <point x="353" y="363" type="line" smooth="yes"/>
      <point x="562" y="363"/>
      <point x="656" y="325"/>
      <point x="656" y="202" type="curve" smooth="yes"/>
      <point x="656" y="80"/>
      <point x="539" y="25"/>
      <point x="354" y="25" type="curve" smooth="yes"/>
    </contour>
    <contour>
      <point x="2" y="536" type="curve"/>
      <point x="29" y="536" type="line"/>
      <point x="24" y="546"/>
      <point x="17" y="568"/>
      <point x="17" y="589" type="curve" smooth="yes"/>
      <point x="17" y="650"/>
      <point x="59" y="689"/>
      <point x="152" y="689" type="curve" smooth="yes"/>
      <point x="182" y="689" type="line"/>
      <point x="182" y="714" type="line"/>
      <point x="148" y="714" type="line" smooth="yes"/>
      <point x="45" y="714"/>
      <point x="-9" y="661"/>
      <point x="-9" y="591" type="curve" smooth="yes"/>
      <point x="-9" y="571"/>
      <point x="-6" y="550"/>
    </contour>
    <contour>
      <point x="190" y="388" type="line"/>
      <point x="190" y="689" type="line"/>
      <point x="342" y="689" type="line" smooth="yes"/>
      <point x="570" y="689"/>
      <point x="633" y="646"/>
      <point x="633" y="543" type="curve" smooth="yes"/>
      <point x="633" y="441"/>
      <point x="542" y="388"/>
      <point x="357" y="388" type="curve" smooth="yes"/>
    </contour>
  </outline>
</glyph>
<glyph name="uni0183" format="2">
  <advance width="720"/>
  <unicode hex="0183"/>
  <anchor x="361" y="0" name="bottom"/>
  <anchor x="361" y="760" name="top"/>
  <anchor x="696" y="760" name="topright"/>
  <outline>
    <contour>
      <point x="127" y="735" type="line"/>
      <point x="570" y="735" type="line"/>
      <point x="570" y="760" type="line"/>
      <point x="129" y="760" type="line"/>
    </contour>
    <component base="b" xOffset="-22"/>
  </outline>
</glyph>
<glyph name="uni0184" format="2">
  <advance width="720"/>
  <unicode hex="0184"/>
  <anchor x="361" y="0" name="bottom"/>
  <anchor x="361" y="760" name="top"/>
  <outline>
    <contour>
      <point x="384" y="-7" type="curve" smooth="yes"/>
      <point x="557" y="-7"/>
      <point x="649" y="72"/>
      <point x="649" y="200" type="curve" smooth="yes"/>
      <point x="649" y="336"/>
      <point x="535" y="393"/>
      <point x="367" y="393" type="curve" smooth="yes"/>
      <point x="154" y="393" type="line"/>
      <point x="154" y="714" type="line"/>
      <point x="127" y="714" type="line"/>
      <point x="127" y="226" type="line" smooth="yes"/>
      <point x="127" y="67"/>
      <point x="221" y="-7"/>
    </contour>
    <contour>
      <point x="385" y="18" type="curve" smooth="yes"/>
      <point x="239" y="18"/>
      <point x="154" y="80"/>
      <point x="154" y="234" type="curve" smooth="yes"/>
      <point x="154" y="368" type="line"/>
      <point x="362" y="368" type="line" smooth="yes"/>
      <point x="531" y="368"/>
      <point x="621" y="314"/>
      <point x="621" y="200" type="curve" smooth="yes"/>
      <point x="621" y="82"/>
      <point x="537" y="18"/>
    </contour>
  </outline>
</glyph>
<glyph name="uni0185" format="2">
  <advance width="720"/>
  <unicode hex="0185"/>
  <anchor x="361" y="0" name="bottom"/>
  <anchor x="361" y="760" name="top"/>
  <outline>
    <contour>
      <point x="371" y="-10" type="curve" smooth="yes"/>
      <point x="573" y="-10"/>
      <point x="650" y="110"/>
      <point x="650" y="267" type="curve" smooth="yes"/>
      <point x="650" y="444"/>
      <point x="559" y="539"/>
      <point x="378" y="539" type="curve" smooth="yes"/>
      <point x="255" y="539"/>
      <point x="164" y="480"/>
      <point x="139" y="408" type="curve"/>
      <point x="137" y="408" type="line"/>
      <point x="138" y="438"/>
      <point x="138" y="489"/>
      <point x="138" y="519" type="curve" smooth="yes"/>
      <point x="138" y="760" type="line"/>
      <point x="112" y="760" type="line"/>
      <point x="112" y="247" type="line" smooth="yes"/>
      <point x="112" y="78"/>
      <point x="208" y="-10"/>
    </contour>
    <contour>
      <point x="370" y="15" type="curve" smooth="yes"/>
      <point x="222" y="15"/>
      <point x="138" y="92"/>
      <point x="138" y="252" type="curve" smooth="yes"/>
      <point x="138" y="263" type="line" smooth="yes"/>
      <point x="138" y="421"/>
      <point x="220" y="514"/>
      <point x="381" y="514" type="curve" smooth="yes"/>
      <point x="543" y="514"/>
      <point x="623" y="430"/>
      <point x="623" y="267" type="curve" smooth="yes"/>
      <point x="623" y="105"/>
      <point x="538" y="15"/>
    </contour>
  </outline>
</glyph>
<glyph name="uni0187" format="2">
  <advance width="720"/>
  <unicode hex="0187"/>
  <anchor x="445" y="0" name="bottom"/>
  <anchor x="445" y="857" name="top"/>
  <anchor x="696" y="714" name="topright"/>
  <outline>
    <contour>
      <point x="656" y="688" type="line"/>
      <point x="682" y="688" type="line"/>
      <point x="682" y="761" type="line" smooth="yes"/>
      <point x="682" y="814"/>
      <point x="711" y="833"/>
      <point x="761" y="833" type="curve" smooth="yes"/>
      <point x="791" y="833"/>
      <point x="814" y="827"/>
      <point x="827" y="822" type="curve"/>
      <point x="827" y="848" type="line"/>
      <point x="814" y="852"/>
      <point x="791" y="857"/>
      <point x="759" y="857" type="curve" smooth="yes"/>
      <point x="699" y="857"/>
      <point x="656" y="827"/>
      <point x="656" y="764" type="curve" smooth="yes"/>
    </contour>
    <component base="C" xOffset="-22"/>
  </outline>
</glyph>
<glyph name="uni0188" format="2">
  <advance width="720"/>
  <unicode hex="0188"/>
  <anchor x="361" y="0" name="bottom"/>
  <anchor x="361" y="770" name="top"/>
  <anchor x="696" y="528" name="topright"/>
  <outline>
    <contour>
      <point x="590" y="514" type="line"/>
      <point x="617" y="514" type="line"/>
      <point x="617" y="664" type="line" smooth="yes"/>
      <point x="617" y="727"/>
      <point x="648" y="746"/>
      <point x="702" y="746" type="curve" smooth="yes"/>
      <point x="728" y="746"/>
      <point x="745" y="742"/>
      <point x="759" y="737" type="curve"/>
      <point x="759" y="762" type="line"/>
      <point x="745" y="766"/>
      <point x="732" y="770"/>
      <point x="702" y="770" type="curve" smooth="yes"/>
      <point x="635" y="770"/>
      <point x="590" y="738"/>
      <point x="590" y="667" type="curve" smooth="yes"/>
    </contour>
    <component base="c" xOffset="-22"/>
  </outline>
</glyph>
<glyph name="uni018A" format="2">
  <advance width="720"/>
  <unicode hex="018A"/>
  <anchor x="361" y="0" name="bottom"/>
  <anchor x="361" y="714" name="top"/>
  <outline>
    <contour>
      <point x="160" y="0" type="line"/>
      <point x="315" y="0" type="line" smooth="yes"/>
      <point x="560" y="0"/>
      <point x="673" y="125"/>
      <point x="673" y="363" type="curve" smooth="yes"/>
      <point x="673" y="593"/>
      <point x="569" y="714"/>
      <point x="324" y="714" type="curve" smooth="yes"/>
      <point x="160" y="714" type="line"/>
    </contour>
    <contour>
      <point x="186" y="25" type="line"/>
      <point x="186" y="689" type="line"/>
      <point x="312" y="689" type="line" smooth="yes"/>
      <point x="557" y="689"/>
      <point x="646" y="573"/>
      <point x="646" y="361" type="curve" smooth="yes"/>
      <point x="646" y="137"/>
      <point x="542" y="25"/>
      <point x="301" y="25" type="curve" smooth="yes"/>
    </contour>
    <contour>
      <point x="2" y="536" type="curve"/>
      <point x="29" y="536" type="line"/>
      <point x="24" y="546"/>
      <point x="17" y="568"/>
      <point x="17" y="589" type="curve" smooth="yes"/>
      <point x="17" y="650"/>
      <point x="59" y="689"/>
      <point x="152" y="689" type="curve" smooth="yes"/>
      <point x="182" y="689" type="line"/>
      <point x="182" y="714" type="line"/>
      <point x="148" y="714" type="line" smooth="yes"/>
      <point x="45" y="714"/>
      <point x="-9" y="661"/>
      <point x="-9" y="591" type="curve" smooth="yes"/>
      <point x="-9" y="571"/>
      <point x="-6" y="550"/>
    </contour>
  </outline>
</glyph>
<glyph name="uni018C" format="2">
  <advance width="720"/>
  <unicode hex="018C"/>
  <anchor x="361" y="0" name="bottom"/>
  <anchor x="373" y="760" name="top"/>
  <anchor x="696" y="760" name="topright"/>
  <anchor x="339" y="264" name="center"/>
  <outline>
    <contour>
      <point x="146" y="735" type="line"/>
      <point x="592" y="735" type="line"/>
      <point x="592" y="760" type="line"/>
      <point x="146" y="760" type="line"/>
    </contour>
    <component base="d" xOffset="-22"/>
  </outline>
</glyph>
<glyph name="uni0191" format="2">
  <advance width="720"/>
  <unicode hex="0191"/>
  <anchor x="345" y="-160" name="bottom"/>
  <anchor x="378" y="714" name="top"/>
  <outline>
    <contour>
      <point x="31" y="-161" type="curve" smooth="yes"/>
      <point x="101" y="-161"/>
      <point x="153" y="-121"/>
      <point x="153" y="-42" type="curve" smooth="yes"/>
      <point x="153" y="329" type="line"/>
      <point x="598" y="329" type="line"/>
      <point x="598" y="354" type="line"/>
      <point x="153" y="354" type="line"/>
      <point x="153" y="689" type="line"/>
      <point x="623" y="689" type="line"/>
      <point x="623" y="714" type="line"/>
      <point x="127" y="714" type="line"/>
      <point x="127" y="-38" type="line" smooth="yes"/>
      <point x="127" y="-101"/>
      <point x="94" y="-136"/>
      <point x="34" y="-136" type="curve" smooth="yes"/>
      <point x="3" y="-136"/>
      <point x="-18" y="-131"/>
      <point x="-42" y="-125" type="curve"/>
      <point x="-42" y="-152" type="line"/>
      <point x="-21" y="-158"/>
      <point x="-1" y="-161"/>
    </contour>
  </outline>
</glyph>
<glyph name="florin" format="2">
  <advance width="720"/>
  <unicode hex="0192"/>
  <anchor x="346" y="-240" name="bottom"/>
  <anchor x="450" y="724" name="top"/>
  <outline>
    <contour>
      <point x="203" y="-240" type="curve" smooth="yes"/>
      <point x="305" y="-240"/>
      <point x="353" y="-180"/>
      <point x="353" y="-94" type="curve" smooth="yes"/>
      <point x="353" y="423" type="line"/>
      <point x="531" y="423" type="line"/>
      <point x="531" y="448" type="line"/>
      <point x="354" y="448" type="line"/>
      <point x="354" y="539" type="line" smooth="yes"/>
      <point x="354" y="651"/>
      <point x="403" y="699"/>
      <point x="511" y="699" type="curve" smooth="yes"/>
      <point x="549" y="699"/>
      <point x="580" y="696"/>
      <point x="609" y="688" type="curve"/>
      <point x="616" y="712" type="line"/>
      <point x="579" y="721"/>
      <point x="549" y="724"/>
      <point x="516" y="724" type="curve" smooth="yes"/>
      <point x="384" y="724"/>
      <point x="327" y="659"/>
      <point x="327" y="542" type="curve" smooth="yes"/>
      <point x="327" y="448" type="line"/>
      <point x="199" y="445" type="line"/>
      <point x="199" y="423" type="line"/>
      <point x="327" y="423" type="line"/>
      <point x="327" y="-91" type="line" smooth="yes"/>
      <point x="327" y="-171"/>
      <point x="287" y="-215"/>
      <point x="202" y="-215" type="curve" smooth="yes"/>
      <point x="170" y="-215"/>
      <point x="144" y="-211"/>
      <point x="116" y="-205" type="curve"/>
      <point x="116" y="-231" type="line"/>
      <point x="136" y="-235"/>
      <point x="162" y="-240"/>
    </contour>
  </outline>
</glyph>
<glyph name="uni0193" format="2">
  <advance width="720"/>
  <unicode hex="0193"/>
  <anchor x="371" y="0" name="bottom"/>
  <anchor x="371" y="859" name="top"/>
  <anchor x="696" y="714" name="topright"/>
  <outline>
    <contour>
      <point x="584" y="684" type="line"/>
      <point x="610" y="684" type="line"/>
      <point x="610" y="763" type="line" smooth="yes"/>
      <point x="610" y="816"/>
      <point x="639" y="835"/>
      <point x="689" y="835" type="curve" smooth="yes"/>
      <point x="719" y="835"/>
      <point x="742" y="829"/>
      <point x="755" y="824" type="curve"/>
      <point x="755" y="850" type="line"/>
      <point x="742" y="854"/>
      <point x="719" y="859"/>
      <point x="687" y="859" type="curve" smooth="yes"/>
      <point x="627" y="859"/>
      <point x="584" y="829"/>
      <point x="584" y="766" type="curve" smooth="yes"/>
    </contour>
    <component base="G" xOffset="-22"/>
  </outline>
</glyph>
<glyph name="uni0194" format="2">
  <advance width="720"/>
  <unicode hex="0194"/>
  <anchor x="361" y="-241" name="bottom"/>
  <anchor x="361" y="714" name="top"/>
  <outline>
    <contour>
      <point x="360" y="-241" type="curve" smooth="yes"/>
      <point x="441" y="-241"/>
      <point x="484" y="-194"/>
      <point x="484" y="-129" type="curve" smooth="yes"/>
      <point x="484" y="-59"/>
      <point x="442" y="8"/>
      <point x="373" y="129" type="curve"/>
      <point x="680" y="714" type="line"/>
      <point x="652" y="714" type="line"/>
      <point x="405" y="245" type="line" smooth="yes"/>
      <point x="390" y="218"/>
      <point x="375" y="190"/>
      <point x="360" y="162" type="curve"/>
      <point x="346" y="190"/>
      <point x="332" y="217"/>
      <point x="317" y="245" type="curve" smooth="yes"/>
      <point x="69" y="714" type="line"/>
      <point x="42" y="714" type="line"/>
      <point x="347" y="130" type="line"/>
      <point x="277" y="9"/>
      <point x="238" y="-53"/>
      <point x="238" y="-129" type="curve" smooth="yes"/>
      <point x="238" y="-194"/>
      <point x="284" y="-241"/>
    </contour>
    <contour>
      <point x="362" y="-217" type="curve" smooth="yes"/>
      <point x="302" y="-217"/>
      <point x="264" y="-182"/>
      <point x="264" y="-126" type="curve" smooth="yes"/>
      <point x="264" y="-59"/>
      <point x="302" y="-3"/>
      <point x="361" y="97" type="curve"/>
      <point x="418" y="-3"/>
      <point x="457" y="-59"/>
      <point x="457" y="-127" type="curve" smooth="yes"/>
      <point x="457" y="-181"/>
      <point x="424" y="-217"/>
    </contour>
  </outline>
</glyph>
<glyph name="uni0195" format="2">
  <advance width="720"/>
  <unicode hex="0195"/>
  <anchor x="366" y="0" name="bottom"/>
  <anchor x="76" y="760" name="top"/>
  <outline>
    <contour>
      <point x="511" y="-9" type="curve" smooth="yes"/>
      <point x="605" y="-9"/>
      <point x="667" y="33"/>
      <point x="667" y="138" type="curve" smooth="yes"/>
      <point x="667" y="526" type="line"/>
      <point x="640" y="526" type="line"/>
      <point x="640" y="141" type="line" smooth="yes"/>
      <point x="640" y="48"/>
      <point x="588" y="16"/>
      <point x="511" y="16" type="curve" smooth="yes"/>
      <point x="427" y="16"/>
      <point x="381" y="52"/>
      <point x="381" y="146" type="curve" smooth="yes"/>
      <point x="381" y="398" type="line" smooth="yes"/>
      <point x="381" y="500"/>
      <point x="324" y="537"/>
      <point x="239" y="537" type="curve" smooth="yes"/>
      <point x="145" y="537"/>
      <point x="105" y="494"/>
      <point x="89" y="447" type="curve"/>
      <point x="86" y="447" type="line"/>
      <point x="89" y="469"/>
      <point x="89" y="484"/>
      <point x="89" y="515" type="curve" smooth="yes"/>
      <point x="89" y="760" type="line"/>
      <point x="61" y="760" type="line"/>
      <point x="61" y="0" type="line"/>
      <point x="89" y="0" type="line"/>
      <point x="89" y="321" type="line" smooth="yes"/>
      <point x="89" y="470"/>
      <point x="162" y="512"/>
      <point x="241" y="512" type="curve" smooth="yes"/>
      <point x="304" y="512"/>
      <point x="354" y="485"/>
      <point x="354" y="392" type="curve" smooth="yes"/>
      <point x="354" y="142" type="line" smooth="yes"/>
      <point x="354" y="25"/>
      <point x="430" y="-9"/>
    </contour>
  </outline>
</glyph>
<glyph name="uni0196" format="2">
  <advance width="720"/>
  <unicode hex="0196"/>
  <anchor x="402" y="0" name="bottom"/>
  <anchor x="250" y="714" name="top"/>
  <outline>
    <contour>
      <point x="435" y="-10" type="curve" smooth="yes"/>
      <point x="473" y="-10"/>
      <point x="531" y="-5"/>
      <point x="574" y="4" type="curve"/>
      <point x="574" y="29" type="line"/>
      <point x="524" y="20"/>
      <point x="482" y="15"/>
      <point x="440" y="15" type="curve" smooth="yes"/>
      <point x="329" y="15"/>
      <point x="263" y="50"/>
      <point x="263" y="175" type="curve" smooth="yes"/>
      <point x="263" y="714" type="line"/>
      <point x="237" y="714" type="line"/>
      <point x="237" y="166" type="line" smooth="yes"/>
      <point x="237" y="36"/>
      <point x="314" y="-10"/>
    </contour>
  </outline>
</glyph>
<glyph name="uni0197" format="2">
  <advance width="720"/>
  <unicode hex="0197"/>
  <anchor x="361" y="0" name="bottom"/>
  <anchor x="361" y="714" name="top"/>
  <anchor x="-18" y="714" name="topleft"/>
  <anchor x="384" y="10" name="ogonek"/>
  <anchor x="696" y="714" name="topright"/>
  <outline>
    <contour>
      <point x="198" y="363" type="line"/>
      <point x="523" y="363" type="line"/>
      <point x="523" y="388" type="line"/>
      <point x="198" y="388" type="line"/>
    </contour>
    <component base="I" xOffset="-22"/>
  </outline>
</glyph>
<glyph name="uni0198" format="2">
  <advance width="720"/>
  <unicode hex="0198"/>
  <anchor x="361" y="0" name="bottom"/>
  <anchor x="361" y="714" name="top"/>
  <outline>
    <contour>
      <point x="99" y="0" type="line"/>
      <point x="125" y="0" type="line"/>
      <point x="125" y="290" type="line"/>
      <point x="267" y="398" type="line"/>
      <point x="633" y="0" type="line"/>
      <point x="664" y="0" type="line"/>
      <point x="284" y="415" type="line"/>
      <point x="562" y="635" type="line" smooth="yes"/>
      <point x="615" y="677"/>
      <point x="651" y="694"/>
      <point x="697" y="694" type="curve" smooth="yes"/>
      <point x="715" y="694"/>
      <point x="728" y="692"/>
      <point x="738" y="689" type="curve"/>
      <point x="738" y="714" type="line"/>
      <point x="728" y="717"/>
      <point x="716" y="719"/>
      <point x="698" y="719" type="curve" smooth="yes"/>
      <point x="638" y="719"/>
      <point x="595" y="696"/>
      <point x="525" y="641" type="curve" smooth="yes"/>
      <point x="191" y="381" type="line" smooth="yes"/>
      <point x="165" y="359"/>
      <point x="149" y="344"/>
      <point x="125" y="322" type="curve"/>
      <point x="125" y="714" type="line"/>
      <point x="99" y="714" type="line"/>
    </contour>
  </outline>
</glyph>
<glyph name="uni0199" format="2">
  <advance width="720"/>
  <unicode hex="0199"/>
  <anchor x="361" y="0" name="bottom"/>
  <anchor x="361" y="764" name="top"/>
  <outline>
    <contour>
      <point x="162" y="0" type="line"/>
      <point x="188" y="0" type="line"/>
      <point x="188" y="173" type="line"/>
      <point x="359" y="294" type="line"/>
      <point x="641" y="0" type="line"/>
      <point x="672" y="0" type="line"/>
      <point x="378" y="313" type="line"/>
      <point x="646" y="528" type="line"/>
      <point x="611" y="528" type="line"/>
      <point x="274" y="271" type="line" smooth="yes"/>
      <point x="246" y="249"/>
      <point x="219" y="228"/>
      <point x="190" y="205" type="curve"/>
      <point x="188" y="205" type="line"/>
      <point x="189" y="267"/>
      <point x="188" y="320"/>
      <point x="188" y="382" type="curve" smooth="yes"/>
      <point x="188" y="632" type="line" smooth="yes"/>
      <point x="188" y="705"/>
      <point x="232" y="739"/>
      <point x="313" y="739" type="curve" smooth="yes"/>
      <point x="334" y="739"/>
      <point x="349" y="737"/>
      <point x="363" y="734" type="curve"/>
      <point x="363" y="759" type="line"/>
      <point x="352" y="761"/>
      <point x="335" y="764"/>
      <point x="315" y="764" type="curve" smooth="yes"/>
      <point x="218" y="764"/>
      <point x="162" y="719"/>
      <point x="162" y="635" type="curve" smooth="yes"/>
    </contour>
  </outline>
</glyph>
<glyph name="uni019A" format="2">
  <advance width="720"/>
  <unicode hex="019A"/>
  <anchor x="360" y="0" name="bottom"/>
  <anchor x="360" y="760" name="top"/>
  <anchor x="573" y="760" name="topright"/>
  <anchor x="354" y="378" name="center"/>
  <outline>
    <contour>
      <point x="162" y="368" type="line"/>
      <point x="589" y="368" type="line"/>
      <point x="589" y="393" type="line"/>
      <point x="162" y="393" type="line"/>
    </contour>
    <component base="l" xOffset="-22"/>
  </outline>
</glyph>
<glyph name="uni019B" format="2">
  <advance width="720"/>
  <unicode hex="019B"/>
  <anchor x="310" y="0" name="bottom"/>
  <anchor x="318" y="766" name="top"/>
  <outline>
    <contour>
      <point x="157" y="576" type="line"/>
      <point x="491" y="651" type="line"/>
      <point x="483" y="675" type="line"/>
      <point x="149" y="600" type="line"/>
    </contour>
    <component base="lambda" xOffset="-31"/>
  </outline>
</glyph>
<glyph name="uni019C" format="2">
  <advance width="720"/>
  <unicode hex="019C"/>
  <anchor x="361" y="0" name="bottom"/>
  <anchor x="361" y="357" name="center"/>
  <anchor x="361" y="714" name="top"/>
  <anchor x="4" y="714" name="topleft"/>
  <outline>
    <contour>
      <point x="199" y="-10" type="curve" smooth="yes"/>
      <point x="288" y="-10"/>
      <point x="328" y="33"/>
      <point x="352" y="88" type="curve"/>
      <point x="356" y="88" type="line"/>
      <point x="364" y="38"/>
      <point x="396" y="-10"/>
      <point x="489" y="-10" type="curve" smooth="yes"/>
      <point x="592" y="-10"/>
      <point x="627" y="46"/>
      <point x="645" y="90" type="curve"/>
      <point x="647" y="90" type="line"/>
      <point x="650" y="-1" type="line"/>
      <point x="669" y="-1" type="line"/>
      <point x="669" y="714" type="line"/>
      <point x="642" y="714" type="line"/>
      <point x="642" y="189" type="line" smooth="yes"/>
      <point x="642" y="108"/>
      <point x="596" y="14"/>
      <point x="487" y="14" type="curve" smooth="yes"/>
      <point x="418" y="14"/>
      <point x="372" y="42"/>
      <point x="372" y="164" type="curve" smooth="yes"/>
      <point x="372" y="714" type="line"/>
      <point x="345" y="714" type="line"/>
      <point x="345" y="179" type="line" smooth="yes"/>
      <point x="345" y="80"/>
      <point x="290" y="14"/>
      <point x="199" y="14" type="curve" smooth="yes"/>
      <point x="136" y="14"/>
      <point x="81" y="46"/>
      <point x="81" y="147" type="curve" smooth="yes"/>
      <point x="81" y="714" type="line"/>
      <point x="53" y="714" type="line"/>
      <point x="53" y="135" type="line" smooth="yes"/>
      <point x="53" y="36"/>
      <point x="112" y="-10"/>
    </contour>
  </outline>
</glyph>
<glyph name="uni019D" format="2">
  <advance width="720"/>
  <unicode hex="019D"/>
  <anchor x="367" y="-144" name="bottom"/>
  <anchor x="367" y="714" name="top"/>
  <anchor x="722" y="714" name="topright"/>
  <outline>
    <contour>
      <point x="27" y="-144" type="curve" smooth="yes"/>
      <point x="83" y="-144"/>
      <point x="125" y="-107"/>
      <point x="125" y="-34" type="curve" smooth="yes"/>
      <point x="125" y="68" type="line"/>
      <point x="99" y="68" type="line"/>
      <point x="99" y="-30" type="line" smooth="yes"/>
      <point x="99" y="-88"/>
      <point x="76" y="-119"/>
      <point x="28" y="-119" type="curve" smooth="yes"/>
      <point x="8" y="-119"/>
      <point x="-17" y="-116"/>
      <point x="-36" y="-110" type="curve"/>
      <point x="-36" y="-136" type="line"/>
      <point x="-20" y="-141"/>
      <point x="-1" y="-144"/>
    </contour>
    <component base="N" xOffset="-22"/>
  </outline>
</glyph>
<glyph name="uni01A2" format="2">
  <advance width="720"/>
  <unicode hex="01A2"/>
  <anchor x="131" y="0" name="bottom"/>
  <anchor x="138" y="10" name="ogonek"/>
  <anchor x="403" y="714" name="top"/>
  <anchor x="-213" y="714" name="topleft"/>
  <anchor x="1021" y="714" name="topright"/>
  <outline>
    <contour>
      <point x="130" y="-10" type="curve" smooth="yes"/>
      <point x="374" y="-10"/>
      <point x="495" y="146"/>
      <point x="495" y="360" type="curve" smooth="yes"/>
      <point x="495" y="558"/>
      <point x="391" y="724"/>
      <point x="136" y="724" type="curve" smooth="yes"/>
      <point x="-102" y="724"/>
      <point x="-241" y="579"/>
      <point x="-241" y="357" type="curve" smooth="yes"/>
      <point x="-241" y="148"/>
      <point x="-116" y="-10"/>
    </contour>
    <contour>
      <point x="130" y="15" type="curve" smooth="yes"/>
      <point x="-99" y="15"/>
      <point x="-214" y="157"/>
      <point x="-214" y="355" type="curve" smooth="yes"/>
      <point x="-214" y="558"/>
      <point x="-94" y="700"/>
      <point x="132" y="700" type="curve" smooth="yes"/>
      <point x="344" y="700"/>
      <point x="468" y="576"/>
      <point x="468" y="359" type="curve" smooth="yes"/>
      <point x="468" y="153"/>
      <point x="357" y="15"/>
    </contour>
    <contour>
      <point x="937" y="0" type="line"/>
      <point x="963" y="0" type="line"/>
      <point x="963" y="485" type="line" smooth="yes"/>
      <point x="963" y="641"/>
      <point x="854" y="723"/>
      <point x="676" y="723" type="curve" smooth="yes"/>
      <point x="547" y="723"/>
      <point x="456" y="678"/>
      <point x="403" y="619" type="curve"/>
      <point x="418" y="595" type="line"/>
      <point x="468" y="656"/>
      <point x="558" y="698"/>
      <point x="679" y="698" type="curve" smooth="yes"/>
      <point x="839" y="698"/>
      <point x="937" y="626"/>
      <point x="937" y="479" type="curve" smooth="yes"/>
    </contour>
  </outline>
</glyph>
<glyph name="uni01A3" format="2">
  <advance width="720"/>
  <unicode hex="01A3"/>
  <anchor x="224" y="0" name="bottom"/>
  <anchor x="224" y="277" name="center"/>
  <anchor x="229" y="10" name="ogonek"/>
  <anchor x="365" y="528" name="top"/>
  <outline>
    <contour>
      <point x="631" y="-232" type="line"/>
      <point x="658" y="-232" type="line"/>
      <point x="658" y="409" type="line" smooth="yes"/>
      <point x="658" y="495"/>
      <point x="610" y="538"/>
      <point x="524" y="538" type="curve" smooth="yes"/>
      <point x="449" y="538"/>
      <point x="407" y="502"/>
      <point x="378" y="465" type="curve"/>
      <point x="347" y="512"/>
      <point x="298" y="538"/>
      <point x="227" y="538" type="curve" smooth="yes"/>
      <point x="96" y="538"/>
      <point x="34" y="449"/>
      <point x="34" y="266" type="curve" smooth="yes"/>
      <point x="34" y="77"/>
      <point x="98" y="-10"/>
      <point x="230" y="-10" type="curve" smooth="yes"/>
      <point x="356" y="-10"/>
      <point x="420" y="74"/>
      <point x="420" y="264" type="curve" smooth="yes"/>
      <point x="420" y="334"/>
      <point x="412" y="397"/>
      <point x="389" y="441" type="curve"/>
      <point x="414" y="473"/>
      <point x="451" y="513"/>
      <point x="522" y="513" type="curve" smooth="yes"/>
      <point x="595" y="513"/>
      <point x="631" y="478"/>
      <point x="631" y="400" type="curve" smooth="yes"/>
    </contour>
    <contour>
      <point x="228" y="15" type="curve" smooth="yes"/>
      <point x="113" y="15"/>
      <point x="60" y="97"/>
      <point x="60" y="266" type="curve" smooth="yes"/>
      <point x="60" y="432"/>
      <point x="111" y="513"/>
      <point x="227" y="513" type="curve" smooth="yes"/>
      <point x="351" y="513"/>
      <point x="393" y="420"/>
      <point x="393" y="265" type="curve" smooth="yes"/>
      <point x="393" y="89"/>
      <point x="339" y="15"/>
    </contour>
  </outline>
</glyph>
<glyph name="uni01A4" format="2">
  <advance width="720"/>
  <unicode hex="01A4"/>
  <anchor x="398" y="0" name="bottom"/>
  <anchor x="398" y="714" name="top"/>
  <outline>
    <contour>
      <point x="191" y="0" type="line"/>
      <point x="217" y="0" type="line"/>
      <point x="217" y="305" type="line"/>
      <point x="335" y="305" type="line" smooth="yes"/>
      <point x="544" y="305"/>
      <point x="668" y="366"/>
      <point x="668" y="515" type="curve" smooth="yes"/>
      <point x="668" y="659"/>
      <point x="556" y="714"/>
      <point x="348" y="714" type="curve" smooth="yes"/>
      <point x="189" y="714" type="line" smooth="yes"/>
      <point x="82" y="714"/>
      <point x="27" y="660"/>
      <point x="27" y="591" type="curve" smooth="yes"/>
      <point x="27" y="571"/>
      <point x="30" y="550"/>
      <point x="38" y="536" type="curve"/>
      <point x="65" y="536" type="line"/>
      <point x="61" y="546"/>
      <point x="53" y="568"/>
      <point x="53" y="589" type="curve" smooth="yes"/>
      <point x="53" y="650"/>
      <point x="97" y="688"/>
      <point x="191" y="689" type="curve"/>
    </contour>
    <contour>
      <point x="217" y="330" type="line"/>
      <point x="217" y="689" type="line"/>
      <point x="342" y="689" type="line" smooth="yes"/>
      <point x="547" y="689"/>
      <point x="640" y="641"/>
      <point x="640" y="516" type="curve" smooth="yes"/>
      <point x="640" y="375"/>
      <point x="516" y="330"/>
      <point x="331" y="330" type="curve" smooth="yes"/>
    </contour>
  </outline>
</glyph>
<glyph name="uni01A5" format="2">
  <advance width="720"/>
  <unicode hex="01A5"/>
  <anchor x="388" y="-240" name="bottom"/>
  <anchor x="388" y="765" name="top"/>
  <outline>
    <contour>
      <point x="115" y="-240" type="line"/>
      <point x="141" y="-240" type="line"/>
      <point x="141" y="-8" type="line" smooth="yes"/>
      <point x="141" y="32"/>
      <point x="141" y="76"/>
      <point x="139" y="117" type="curve"/>
      <point x="141" y="117" type="line"/>
      <point x="167" y="49"/>
      <point x="242" y="-10"/>
      <point x="379" y="-10" type="curve" smooth="yes"/>
      <point x="552" y="-10"/>
      <point x="652" y="88"/>
      <point x="652" y="271" type="curve" smooth="yes"/>
      <point x="652" y="444"/>
      <point x="564" y="537"/>
      <point x="395" y="537" type="curve" smooth="yes"/>
      <point x="248" y="537"/>
      <point x="167" y="470"/>
      <point x="140" y="400" type="curve"/>
      <point x="137" y="400" type="line"/>
      <point x="140" y="427"/>
      <point x="141" y="455"/>
      <point x="141" y="482" type="curve" smooth="yes"/>
      <point x="141" y="633" type="line" smooth="yes"/>
      <point x="141" y="707"/>
      <point x="191" y="741"/>
      <point x="268" y="741" type="curve" smooth="yes"/>
      <point x="301" y="741"/>
      <point x="326" y="737"/>
      <point x="346" y="732" type="curve"/>
      <point x="346" y="757" type="line"/>
      <point x="329" y="761"/>
      <point x="304" y="765"/>
      <point x="269" y="765" type="curve" smooth="yes"/>
      <point x="172" y="765"/>
      <point x="115" y="720"/>
      <point x="115" y="636" type="curve" smooth="yes"/>
    </contour>
    <contour>
      <point x="383" y="15" type="curve" smooth="yes"/>
      <point x="239" y="15"/>
      <point x="141" y="94"/>
      <point x="141" y="257" type="curve" smooth="yes"/>
      <point x="141" y="269" type="line" smooth="yes"/>
      <point x="141" y="420"/>
      <point x="234" y="512"/>
      <point x="397" y="512" type="curve" smooth="yes"/>
      <point x="548" y="512"/>
      <point x="626" y="433"/>
      <point x="626" y="271" type="curve" smooth="yes"/>
      <point x="626" y="97"/>
      <point x="534" y="15"/>
    </contour>
  </outline>
</glyph>
<glyph name="uni01A6" format="2">
  <advance width="720"/>
  <unicode hex="01A6"/>
  <anchor x="393" y="-100" name="bottom"/>
  <anchor x="393" y="714" name="top"/>
  <outline>
    <contour>
      <point x="678" y="-100" type="line"/>
      <point x="711" y="-100" type="line"/>
      <point x="441" y="226" type="line"/>
      <point x="599" y="252"/>
      <point x="656" y="318"/>
      <point x="656" y="422" type="curve" smooth="yes"/>
      <point x="656" y="571"/>
      <point x="532" y="614"/>
      <point x="322" y="614" type="curve" smooth="yes"/>
      <point x="153" y="614" type="line"/>
      <point x="153" y="714" type="line"/>
      <point x="127" y="714" type="line"/>
      <point x="127" y="0" type="line"/>
      <point x="153" y="0" type="line"/>
      <point x="153" y="220" type="line"/>
      <point x="412" y="220" type="line"/>
    </contour>
    <contour>
      <point x="153" y="245" type="line"/>
      <point x="153" y="589" type="line"/>
      <point x="316" y="589" type="line" smooth="yes"/>
      <point x="516" y="589"/>
      <point x="629" y="550"/>
      <point x="629" y="424" type="curve" smooth="yes"/>
      <point x="629" y="301"/>
      <point x="518" y="245"/>
      <point x="365" y="245" type="curve" smooth="yes"/>
    </contour>
  </outline>
</glyph>
<glyph name="uni01AA" format="2">
  <advance width="720"/>
  <unicode hex="01AA"/>
  <anchor x="380" y="-240" name="bottom"/>
  <anchor x="380" y="770" name="top"/>
  <outline>
    <contour>
      <point x="555" y="-237" type="curve" smooth="yes"/>
      <point x="584" y="-237"/>
      <point x="618" y="-233"/>
      <point x="647" y="-224" type="curve"/>
      <point x="647" y="-199" type="line"/>
      <point x="618" y="-208"/>
      <point x="586" y="-212"/>
      <point x="552" y="-212" type="curve" smooth="yes"/>
      <point x="450" y="-212"/>
      <point x="395" y="-179"/>
      <point x="395" y="-76" type="curve" smooth="yes"/>
      <point x="395" y="634" type="line" smooth="yes"/>
      <point x="395" y="714"/>
      <point x="335" y="765"/>
      <point x="226" y="765" type="curve" smooth="yes"/>
      <point x="117" y="765"/>
      <point x="54" y="717"/>
      <point x="54" y="652" type="curve" smooth="yes"/>
      <point x="54" y="577"/>
      <point x="124" y="539"/>
      <point x="236" y="539" type="curve" smooth="yes"/>
      <point x="369" y="539" type="line"/>
      <point x="369" y="-83" type="line" smooth="yes"/>
      <point x="369" y="-190"/>
      <point x="428" y="-237"/>
    </contour>
    <contour>
      <point x="241" y="564" type="line" smooth="yes"/>
      <point x="140" y="564"/>
      <point x="82" y="591"/>
      <point x="82" y="653" type="curve" smooth="yes"/>
      <point x="82" y="703"/>
      <point x="129" y="740"/>
      <point x="224" y="740" type="curve" smooth="yes"/>
      <point x="317" y="740"/>
      <point x="369" y="705"/>
      <point x="369" y="623" type="curve" smooth="yes"/>
      <point x="369" y="564" type="line"/>
    </contour>
  </outline>
</glyph>
<glyph name="uni01AB" format="2">
  <advance width="720"/>
  <unicode hex="01AB"/>
  <anchor x="474" y="-240" name="bottom"/>
  <anchor x="361" y="659" name="top"/>
  <anchor x="696" y="659" name="topright"/>
  <anchor x="300" y="271" name="center"/>
  <outline>
    <contour>
      <point x="475" y="-241" type="curve" smooth="yes"/>
      <point x="552" y="-241"/>
      <point x="606" y="-202"/>
      <point x="606" y="-135" type="curve" smooth="yes"/>
      <point x="606" y="17" type="line"/>
      <point x="580" y="7" type="line"/>
      <point x="580" y="-132" type="line" smooth="yes"/>
      <point x="580" y="-186"/>
      <point x="542" y="-216"/>
      <point x="479" y="-216" type="curve" smooth="yes"/>
      <point x="447" y="-216"/>
      <point x="422" y="-211"/>
      <point x="401" y="-204" type="curve"/>
      <point x="401" y="-230" type="line"/>
      <point x="418" y="-236"/>
      <point x="439" y="-241"/>
    </contour>
    <component base="t" xOffset="-22"/>
  </outline>
</glyph>
<glyph name="uni01AC" format="2">
  <advance width="720"/>
  <unicode hex="01AC"/>
  <anchor x="361" y="0" name="bottom"/>
  <anchor x="361" y="714" name="top"/>
  <outline>
    <contour>
      <point x="340" y="0" type="line"/>
      <point x="366" y="0" type="line"/>
      <point x="366" y="689" type="line"/>
      <point x="678" y="689" type="line"/>
      <point x="678" y="714" type="line"/>
      <point x="223" y="714" type="line" smooth="yes"/>
      <point x="100" y="714"/>
      <point x="44" y="659"/>
      <point x="44" y="591" type="curve" smooth="yes"/>
      <point x="44" y="567"/>
      <point x="51" y="547"/>
      <point x="57" y="534" type="curve"/>
      <point x="87" y="534" type="line"/>
      <point x="82" y="544"/>
      <point x="72" y="566"/>
      <point x="72" y="590" type="curve" smooth="yes"/>
      <point x="72" y="650"/>
      <point x="119" y="689"/>
      <point x="225" y="689" type="curve" smooth="yes"/>
      <point x="340" y="689" type="line"/>
    </contour>
  </outline>
</glyph>
<glyph name="uni01AD" format="2">
  <advance width="720"/>
  <unicode hex="01AD"/>
  <anchor x="361" y="0" name="bottom"/>
  <anchor x="361" y="765" name="top"/>
  <outline>
    <contour>
      <point x="506" y="-10" type="curve" smooth="yes"/>
      <point x="551" y="-10"/>
      <point x="578" y="-4"/>
      <point x="605" y="3" type="curve"/>
      <point x="605" y="28" type="line"/>
      <point x="577" y="20"/>
      <point x="548" y="15"/>
      <point x="507" y="15" type="curve" smooth="yes"/>
      <point x="372" y="15"/>
      <point x="336" y="74"/>
      <point x="336" y="183" type="curve" smooth="yes"/>
      <point x="336" y="503" type="line"/>
      <point x="614" y="503" type="line"/>
      <point x="614" y="528" type="line"/>
      <point x="336" y="528" type="line"/>
      <point x="336" y="638" type="line" smooth="yes"/>
      <point x="336" y="709"/>
      <point x="377" y="741"/>
      <point x="450" y="741" type="curve" smooth="yes"/>
      <point x="476" y="741"/>
      <point x="502" y="736"/>
      <point x="524" y="729" type="curve"/>
      <point x="524" y="754" type="line"/>
      <point x="507" y="760"/>
      <point x="484" y="765"/>
      <point x="451" y="765" type="curve" smooth="yes"/>
      <point x="364" y="765"/>
      <point x="310" y="720"/>
      <point x="310" y="642" type="curve" smooth="yes"/>
      <point x="310" y="528" type="line"/>
      <point x="92" y="524" type="line"/>
      <point x="92" y="503" type="line"/>
      <point x="310" y="503" type="line"/>
      <point x="310" y="180" type="line" smooth="yes"/>
      <point x="310" y="62"/>
      <point x="350" y="-10"/>
    </contour>
  </outline>
</glyph>
